<svg width="723" height="148" viewBox="0 0 723 148" fill="none" xmlns="http://www.w3.org/2000/svg">
<rect width="723" height="148" fill="url(#paint0_linear_182_13016)"/>
<rect width="723" height="148" fill="url(#paint1_linear_182_13016)"/>
<mask id="mask0_182_13016" style="mask-type:alpha" maskUnits="userSpaceOnUse" x="0" y="0" width="723" height="148">
<rect width="723" height="148" fill="url(#paint2_linear_182_13016)"/>
</mask>
<g mask="url(#mask0_182_13016)">
<path opacity="0.2" d="M244.223 59.2384L0 227.547V360H723V-108L625.479 -74.0172L566.63 -12.2058L507.361 -26.6552L444.729 28.4666L388.823 11.0738C358.978 32.3019 298.952 75.7214 297.607 79.5746C296.262 83.4278 261.457 67.6226 244.223 59.2384Z" fill="url(#paint3_linear_182_13016)"/>
<path opacity="0.2" d="M244.223 136.39L0 261.524V360H723V12.0522L638.93 74.7261L567.471 50.413L497.693 60.9486L443.048 100.581H388.823C358.978 116.364 298.952 148.645 297.607 151.51C296.262 154.375 261.457 142.624 244.223 136.39Z" fill="url(#paint4_linear_182_13016)"/>
</g>
<defs>
<linearGradient id="paint0_linear_182_13016" x1="361.5" y1="0" x2="361.5" y2="148" gradientUnits="userSpaceOnUse">
<stop stop-color="#13599F"/>
<stop offset="1" stop-color="#006FDE"/>
</linearGradient>
<linearGradient id="paint1_linear_182_13016" x1="361.5" y1="0" x2="361.5" y2="148" gradientUnits="userSpaceOnUse">
<stop stop-color="#13599F"/>
<stop offset="1" stop-color="#006FDE"/>
</linearGradient>
<linearGradient id="paint2_linear_182_13016" x1="361.5" y1="0" x2="361.5" y2="148" gradientUnits="userSpaceOnUse">
<stop stop-color="#13599F"/>
<stop offset="1" stop-color="#006FDE"/>
</linearGradient>
<linearGradient id="paint3_linear_182_13016" x1="361.5" y1="-108" x2="361.5" y2="360" gradientUnits="userSpaceOnUse">
<stop stop-color="#158AFF"/>
<stop offset="1" stop-color="#C4C4C4" stop-opacity="0"/>
</linearGradient>
<linearGradient id="paint4_linear_182_13016" x1="361.5" y1="12.0522" x2="361.5" y2="360" gradientUnits="userSpaceOnUse">
<stop stop-color="#158AFF"/>
<stop offset="1" stop-color="#C4C4C4" stop-opacity="0"/>
</linearGradient>
</defs>
</svg>
