<svg width="723" height="1001" viewBox="0 0 723 1001" fill="none" xmlns="http://www.w3.org/2000/svg">
<rect width="723" height="1001" fill="url(#paint0_linear_403_5187)"/>
<path opacity="0.2" d="M244.223 336.763L0 547.868V714H723V127L625.479 169.624L566.63 247.152L507.361 229.029L444.729 298.166L388.823 276.351C358.978 302.977 298.952 357.437 297.607 362.27C296.262 367.103 261.457 347.279 244.223 336.763Z" fill="url(#paint1_linear_403_5187)"/>
<path opacity="0.2" d="M244.223 433.532L0 590.484V714H723V277.578L638.93 356.188L567.471 325.693L497.693 338.908L443.048 388.617H388.823C358.978 408.413 298.952 448.903 297.607 452.496C296.262 456.089 261.457 441.351 244.223 433.532Z" fill="url(#paint2_linear_403_5187)"/>
<defs>
<linearGradient id="paint0_linear_403_5187" x1="361.5" y1="0" x2="361.5" y2="1001" gradientUnits="userSpaceOnUse">
<stop stop-color="#13599F"/>
<stop offset="1" stop-color="#006FDE"/>
</linearGradient>
<linearGradient id="paint1_linear_403_5187" x1="361.5" y1="127" x2="361.5" y2="714" gradientUnits="userSpaceOnUse">
<stop stop-color="#158AFF"/>
<stop offset="1" stop-color="#C4C4C4" stop-opacity="0"/>
</linearGradient>
<linearGradient id="paint2_linear_403_5187" x1="361.5" y1="277.578" x2="361.5" y2="714" gradientUnits="userSpaceOnUse">
<stop stop-color="#158AFF"/>
<stop offset="1" stop-color="#C4C4C4" stop-opacity="0"/>
</linearGradient>
</defs>
</svg>
