<svg width="1066" height="409" fill="none" xmlns="http://www.w3.org/2000/svg"><path d="M368.506 161.579 27 300.038V409h1011V24L901.633 51.956l-82.291 50.849-82.879-11.887-87.58 45.346-78.177-14.308c-41.733 17.463-125.669 53.182-127.55 56.352-1.881 3.17-50.55-9.832-74.65-16.729Z" fill="url(#a)" fill-opacity=".7"/><g filter="url(#b)"><path d="M28 308a8 8 0 1 1 8-8 8.01 8.01 0 0 1-8 8Zm0-13.714a5.714 5.714 0 1 0 0 11.428 5.714 5.714 0 0 0 0-11.428Zm0 9.143a3.429 3.429 0 1 1 0-6.857 3.429 3.429 0 0 1 0 6.857Z" fill="url(#c)"/></g><g filter="url(#d)"><path d="M369 169a8 8 0 1 1 8-8 8.01 8.01 0 0 1-8 8Zm0-13.714a5.714 5.714 0 1 0 0 11.427 5.714 5.714 0 0 0 0-11.427Zm0 9.143a3.429 3.429 0 1 1 0-6.857 3.429 3.429 0 0 1 0 6.857Z" fill="url(#e)"/></g><g filter="url(#f)"><path d="M442 186a8 8 0 1 1 8-8 8.01 8.01 0 0 1-8 8Zm0-13.714a5.714 5.714 0 1 0 0 11.427 5.714 5.714 0 0 0 0-11.427Zm0 9.143a3.429 3.429 0 1 1 0-6.857 3.429 3.429 0 0 1 0 6.857Z" fill="url(#g)"/></g><g filter="url(#h)"><path d="M571 130a8 8 0 1 1 8-8 8.01 8.01 0 0 1-8 8Zm0-13.714a5.714 5.714 0 1 0 0 11.427 5.714 5.714 0 0 0 0-11.427Zm0 9.143a3.429 3.429 0 1 1 0-6.857 3.429 3.429 0 0 1 0 6.857Z" fill="url(#i)"/></g><g filter="url(#j)"><path d="M649 144a8 8 0 1 1 8-8 8.01 8.01 0 0 1-8 8Zm0-13.714a5.714 5.714 0 1 0 0 11.427 5.714 5.714 0 0 0 0-11.427Zm0 9.143a3.429 3.429 0 1 1 0-6.857 3.429 3.429 0 0 1 0 6.857Z" fill="url(#k)"/></g><g filter="url(#l)"><path d="M737 99a8 8 0 1 1 8-8 8.01 8.01 0 0 1-8 8Zm0-13.714a5.714 5.714 0 1 0 0 11.428 5.714 5.714 0 0 0 0-11.428Zm0 9.143a3.429 3.429 0 1 1 0-6.858 3.429 3.429 0 0 1 0 6.858Z" fill="url(#m)"/></g><g filter="url(#n)"><path d="M820 111a8 8 0 1 1 8-8 8.01 8.01 0 0 1-8 8Zm0-13.714a5.714 5.714 0 1 0 0 11.428 5.714 5.714 0 0 0 0-11.428Zm0 9.143a3.429 3.429 0 1 1 0-6.857 3.429 3.429 0 0 1 0 6.857Z" fill="url(#o)"/></g><g filter="url(#p)"><path d="M902 60a8 8 0 1 1 8-8 8.01 8.01 0 0 1-8 8Zm0-13.714a5.714 5.714 0 1 0 0 11.428 5.714 5.714 0 0 0 0-11.428Zm0 9.143a3.429 3.429 0 1 1 0-6.858 3.429 3.429 0 0 1 0 6.858Z" fill="url(#q)"/></g><g filter="url(#r)"><path d="M1038 32c-4.42 0-8-3.582-8-8s3.58-8 8-8 8 3.582 8 8c-.01 4.416-3.58 7.995-8 8Zm0-13.714a5.708 5.708 0 0 0-5.71 5.714 5.708 5.708 0 0 0 5.71 5.714c3.16 0 5.71-2.558 5.71-5.714a5.708 5.708 0 0 0-5.71-5.714Zm0 9.143a3.432 3.432 0 0 1-3.43-3.429 3.432 3.432 0 0 1 3.43-3.429c1.89 0 3.43 1.535 3.43 3.429 0 .91-.36 1.781-1.01 2.424a3.412 3.412 0 0 1-2.42 1.005Z" fill="url(#s)"/></g><defs><linearGradient id="a" x1="532.5" y1="24" x2="532.5" y2="409" gradientUnits="userSpaceOnUse"><stop stop-color="#158AFF"/><stop offset="1" stop-color="#C4C4C4" stop-opacity="0"/></linearGradient><linearGradient id="s" x1="1030" y1="16" x2="1046" y2="16" gradientUnits="userSpaceOnUse"><stop stop-color="#006FDE"/><stop offset="1" stop-color="#158AFF"/></linearGradient><linearGradient id="q" x1="894" y1="44" x2="910" y2="44" gradientUnits="userSpaceOnUse"><stop stop-color="#006FDE"/><stop offset="1" stop-color="#158AFF"/></linearGradient><linearGradient id="o" x1="812" y1="95" x2="828" y2="95" gradientUnits="userSpaceOnUse"><stop stop-color="#006FDE"/><stop offset="1" stop-color="#158AFF"/></linearGradient><linearGradient id="m" x1="729" y1="83" x2="745" y2="83" gradientUnits="userSpaceOnUse"><stop stop-color="#006FDE"/><stop offset="1" stop-color="#158AFF"/></linearGradient><linearGradient id="k" x1="641" y1="128" x2="657" y2="128" gradientUnits="userSpaceOnUse"><stop stop-color="#006FDE"/><stop offset="1" stop-color="#158AFF"/></linearGradient><linearGradient id="i" x1="563" y1="114" x2="579" y2="114" gradientUnits="userSpaceOnUse"><stop stop-color="#006FDE"/><stop offset="1" stop-color="#158AFF"/></linearGradient><linearGradient id="g" x1="434" y1="170" x2="450" y2="170" gradientUnits="userSpaceOnUse"><stop stop-color="#006FDE"/><stop offset="1" stop-color="#158AFF"/></linearGradient><linearGradient id="e" x1="361" y1="153" x2="377" y2="153" gradientUnits="userSpaceOnUse"><stop stop-color="#006FDE"/><stop offset="1" stop-color="#158AFF"/></linearGradient><linearGradient id="c" x1="20" y1="292" x2="36" y2="292" gradientUnits="userSpaceOnUse"><stop stop-color="#006FDE"/><stop offset="1" stop-color="#158AFF"/></linearGradient><filter id="d" x="341" y="137" width="56" height="56" filterUnits="userSpaceOnUse" color-interpolation-filters="sRGB"><feFlood flood-opacity="0" result="BackgroundImageFix"/><feColorMatrix in="SourceAlpha" values="0 0 0 0 0 0 0 0 0 0 0 0 0 0 0 0 0 0 127 0" result="hardAlpha"/><feOffset dy="4"/><feGaussianBlur stdDeviation="10"/><feColorMatrix values="0 0 0 0 0.0833333 0 0 0 0 0.541667 0 0 0 0 1 0 0 0 1 0"/><feBlend in2="BackgroundImageFix" result="effect1_dropShadow_301_5188"/><feBlend in="SourceGraphic" in2="effect1_dropShadow_301_5188" result="shape"/><feColorMatrix in="SourceAlpha" values="0 0 0 0 0 0 0 0 0 0 0 0 0 0 0 0 0 0 127 0" result="hardAlpha"/><feOffset dy="-2"/><feComposite in2="hardAlpha" operator="arithmetic" k2="-1" k3="1"/><feColorMatrix values="0 0 0 0 0 0 0 0 0 0 0 0 0 0 0 0 0 0 0.15 0"/><feBlend in2="shape" result="effect2_innerShadow_301_5188"/></filter><filter id="r" x="1010" y="0" width="56" height="56" filterUnits="userSpaceOnUse" color-interpolation-filters="sRGB"><feFlood flood-opacity="0" result="BackgroundImageFix"/><feColorMatrix in="SourceAlpha" values="0 0 0 0 0 0 0 0 0 0 0 0 0 0 0 0 0 0 127 0" result="hardAlpha"/><feOffset dy="4"/><feGaussianBlur stdDeviation="10"/><feColorMatrix values="0 0 0 0 0.0833333 0 0 0 0 0.541667 0 0 0 0 1 0 0 0 1 0"/><feBlend in2="BackgroundImageFix" result="effect1_dropShadow_301_5188"/><feBlend in="SourceGraphic" in2="effect1_dropShadow_301_5188" result="shape"/><feColorMatrix in="SourceAlpha" values="0 0 0 0 0 0 0 0 0 0 0 0 0 0 0 0 0 0 127 0" result="hardAlpha"/><feOffset dy="-2"/><feComposite in2="hardAlpha" operator="arithmetic" k2="-1" k3="1"/><feColorMatrix values="0 0 0 0 0 0 0 0 0 0 0 0 0 0 0 0 0 0 0.15 0"/><feBlend in2="shape" result="effect2_innerShadow_301_5188"/></filter><filter id="p" x="874" y="28" width="56" height="56" filterUnits="userSpaceOnUse" color-interpolation-filters="sRGB"><feFlood flood-opacity="0" result="BackgroundImageFix"/><feColorMatrix in="SourceAlpha" values="0 0 0 0 0 0 0 0 0 0 0 0 0 0 0 0 0 0 127 0" result="hardAlpha"/><feOffset dy="4"/><feGaussianBlur stdDeviation="10"/><feColorMatrix values="0 0 0 0 0.0833333 0 0 0 0 0.541667 0 0 0 0 1 0 0 0 1 0"/><feBlend in2="BackgroundImageFix" result="effect1_dropShadow_301_5188"/><feBlend in="SourceGraphic" in2="effect1_dropShadow_301_5188" result="shape"/><feColorMatrix in="SourceAlpha" values="0 0 0 0 0 0 0 0 0 0 0 0 0 0 0 0 0 0 127 0" result="hardAlpha"/><feOffset dy="-2"/><feComposite in2="hardAlpha" operator="arithmetic" k2="-1" k3="1"/><feColorMatrix values="0 0 0 0 0 0 0 0 0 0 0 0 0 0 0 0 0 0 0.15 0"/><feBlend in2="shape" result="effect2_innerShadow_301_5188"/></filter><filter id="n" x="792" y="79" width="56" height="56" filterUnits="userSpaceOnUse" color-interpolation-filters="sRGB"><feFlood flood-opacity="0" result="BackgroundImageFix"/><feColorMatrix in="SourceAlpha" values="0 0 0 0 0 0 0 0 0 0 0 0 0 0 0 0 0 0 127 0" result="hardAlpha"/><feOffset dy="4"/><feGaussianBlur stdDeviation="10"/><feColorMatrix values="0 0 0 0 0.0833333 0 0 0 0 0.541667 0 0 0 0 1 0 0 0 1 0"/><feBlend in2="BackgroundImageFix" result="effect1_dropShadow_301_5188"/><feBlend in="SourceGraphic" in2="effect1_dropShadow_301_5188" result="shape"/><feColorMatrix in="SourceAlpha" values="0 0 0 0 0 0 0 0 0 0 0 0 0 0 0 0 0 0 127 0" result="hardAlpha"/><feOffset dy="-2"/><feComposite in2="hardAlpha" operator="arithmetic" k2="-1" k3="1"/><feColorMatrix values="0 0 0 0 0 0 0 0 0 0 0 0 0 0 0 0 0 0 0.15 0"/><feBlend in2="shape" result="effect2_innerShadow_301_5188"/></filter><filter id="l" x="709" y="67" width="56" height="56" filterUnits="userSpaceOnUse" color-interpolation-filters="sRGB"><feFlood flood-opacity="0" result="BackgroundImageFix"/><feColorMatrix in="SourceAlpha" values="0 0 0 0 0 0 0 0 0 0 0 0 0 0 0 0 0 0 127 0" result="hardAlpha"/><feOffset dy="4"/><feGaussianBlur stdDeviation="10"/><feColorMatrix values="0 0 0 0 0.0833333 0 0 0 0 0.541667 0 0 0 0 1 0 0 0 1 0"/><feBlend in2="BackgroundImageFix" result="effect1_dropShadow_301_5188"/><feBlend in="SourceGraphic" in2="effect1_dropShadow_301_5188" result="shape"/><feColorMatrix in="SourceAlpha" values="0 0 0 0 0 0 0 0 0 0 0 0 0 0 0 0 0 0 127 0" result="hardAlpha"/><feOffset dy="-2"/><feComposite in2="hardAlpha" operator="arithmetic" k2="-1" k3="1"/><feColorMatrix values="0 0 0 0 0 0 0 0 0 0 0 0 0 0 0 0 0 0 0.15 0"/><feBlend in2="shape" result="effect2_innerShadow_301_5188"/></filter><filter id="j" x="621" y="112" width="56" height="56" filterUnits="userSpaceOnUse" color-interpolation-filters="sRGB"><feFlood flood-opacity="0" result="BackgroundImageFix"/><feColorMatrix in="SourceAlpha" values="0 0 0 0 0 0 0 0 0 0 0 0 0 0 0 0 0 0 127 0" result="hardAlpha"/><feOffset dy="4"/><feGaussianBlur stdDeviation="10"/><feColorMatrix values="0 0 0 0 0.0833333 0 0 0 0 0.541667 0 0 0 0 1 0 0 0 1 0"/><feBlend in2="BackgroundImageFix" result="effect1_dropShadow_301_5188"/><feBlend in="SourceGraphic" in2="effect1_dropShadow_301_5188" result="shape"/><feColorMatrix in="SourceAlpha" values="0 0 0 0 0 0 0 0 0 0 0 0 0 0 0 0 0 0 127 0" result="hardAlpha"/><feOffset dy="-2"/><feComposite in2="hardAlpha" operator="arithmetic" k2="-1" k3="1"/><feColorMatrix values="0 0 0 0 0 0 0 0 0 0 0 0 0 0 0 0 0 0 0.15 0"/><feBlend in2="shape" result="effect2_innerShadow_301_5188"/></filter><filter id="h" x="543" y="98" width="56" height="56" filterUnits="userSpaceOnUse" color-interpolation-filters="sRGB"><feFlood flood-opacity="0" result="BackgroundImageFix"/><feColorMatrix in="SourceAlpha" values="0 0 0 0 0 0 0 0 0 0 0 0 0 0 0 0 0 0 127 0" result="hardAlpha"/><feOffset dy="4"/><feGaussianBlur stdDeviation="10"/><feColorMatrix values="0 0 0 0 0.0833333 0 0 0 0 0.541667 0 0 0 0 1 0 0 0 1 0"/><feBlend in2="BackgroundImageFix" result="effect1_dropShadow_301_5188"/><feBlend in="SourceGraphic" in2="effect1_dropShadow_301_5188" result="shape"/><feColorMatrix in="SourceAlpha" values="0 0 0 0 0 0 0 0 0 0 0 0 0 0 0 0 0 0 127 0" result="hardAlpha"/><feOffset dy="-2"/><feComposite in2="hardAlpha" operator="arithmetic" k2="-1" k3="1"/><feColorMatrix values="0 0 0 0 0 0 0 0 0 0 0 0 0 0 0 0 0 0 0.15 0"/><feBlend in2="shape" result="effect2_innerShadow_301_5188"/></filter><filter id="f" x="414" y="154" width="56" height="56" filterUnits="userSpaceOnUse" color-interpolation-filters="sRGB"><feFlood flood-opacity="0" result="BackgroundImageFix"/><feColorMatrix in="SourceAlpha" values="0 0 0 0 0 0 0 0 0 0 0 0 0 0 0 0 0 0 127 0" result="hardAlpha"/><feOffset dy="4"/><feGaussianBlur stdDeviation="10"/><feColorMatrix values="0 0 0 0 0.0833333 0 0 0 0 0.541667 0 0 0 0 1 0 0 0 1 0"/><feBlend in2="BackgroundImageFix" result="effect1_dropShadow_301_5188"/><feBlend in="SourceGraphic" in2="effect1_dropShadow_301_5188" result="shape"/><feColorMatrix in="SourceAlpha" values="0 0 0 0 0 0 0 0 0 0 0 0 0 0 0 0 0 0 127 0" result="hardAlpha"/><feOffset dy="-2"/><feComposite in2="hardAlpha" operator="arithmetic" k2="-1" k3="1"/><feColorMatrix values="0 0 0 0 0 0 0 0 0 0 0 0 0 0 0 0 0 0 0.15 0"/><feBlend in2="shape" result="effect2_innerShadow_301_5188"/></filter><filter id="b" x="0" y="276" width="56" height="56" filterUnits="userSpaceOnUse" color-interpolation-filters="sRGB"><feFlood flood-opacity="0" result="BackgroundImageFix"/><feColorMatrix in="SourceAlpha" values="0 0 0 0 0 0 0 0 0 0 0 0 0 0 0 0 0 0 127 0" result="hardAlpha"/><feOffset dy="4"/><feGaussianBlur stdDeviation="10"/><feColorMatrix values="0 0 0 0 0.0833333 0 0 0 0 0.541667 0 0 0 0 1 0 0 0 1 0"/><feBlend in2="BackgroundImageFix" result="effect1_dropShadow_301_5188"/><feBlend in="SourceGraphic" in2="effect1_dropShadow_301_5188" result="shape"/><feColorMatrix in="SourceAlpha" values="0 0 0 0 0 0 0 0 0 0 0 0 0 0 0 0 0 0 127 0" result="hardAlpha"/><feOffset dy="-2"/><feComposite in2="hardAlpha" operator="arithmetic" k2="-1" k3="1"/><feColorMatrix values="0 0 0 0 0 0 0 0 0 0 0 0 0 0 0 0 0 0 0.15 0"/><feBlend in2="shape" result="effect2_innerShadow_301_5188"/></filter></defs></svg>