<svg width="122" height="122" viewBox="0 0 122 122" fill="none" xmlns="http://www.w3.org/2000/svg">
<path fill-rule="evenodd" clip-rule="evenodd" d="M56.8066 5.22701C62.9274 4.76686 69.2236 5.31432 75.4725 6.98872C80.8979 8.44246 85.9304 10.6499 90.4821 13.4712C110.893 26.1222 121.55 51.0691 115.012 75.4722C114.663 76.7745 113.811 77.8848 112.643 78.5589C111.476 79.233 110.088 79.4157 108.786 79.0667L79.3892 71.1901C79.3503 71.1801 79.3114 71.1697 79.2725 71.1588L64.5625 67.2173L53.6909 106.75H111.833C114.641 106.75 116.917 109.026 116.917 111.834C116.917 114.641 114.641 116.917 111.833 116.917H47.1258C47.058 116.918 46.9901 116.918 46.9221 116.917H10.1668C7.35938 116.917 5.0835 114.641 5.0835 111.834C5.0835 109.026 7.35938 106.75 10.1668 106.75H43.1468L54.742 64.586L40.0902 60.66C40.0553 60.651 40.0206 60.6417 39.986 60.6321L10.5834 52.7536C7.87158 52.027 6.26228 49.2396 6.9889 46.5278C13.307 22.9482 33.7833 6.95774 56.8066 5.22701ZM47.4642 52.1106C47.6803 51.3743 47.9332 50.5673 48.2271 49.7046C49.6582 45.5043 52.0091 40.1398 55.6909 35.2185C59.4143 30.2416 64.6655 25.4855 69.1449 21.8909C70.1942 21.0489 71.1881 20.2809 72.0934 19.5995C72.5367 20.6422 73.0135 21.8044 73.5012 23.0581C75.5832 28.4108 77.7528 35.1554 78.4888 41.3273C79.2167 47.4299 78.5705 53.2513 77.7096 57.6044C77.5328 58.4984 77.3484 59.3238 77.1674 60.0694L47.4642 52.1106ZM86.9899 62.7013C87.2218 61.7609 87.4582 60.7143 87.6832 59.5767C88.6755 54.5588 89.4771 47.6114 88.5839 40.1232C87.794 33.4996 85.7006 26.6771 83.6934 21.2606C84.1773 21.5365 84.6549 21.8205 85.126 22.1125C100.443 31.6059 109.034 49.5606 106.237 67.8586L86.9899 62.7013ZM61.2169 15.2381C59.9936 15.2314 58.7767 15.2743 57.5687 15.3651C40.3413 16.6601 24.8732 27.7121 18.3946 44.3213L37.6417 49.4786C37.9111 48.5482 38.2297 47.5236 38.6036 46.4259C40.2533 41.5841 43.0327 35.1666 47.5504 29.1282C51.5463 23.787 56.7704 18.9254 61.2169 15.2381Z" fill="white" fill-opacity="0.2"/>
</svg>
