<svg width="34" height="34" viewBox="0 0 34 34" fill="none" xmlns="http://www.w3.org/2000/svg">
<path d="M16.9997 31.1654C9.17543 31.1654 2.83301 24.8229 2.83301 16.9987C2.83301 9.17445 9.17543 2.83203 16.9997 2.83203C24.8239 2.83203 31.1663 9.17445 31.1663 16.9987C31.1663 24.8229 24.8239 31.1654 16.9997 31.1654ZM16.9997 28.332C20.0055 28.332 22.8881 27.138 25.0136 25.0126C27.139 22.8872 28.333 20.0045 28.333 16.9987C28.333 13.9929 27.139 11.1102 25.0136 8.98482C22.8881 6.85941 20.0055 5.66536 16.9997 5.66536C13.9939 5.66536 11.1112 6.85941 8.9858 8.98482C6.86039 11.1102 5.66634 13.9929 5.66634 16.9987C5.66634 20.0045 6.86039 22.8872 8.9858 25.0126C11.1112 27.138 13.9939 28.332 16.9997 28.332ZM15.583 22.6654H11.333V11.332H15.583V8.4987H18.4163V11.332H19.833C20.4907 11.332 21.1355 11.5152 21.695 11.861C22.2545 12.2068 22.7066 12.7015 23.0008 13.2898C23.2949 13.8781 23.4194 14.5367 23.3604 15.1918C23.3013 15.8468 23.061 16.4725 22.6663 16.9987C23.061 17.5249 23.3013 18.1506 23.3604 18.8056C23.4194 19.4607 23.2949 20.1193 23.0008 20.7076C22.7066 21.2959 22.2545 21.7906 21.695 22.1364C21.1355 22.4822 20.4907 22.6654 19.833 22.6654H18.4163V25.4987H15.583V22.6654ZM14.1663 18.4154V19.832H19.833C20.0209 19.832 20.201 19.7574 20.3339 19.6246C20.4667 19.4917 20.5413 19.3116 20.5413 19.1237C20.5413 18.9358 20.4667 18.7557 20.3339 18.6228C20.201 18.49 20.0209 18.4154 19.833 18.4154H14.1663ZM14.1663 14.1654V15.582H19.833C20.0209 15.582 20.201 15.5074 20.3339 15.3746C20.4667 15.2417 20.5413 15.0616 20.5413 14.8737C20.5413 14.6858 20.4667 14.5057 20.3339 14.3728C20.201 14.24 20.0209 14.1654 19.833 14.1654H14.1663Z" fill="#FF3158"/>
</svg>
