<svg width="74" height="75" fill="none" xmlns="http://www.w3.org/2000/svg"><path d="M74 31.452h-2.682l-3.997 2.131a5.891 5.891 0 0 0-1.423-.593l-5.028-1.275v-.58a8.529 8.529 0 0 0 3.582-6.941v-2.115c0-4.7-3.633-8.632-8.099-8.769a8.848 8.848 0 0 0-.674.014l1.304-3.094-6.32-6.404-3.726 2.458a20.04 20.04 0 0 0-4.468-1.878L41.549 0h-9.096l-.92 4.407a20.019 20.019 0 0 0-4.468 1.878l-3.726-2.458-6.315 6.4 1.281 3.097c-.049-.003-.095-.012-.144-.013a8.232 8.232 0 0 0-6.074 2.387 8.446 8.446 0 0 0-2.539 6.076v2.42a8.525 8.525 0 0 0 3.581 6.94v.581l-3.28.831-5.945-3.514H0v25.066l11.742 3.967h2.287l.285-1.014 3.6 2.19c.059 1.983 1.628 3.579 3.583 3.649.069 1.973 1.634 3.559 3.58 3.629.07 1.973 1.634 3.559 3.582 3.629.07 2.02 1.703 3.642 3.711 3.642.746 0 1.478-.235 2.093-.655l1.057.946c.662.591 1.516.919 2.401.919h.221c1.986 0 3.602-1.627 3.627-3.634 1.965-.025 3.556-1.638 3.581-3.629 1.966-.025 3.558-1.64 3.58-3.632 1.985-.048 3.586-1.69 3.586-3.712 0-.122-.006-.242-.018-.363L74 49.135V31.452Zm-11.935-9.373v2.115a6.087 6.087 0 0 1-2.988 5.234l-.597.35.005 3.828 5.963 1.51-13.125 7.001V38.86a6.06 6.06 0 0 0-1.71-4.216l4.097-1.037v-3.831l-.596-.35a6.08 6.08 0 0 1-2.985-5.231v-2.42c0-1.65.643-3.192 1.813-4.341 1.169-1.148 2.719-1.767 4.34-1.704 3.188.097 5.783 2.946 5.783 6.35ZM38.8 41.166l-5.403-1.75a14.55 14.55 0 0 0-7.648-.353l-.684.154v-.358c0-1.669 1.116-3.117 2.711-3.522l6.837-1.731v-3.831l-.596-.35a6.08 6.08 0 0 1-2.985-5.231v-2.42c0-1.65.644-3.192 1.813-4.341 1.169-1.148 2.729-1.767 4.34-1.704 3.188.097 5.783 2.946 5.783 6.35v2.115a6.087 6.087 0 0 1-2.988 5.234l-.596.35.004 3.828 6.836 1.731c1.595.405 2.712 1.853 2.712 3.521v4.533l-.295.157h-.732l-7.338-2.125c-.578-.166-1.173-.234-1.771-.257ZM25.332 18.105c2.241-4.402 6.753-7.218 11.668-7.218 4.869 0 9.36 2.779 11.619 7.12a8.507 8.507 0 0 0-.877 3.767v2.42a8.526 8.526 0 0 0 3.58 6.94v.581l-4.774 1.211-4.775-1.211v-.58a8.529 8.529 0 0 0 3.582-6.941v-2.115c0-4.7-3.633-8.632-8.099-8.769a8.232 8.232 0 0 0-6.073 2.387 8.454 8.454 0 0 0-2.538 6.077v2.42a8.525 8.525 0 0 0 3.58 6.94v.581l-4.773 1.211-4.776-1.211v-.58a8.529 8.529 0 0 0 3.582-6.941v-2.115a9.015 9.015 0 0 0-.926-3.974Zm-5.49-7.316 3.814-3.865 3.356 2.214.642-.4a17.68 17.68 0 0 1 5.169-2.172l.734-.178.83-3.969h5.227l.828 3.968.734.178a17.698 17.698 0 0 1 5.168 2.173l.643.399 3.356-2.214 3.808 3.861-1.353 3.213a8.338 8.338 0 0 0-2.52 1.697c-.049.049-.09.1-.139.15-2.811-4.53-7.783-7.376-13.139-7.376-5.395 0-10.38 2.873-13.185 7.45a8.42 8.42 0 0 0-2.633-1.893l-1.34-3.236Zm-4.326 22.817v-3.831l-.595-.35a6.08 6.08 0 0 1-2.986-5.231v-2.42c0-1.65.644-3.192 1.813-4.341 1.169-1.148 2.723-1.767 4.34-1.704 3.188.097 5.783 2.946 5.783 6.35v2.115a6.087 6.087 0 0 1-2.987 5.234l-.597.35.005 3.828 4.095 1.037a6.06 6.06 0 0 0-1.71 4.215v.897l-3.722.838.096-.342.046-2.236-6.295-3.722 2.714-.687ZM2.387 31.452h.87l8.584 5.074L7.51 54.085l-5.123-1.732V31.452Zm9.742 24.193-2.35-.793 4.209-17.057 2.722 1.61v.345l-4.48 15.895h-.101Zm8.161 3.483c0-.357.143-.707.392-.96l2.098-2.126c.25-.253.594-.397.946-.397.738 0 1.338.608 1.338 1.356 0 .357-.142.707-.391.96l-2.098 2.126c-.25.253-.595.397-.947.397a1.349 1.349 0 0 1-1.338-1.356Zm3.581 3.629c0-.357.142-.707.392-.96l2.098-2.126c.25-.253.594-.397.946-.397.738 0 1.338.609 1.338 1.356 0 .357-.142.707-.392.96l-2.098 2.126c-.249.253-.594.397-.946.397a1.349 1.349 0 0 1-1.338-1.356Zm3.58 3.629c0-.357.143-.707.392-.96l2.098-2.126c.25-.253.595-.397.947-.397.737 0 1.338.609 1.338 1.356 0 .357-.142.707-.392.96l-2.098 2.126c-.25.253-.594.397-.946.397a1.349 1.349 0 0 1-1.338-1.356Zm4.92 4.985a1.349 1.349 0 0 1-1.339-1.356c0-.357.142-.707.392-.96l2.098-2.126c.25-.253.594-.397.946-.397.738 0 1.338.609 1.338 1.356 0 .357-.142.707-.391.96l-2.098 2.126c-.25.253-.595.397-.947.397Zm5.771 1.21h-.22c-.305 0-.596-.113-.823-.316l-.893-.798.897-.909c.32-.324.568-.71.751-1.124l1.086.916c.283.24.447.593.447.969 0 .696-.558 1.262-1.245 1.262Zm10.704-10.887h-.207c-.3 0-.592-.108-.82-.303l-6.473-5.466-1.53 1.859 6.286 5.308c.283.24.446.593.446.969 0 .696-.558 1.262-1.244 1.262h-.261c-.29 0-.573-.104-.796-.293l-6.483-5.475-1.53 1.86 6.286 5.307c.284.239.448.592.448.968 0 .696-.559 1.262-1.245 1.262-.458 0-.905-.165-1.256-.461l-2.664-2.25a3.711 3.711 0 0 0-3.205-2.115c-.068-1.973-1.633-3.559-3.58-3.629-.07-1.973-1.634-3.559-3.581-3.629-.07-2.02-1.702-3.642-3.71-3.642-.981 0-1.941.403-2.635 1.105l-2.098 2.127c-.125.127-.229.271-.334.414l-3.667-2.23 3.214-11.4 8.058-1.816a12.139 12.139 0 0 1 6.404.293l1.758.57-5.96 3.02a4.039 4.039 0 0 0-2.209 3.625v.24c0 2.234 1.794 4.052 3.999 4.052.724 0 1.437-.2 2.056-.578l4.445-2.702a2.438 2.438 0 0 1 2.862.28l10.084 9.198c.27.248.425.6.425.969 0 .718-.575 1.3-1.283 1.3Zm22.767-14.055L51.505 57.83a3.372 3.372 0 0 0-.205-.202L41.217 48.43a4.756 4.756 0 0 0-5.688-.558l-4.447 2.702c-.25.153-.534.233-.825.233-.89 0-1.612-.732-1.612-1.634v-.239c0-.623.342-1.182.89-1.46l6.658-3.374a5.125 5.125 0 0 1 3.72-.35l7.5 2.172 1.817.046 22.383-11.94V47.64Z" fill="#90A1AE"/></svg>