<svg width="77" height="73" fill="none" xmlns="http://www.w3.org/2000/svg"><path d="M75.87 61.682H74v-40.26c0-4.115-3.31-7.463-7.38-7.463h-2.924c-.624 0-1.13.511-1.13 1.142 0 .631.506 1.143 1.13 1.143h2.924c2.824 0 5.121 2.323 5.121 5.178v40.26h-25.25c-.771 0-1.49.384-1.924 1.029l-.339.503a1.682 1.682 0 0 1-1.396.747h-8.815c-.56 0-1.082-.279-1.396-.747l-.339-.503a2.318 2.318 0 0 0-1.923-1.029h-25.1v-40.26c0-2.855 2.297-5.178 5.121-5.178h18.375c.624 0 1.13-.512 1.13-1.143 0-.63-.506-1.142-1.13-1.142H10.38C6.31 13.96 3 17.307 3 21.422v40.26H1.13c-.624 0-1.13.511-1.13 1.142v2.378C0 69.502 3.46 73 7.711 73H69.29C73.54 73 77 69.502 77 65.202v-2.378c0-.63-.506-1.142-1.13-1.142Zm-1.129 3.52c0 3.04-2.446 5.514-5.452 5.514H7.71c-3.006 0-5.452-2.474-5.452-5.514v-1.235h28.1c.022 0 .043.01.055.03l.34.502a3.932 3.932 0 0 0 3.263 1.747h8.816a3.933 3.933 0 0 0 3.263-1.746l.339-.504a.067.067 0 0 1 .056-.03h28.25v1.236Z" fill="#90A1AE"/><path d="M42.214 15.101c0 .631.506 1.143 1.13 1.143h4.248c.624 0 1.13-.512 1.13-1.143 0-.63-.506-1.142-1.13-1.142h-4.248c-.624 0-1.13.511-1.13 1.142ZM47.592 21.117c.624 0 1.13-.511 1.13-1.142 0-.631-.506-1.143-1.13-1.143h-4.248c-.624 0-1.13.512-1.13 1.143 0 .63.506 1.142 1.13 1.142h4.248Z" fill="#90A1AE"/><path d="M52.11 36.735c-.623 0-1.129.51-1.129 1.142v18.931h-2.67V28.32c0-1.384-1.113-2.51-2.483-2.51h-4.36c-1.37 0-2.483 1.126-2.483 2.51v28.49h-2.67V34.67c0-1.385-1.113-2.51-2.483-2.51h-4.36c-1.369 0-2.483 1.125-2.483 2.51v22.137h-2.67V39.594c0-1.385-1.113-2.511-2.482-2.511h-4.36c-1.37 0-2.484 1.126-2.484 2.51v6.142c0 .63.506 1.142 1.13 1.142.624 0 1.13-.511 1.13-1.142v-6.141c0-.125.1-.227.224-.227h4.36c.123 0 .224.102.224.227v17.214h-4.809v-6.201c0-.631-.505-1.142-1.13-1.142-.623 0-1.129.51-1.129 1.142v6.201h-4.915V21.422c0-.168.136-.305.302-.305h18.376c.623 0 1.13-.511 1.13-1.142 0-.631-.507-1.143-1.13-1.143H10.38c-1.412 0-2.56 1.162-2.56 2.59v36.529c0 .63.505 1.142 1.129 1.142h59.103c.623 0 1.13-.511 1.13-1.142V21.422c0-1.428-1.15-2.59-2.562-2.59h-2.924c-.624 0-1.13.512-1.13 1.143 0 .63.506 1.142 1.13 1.142h2.924c.166 0 .302.137.302.305v35.386h-6.614V14.264c0-1.384-1.114-2.51-2.484-2.51h-4.36c-1.369 0-2.483 1.126-2.483 2.51v18.74c0 .632.506 1.143 1.13 1.143.624 0 1.13-.511 1.13-1.142v-18.74c0-.126.1-.227.223-.227h4.36c.124 0 .224.101.224.226v42.544H53.24V37.877c0-.631-.506-1.142-1.13-1.142ZM29.249 56.808V34.671c0-.125.1-.226.224-.226h4.36c.124 0 .224.101.224.226v22.137h-4.808Zm11.996 0V28.32c0-.125.1-.226.224-.226h4.36c.124 0 .224.101.224.226v28.49h-4.808Z" fill="#90A1AE"/><path d="M30.14 10.015h2.005v2.619c0 .63.505 1.142 1.13 1.142.623 0 1.129-.511 1.129-1.142v-3.32c0-.873-.703-1.583-1.567-1.583h-1.173L36.05 2.65l4.385 5.08h-1.173c-.863 0-1.566.711-1.566 1.585v13.042h-3.292v-4.851c0-.631-.506-1.142-1.13-1.142-.624 0-1.13.51-1.13 1.142v5.216a1.91 1.91 0 0 0 1.898 1.92h4.015a1.91 1.91 0 0 0 1.898-1.92V10.015h2.005c.613 0 1.173-.365 1.426-.929a1.6 1.6 0 0 0-.246-1.696L37.23.542a1.558 1.558 0 0 0-2.36 0L28.96 7.39a1.6 1.6 0 0 0-.246 1.696c.253.565.813.93 1.426.93Z" fill="#90A1AE"/></svg>