<svg width="69" height="74" fill="none" xmlns="http://www.w3.org/2000/svg"><path d="m11.897 36.509-1.539-1.543-1.682 1.687 2.38 2.387a1.187 1.187 0 0 0 1.682 0l4.758-4.774-1.682-1.687-3.917 3.93ZM11.897 48.443 10.358 46.9l-1.682 1.688 2.38 2.387a1.188 1.188 0 0 0 1.682 0l4.758-4.774-1.682-1.688-3.917 3.93ZM11.897 60.378l-1.539-1.543-1.682 1.687 2.38 2.387a1.188 1.188 0 0 0 1.682 0l4.758-4.774-1.682-1.687-3.917 3.93ZM30.931 27.455v-7.16a1.195 1.195 0 0 0-1.19-1.194H10.707a1.188 1.188 0 0 0-1.19 1.194v7.16a1.195 1.195 0 0 0 1.19 1.194H29.74a1.188 1.188 0 0 0 1.19-1.194Zm-2.38-1.193H11.898v-4.774h16.655v4.774ZM20.224 32.23h11.897v2.386H20.224V32.23ZM20.224 37.003H35.69v2.387H20.224v-2.387ZM38.069 37.003h2.38v2.387h-2.38v-2.387ZM20.224 44.164h8.328v2.387h-8.328v-2.387ZM20.224 56.098h5.948v2.387h-5.948v-2.387Z" fill="#90A1AE"/><path d="M64.241 45.357h-8.327v-1.193c0-1.266-.502-2.48-1.394-3.376a4.75 4.75 0 0 0-3.365-1.398h-1.19V11.94c0-1.266-.5-2.48-1.393-3.375a4.751 4.751 0 0 0-3.365-1.398H35.47a3.58 3.58 0 0 0-1.298-1.726 3.561 3.561 0 0 0-2.052-.661h-1.309a5.97 5.97 0 0 0-2.065-3.433 5.936 5.936 0 0 0-7.529 0 5.97 5.97 0 0 0-2.065 3.433h-1.308a3.561 3.561 0 0 0-2.052.661 3.58 3.58 0 0 0-1.298 1.726H4.759a4.751 4.751 0 0 0-3.365 1.398A4.782 4.782 0 0 0 0 11.94v57.285c0 1.266.501 2.48 1.394 3.376A4.751 4.751 0 0 0 4.759 74H64.24a4.751 4.751 0 0 0 3.365-1.398A4.782 4.782 0 0 0 69 69.226V50.131c0-1.266-.501-2.48-1.394-3.376a4.75 4.75 0 0 0-3.365-1.398Zm2.38 4.774v1.551l-13.627 4.882c-.23.082-.466.149-.702.218-.119-.85-.54-1.63-1.186-2.193a3.545 3.545 0 0 0-4.66 0 3.566 3.566 0 0 0-1.187 2.193c-.238-.07-.476-.135-.703-.217l-13.625-4.883v-1.551c0-.633.25-1.24.697-1.688a2.375 2.375 0 0 1 1.682-.699h30.931c.631 0 1.237.252 1.683.7a2.39 2.39 0 0 1 .697 1.687Zm-16.655 7.16v2.388a1.195 1.195 0 0 1-1.19 1.193 1.188 1.188 0 0 1-1.19-1.193v-2.387a1.195 1.195 0 0 1 1.19-1.194 1.188 1.188 0 0 1 1.19 1.194ZM35.69 18.402l5.455 5.474H35.69v-5.473Zm-1.19 7.86h8.328V41.04a4.742 4.742 0 0 0-1.19 3.125v1.193H33.31a4.748 4.748 0 0 0-2.903 1.005 4.774 4.774 0 0 0-1.686 2.575h-8.497v2.387h8.328v9.548h-8.328v2.387h8.328v3.58H7.138V16.714H33.31v8.355a1.195 1.195 0 0 0 1.19 1.193Zm19.035 17.903v1.193h-9.518v-1.193c0-.633.25-1.24.697-1.688a2.376 2.376 0 0 1 1.683-.7h4.758c.631 0 1.236.252 1.683.7a2.39 2.39 0 0 1 .697 1.688ZM17.845 7.167h2.38a1.188 1.188 0 0 0 1.189-1.194c0-.95.376-1.86 1.045-2.531a3.563 3.563 0 0 1 5.047 0 3.586 3.586 0 0 1 1.046 2.531 1.195 1.195 0 0 0 1.19 1.194h2.379a1.188 1.188 0 0 1 1.19 1.193 1.195 1.195 0 0 1-1.19 1.194H17.845a1.188 1.188 0 0 1-1.19-1.194 1.195 1.195 0 0 1 1.19-1.193ZM2.379 69.227V11.94c0-.633.251-1.24.697-1.687a2.375 2.375 0 0 1 1.683-.7h9.736a3.579 3.579 0 0 0 1.298 1.726c.6.428 1.316.658 2.052.662H32.12a3.561 3.561 0 0 0 2.051-.662 3.579 3.579 0 0 0 1.299-1.725h9.736c.63 0 1.236.251 1.682.699a2.39 2.39 0 0 1 .697 1.688V39.39h-1.19a4.67 4.67 0 0 0-1.19.17V25.067c0-.316-.125-.62-.348-.843l-9.517-9.548a1.188 1.188 0 0 0-.841-.35H5.948a1.187 1.187 0 0 0-1.19 1.194v52.512a1.195 1.195 0 0 0 1.19 1.193h22.604c.005.84.233 1.665.661 2.387H4.76a2.376 2.376 0 0 1-1.683-.699 2.39 2.39 0 0 1-.697-1.688Zm61.862 2.386h-30.93a2.376 2.376 0 0 1-1.683-.699 2.39 2.39 0 0 1-.697-1.688V54.211l12.824 4.595c.477.168.961.311 1.452.43v.443c0 .95.376 1.86 1.045 2.531a3.563 3.563 0 0 0 5.047 0 3.586 3.586 0 0 0 1.046-2.531v-.444c.49-.118.975-.261 1.451-.429l12.825-4.595v15.015c0 .633-.251 1.24-.697 1.688-.446.448-1.052.7-1.683.7Z" fill="#90A1AE"/></svg>