<svg width="34" height="33" fill="none" xmlns="http://www.w3.org/2000/svg"><rect x=".5" y=".5" width="33" height="32" rx="16" stroke="#fff"/><path d="M9.8 23H8c0-2.872 2.418-5.2 5.4-5.2s5.4 2.328 5.4 5.2H17c0-1.915-1.612-3.467-3.6-3.467S9.8 21.085 9.8 23Zm13.5-2.6h-1.8v-2.6h-2.7v-1.733h2.7v-2.6h1.8v2.6H26V17.8h-2.7v2.6Zm-9.9-3.467c-1.988 0-3.6-1.552-3.6-3.466C9.8 11.552 11.412 10 13.4 10s3.6 1.552 3.6 3.467c-.003 1.913-1.613 3.464-3.6 3.466Zm0-5.2c-.983.001-1.784.762-1.798 1.709-.014.947.764 1.73 1.746 1.757.983.028 1.808-.708 1.852-1.654v.346-.424c0-.958-.806-1.734-1.8-1.734Z" fill="#fff"/></svg>