<svg width="50" height="50" viewBox="0 0 50 50" fill="none" xmlns="http://www.w3.org/2000/svg">
<g filter="url(#filter0_i_0_1763)">
<rect width="50" height="50" rx="10" fill="#4170BB"/>
</g>
<path d="M39.2114 30.0605C39.0176 29.7067 38.8237 29.3529 38.533 28.9991C36.8369 26.7879 34.0748 25.9476 31.6034 26.5667C30.8765 26.7436 30.1012 26.5225 29.6166 25.9476C29.132 25.4169 28.9866 24.6651 29.2289 24.0017C29.4712 23.2941 30.1012 22.7634 30.8281 22.6307C33.4933 22.1885 35.7708 20.1542 36.3523 17.1469C36.74 15.0683 36.1585 12.9455 34.8501 11.3977C34.2202 10.6459 33.4448 10.0709 32.5726 9.62869C30.9734 8.87687 29.2774 8.83264 27.7752 9.31912C25.8368 9.93826 24.1892 11.3977 23.4624 13.4762C23.4139 13.5647 23.4139 13.6089 23.3654 13.6974C22.8324 15.2894 22.9293 16.9258 23.5108 18.3852C23.85 19.2254 24.3346 19.9773 24.9161 20.6406C24.9646 20.6849 25.013 20.7733 25.0615 20.8175C25.4492 21.3482 25.5945 22.0116 25.4007 22.675C25.1584 23.3383 24.6254 23.869 23.9469 24.0017C23.317 24.1344 22.7355 23.9575 22.2509 23.5595C22.154 23.471 22.0571 23.3826 21.9601 23.2941C21.4271 22.6307 20.7971 22.1001 20.0703 21.6578C18.8103 20.906 17.3081 20.5964 15.8059 20.8175C15.5151 20.8618 15.2729 20.906 14.9821 20.9944C12.4623 21.702 10.6693 23.7806 10.1362 26.2572C9.99086 27.009 9.9424 27.8493 10.0878 28.6453C10.1847 29.3529 10.427 30.0605 10.7177 30.6796C11.1539 31.5641 11.7838 32.316 12.5107 32.9351C14.0129 34.1734 16.0482 34.7483 18.1319 34.3503C20.7002 33.8196 22.5901 31.8737 23.2685 29.4856C23.4624 28.7338 24.0439 28.2031 24.7707 28.0262C25.4492 27.8935 26.176 28.1146 26.6606 28.6453C27.1452 29.2202 27.2906 30.0163 26.9998 30.7239C26.1276 33.0236 26.5152 35.7655 28.2598 37.7114C28.7443 38.2421 29.2774 38.6843 29.8589 39.0381C31.9426 40.3206 34.6078 40.3206 36.74 39.0381C37.2246 38.7728 37.6607 38.419 38.0484 38.0209C38.3876 37.6672 38.6784 37.3134 38.9206 36.9153C40.229 34.9694 40.3744 32.2717 39.2114 30.0605Z" fill="white"/>
<defs>
<filter id="filter0_i_0_1763" x="0" y="0" width="50" height="50" filterUnits="userSpaceOnUse" color-interpolation-filters="sRGB">
<feFlood flood-opacity="0" result="BackgroundImageFix"/>
<feBlend mode="normal" in="SourceGraphic" in2="BackgroundImageFix" result="shape"/>
<feColorMatrix in="SourceAlpha" type="matrix" values="0 0 0 0 0 0 0 0 0 0 0 0 0 0 0 0 0 0 127 0" result="hardAlpha"/>
<feOffset dy="-3"/>
<feComposite in2="hardAlpha" operator="arithmetic" k2="-1" k3="1"/>
<feColorMatrix type="matrix" values="0 0 0 0 0 0 0 0 0 0 0 0 0 0 0 0 0 0 0.1 0"/>
<feBlend mode="normal" in2="shape" result="effect1_innerShadow_0_1763"/>
</filter>
</defs>
</svg>
