<svg width="50" height="50" viewBox="0 0 50 50" fill="none" xmlns="http://www.w3.org/2000/svg">
<g filter="url(#filter0_i_0_1781)">
<rect width="50" height="50" rx="10" fill="#B24AD6"/>
</g>
<path d="M40.4972 23.558C40.181 23.3731 39.7744 23.3268 39.4129 23.5118L25.5423 30.2619L12.2591 23.8354V19.9055L25.0001 26.1008C25.1357 26.1933 25.3164 26.1933 25.4971 26.1933C25.6779 26.1933 25.8586 26.1471 25.9941 26.1008L40.3617 19.1196C40.7683 18.9346 40.9942 18.5185 40.9942 18.1024C40.9942 17.6863 40.7683 17.2702 40.3617 17.0853L25.9941 10.104C25.6778 9.96532 25.3164 9.96532 25.0001 10.104L10.6325 17.0853C10.6325 17.0853 10.6326 17.0853 10.5874 17.0853C10.497 17.1315 10.4518 17.1778 10.4066 17.224L10.3615 17.2702C10.3163 17.3165 10.2259 17.4089 10.1807 17.5014C10.1807 17.5014 10.1807 17.5476 10.1356 17.5476C10.0904 17.5939 10.0452 17.6863 10.0452 17.7326C10.0452 17.7788 10.0452 17.7788 10.0452 17.825C10 17.9175 10 18.01 10 18.1024V24.5289C10 24.945 10.2259 25.3611 10.6325 25.546L25.0001 32.5273C25.3164 32.666 25.6778 32.666 25.9941 32.5273L38.7352 26.332V30.2619L25.4971 36.6883L11.6265 29.9382C11.0844 29.6608 10.4067 29.892 10.1356 30.4468C9.86448 31.0016 10.0904 31.6951 10.6325 31.9263L25.0001 38.9075C25.1357 39 25.3164 39 25.4971 39C25.6779 39 25.8586 38.9538 25.9941 38.9075L40.3617 31.9263C40.7683 31.7413 40.9942 31.3252 40.9942 30.9091V24.4827C41.0394 24.1128 40.8135 23.7892 40.4972 23.558ZM25.4971 12.3695L37.2894 18.1024L25.4971 23.8354L13.7049 18.1024L25.4971 12.3695Z" fill="white"/>
<defs>
<filter id="filter0_i_0_1781" x="0" y="0" width="50" height="50" filterUnits="userSpaceOnUse" color-interpolation-filters="sRGB">
<feFlood flood-opacity="0" result="BackgroundImageFix"/>
<feBlend mode="normal" in="SourceGraphic" in2="BackgroundImageFix" result="shape"/>
<feColorMatrix in="SourceAlpha" type="matrix" values="0 0 0 0 0 0 0 0 0 0 0 0 0 0 0 0 0 0 127 0" result="hardAlpha"/>
<feOffset dy="-3"/>
<feComposite in2="hardAlpha" operator="arithmetic" k2="-1" k3="1"/>
<feColorMatrix type="matrix" values="0 0 0 0 0 0 0 0 0 0 0 0 0 0 0 0 0 0 0.1 0"/>
<feBlend mode="normal" in2="shape" result="effect1_innerShadow_0_1781"/>
</filter>
</defs>
</svg>
