<svg width="50" height="50" viewBox="0 0 50 50" fill="none" xmlns="http://www.w3.org/2000/svg">
<g filter="url(#filter0_i_0_1757)">
<rect width="50" height="50" rx="10" fill="#FF8837"/>
</g>
<path d="M32.7396 26.33C31.8724 25.2276 30.7451 24.5661 29.2708 24.3016C32.1326 23.3314 33.5201 21.5235 33.5201 18.7895C33.5201 16.9815 32.8697 15.4822 31.5689 14.2916C31.4822 14.2034 31.3955 14.1593 31.3521 14.1152C30.6583 13.542 29.8779 13.1451 28.9673 12.8805C28.6204 12.7923 28.2735 12.7041 27.8833 12.66V9.61735V9H24.8915V12.3954V12.5277H24.7614H23.3305V9H20.3387V12.5277H17V19.7596V24.037V27.4765V36.4723H20.3387V40H23.3305V36.4723H24.8915V39.9118V40H27.8833V37.0896V36.4282C28.1868 36.3841 28.447 36.3841 28.7071 36.34C30.0947 36.1195 31.222 35.5903 32.1326 34.7966C33.0865 33.9146 33.6935 32.8122 33.9103 31.4893C33.997 31.0925 33.997 30.6956 33.997 30.2546C34.0404 28.7553 33.6068 27.4324 32.7396 26.33ZM22.2465 22.1408V19.1422V16.9374H24.588H25.672C26.4091 16.9374 27.0161 17.1579 27.4931 17.5989C27.4931 17.5989 27.4931 17.643 27.5364 17.643C27.97 18.0839 28.1868 18.7013 28.1868 19.5391C28.1868 20.377 27.97 21.0384 27.4931 21.4794C27.0161 21.9203 26.4091 22.1408 25.672 22.1408H22.7235H22.2465ZM28.0134 31.357C27.5364 31.8421 26.9294 32.0626 26.2356 32.0626H22.2899V26.5946H26.3224C27.0595 26.5946 27.6231 26.8592 28.0567 27.3442C28.4903 27.8293 28.7505 28.5348 28.7505 29.3727C28.7071 30.2105 28.447 30.872 28.0134 31.357Z" fill="white"/>
<defs>
<filter id="filter0_i_0_1757" x="0" y="0" width="50" height="50" filterUnits="userSpaceOnUse" color-interpolation-filters="sRGB">
<feFlood flood-opacity="0" result="BackgroundImageFix"/>
<feBlend mode="normal" in="SourceGraphic" in2="BackgroundImageFix" result="shape"/>
<feColorMatrix in="SourceAlpha" type="matrix" values="0 0 0 0 0 0 0 0 0 0 0 0 0 0 0 0 0 0 127 0" result="hardAlpha"/>
<feOffset dy="-3"/>
<feComposite in2="hardAlpha" operator="arithmetic" k2="-1" k3="1"/>
<feColorMatrix type="matrix" values="0 0 0 0 0 0 0 0 0 0 0 0 0 0 0 0 0 0 0.1 0"/>
<feBlend mode="normal" in2="shape" result="effect1_innerShadow_0_1757"/>
</filter>
</defs>
</svg>
