<svg width="11" height="12" fill="none" xmlns="http://www.w3.org/2000/svg"><path d="M9.778 12H1.222A1.211 1.211 0 0 1 0 10.8V2.4c0-.663.547-1.2 1.222-1.2h1.222V0h1.223v1.2h3.666V0h1.223v1.2h1.222c.675 0 1.222.537 1.222 1.2v8.4c0 .663-.547 1.2-1.222 1.2ZM1.222 4.8v6h8.556v-6H1.222Zm0-2.4v1.2h8.556V2.4H1.222Zm7.334 7.2H7.333V8.4h1.223v1.2Zm-2.445 0H4.89V8.4H6.11v1.2Zm-2.444 0H2.444V8.4h1.223v1.2Zm4.889-2.4H7.333V6h1.223v1.2Zm-2.445 0H4.89V6H6.11v1.2Zm-2.444 0H2.444V6h1.223v1.2Z" fill="#158AFF"/></svg>