<svg width="23" height="23" fill="none" xmlns="http://www.w3.org/2000/svg"><g clip-path="url(#a)"><path d="M.715 15.5C2.34 19.88 6.555 23 11.5 23s9.16-3.12 10.785-7.5l-10.785-1-10.785 1Z" fill="#FFDA44"/><path d="M11.5 0C6.555 0 2.34 3.12.715 7.5l10.785 1 10.785-1C20.66 3.12 16.445 0 11.5 0Z" fill="#000"/><path d="M.715 7.5a11.475 11.475 0 0 0-.715 4c0 1.407.253 2.754.715 4h21.57c.462-1.246.715-2.593.715-4s-.253-2.754-.715-4H.715Z" fill="#D80027"/></g><defs><clipPath id="a"><path fill="#fff" d="M0 0h23v23H0z"/></clipPath></defs></svg>