<svg width="24" height="24" viewBox="0 0 24 24" fill="none" xmlns="http://www.w3.org/2000/svg">
<path d="M6.17 17.9985C6.3766 17.413 6.75974 16.906 7.2666 16.5473C7.77346 16.1887 8.37909 15.9961 9 15.9961C9.62091 15.9961 10.2265 16.1887 10.7334 16.5473C11.2403 16.906 11.6234 17.413 11.83 17.9985H22V19.9985H11.83C11.6234 20.5841 11.2403 21.0911 10.7334 21.4498C10.2265 21.8084 9.62091 22.001 9 22.001C8.37909 22.001 7.77346 21.8084 7.2666 21.4498C6.75974 21.0911 6.3766 20.5841 6.17 19.9985H2V17.9985H6.17ZM12.17 10.9985C12.3766 10.413 12.7597 9.90598 13.2666 9.54733C13.7735 9.18869 14.3791 8.99609 15 8.99609C15.6209 8.99609 16.2265 9.18869 16.7334 9.54733C17.2403 9.90598 17.6234 10.413 17.83 10.9985H22V12.9985H17.83C17.6234 13.5841 17.2403 14.0911 16.7334 14.4498C16.2265 14.8084 15.6209 15.001 15 15.001C14.3791 15.001 13.7735 14.8084 13.2666 14.4498C12.7597 14.0911 12.3766 13.5841 12.17 12.9985H2V10.9985H12.17ZM6.17 3.99854C6.3766 3.41301 6.75974 2.90598 7.2666 2.54733C7.77346 2.18869 8.37909 1.99609 9 1.99609C9.62091 1.99609 10.2265 2.18869 10.7334 2.54733C11.2403 2.90598 11.6234 3.41301 11.83 3.99854H22V5.99854H11.83C11.6234 6.58408 11.2403 7.09111 10.7334 7.44975C10.2265 7.8084 9.62091 8.001 9 8.001C8.37909 8.001 7.77346 7.8084 7.2666 7.44975C6.75974 7.09111 6.3766 6.58408 6.17 5.99854H2V3.99854H6.17ZM9 5.99854C9.26522 5.99854 9.51957 5.89319 9.70711 5.70565C9.89464 5.51811 10 5.26376 10 4.99854C10 4.73333 9.89464 4.47897 9.70711 4.29144C9.51957 4.1039 9.26522 3.99854 9 3.99854C8.73478 3.99854 8.48043 4.1039 8.29289 4.29144C8.10536 4.47897 8 4.73333 8 4.99854C8 5.26376 8.10536 5.51811 8.29289 5.70565C8.48043 5.89319 8.73478 5.99854 9 5.99854ZM15 12.9985C15.2652 12.9985 15.5196 12.8932 15.7071 12.7057C15.8946 12.5181 16 12.2638 16 11.9985C16 11.7333 15.8946 11.479 15.7071 11.2914C15.5196 11.1039 15.2652 10.9985 15 10.9985C14.7348 10.9985 14.4804 11.1039 14.2929 11.2914C14.1054 11.479 14 11.7333 14 11.9985C14 12.2638 14.1054 12.5181 14.2929 12.7057C14.4804 12.8932 14.7348 12.9985 15 12.9985ZM9 19.9985C9.26522 19.9985 9.51957 19.8932 9.70711 19.7057C9.89464 19.5181 10 19.2638 10 18.9985C10 18.7333 9.89464 18.479 9.70711 18.2914C9.51957 18.1039 9.26522 17.9985 9 17.9985C8.73478 17.9985 8.48043 18.1039 8.29289 18.2914C8.10536 18.479 8 18.7333 8 18.9985C8 19.2638 8.10536 19.5181 8.29289 19.7057C8.48043 19.8932 8.73478 19.9985 9 19.9985Z" fill="#527DBE"/>
</svg>
