<svg width="20" height="20" fill="none" xmlns="http://www.w3.org/2000/svg"><path fill-rule="evenodd" clip-rule="evenodd" d="M0 10C0 4.477 4.477 0 10 0s10 4.477 10 10-4.477 10-10 10S0 15.523 0 10Zm9.986-2.658c.812 0 1.36.352 1.673.645l1.22-1.194a4.154 4.154 0 0 0-2.893-1.126A4.323 4.323 0 0 0 6.12 8.055l1.4 1.088c.35-1.045 1.321-1.8 2.466-1.8Zm4.154 2.754c0-.356-.03-.616-.092-.886H9.986v1.608h2.384c-.048.4-.307 1.002-.884 1.406l1.365 1.06c.817-.756 1.289-1.868 1.289-3.188Zm-6.616.761A2.67 2.67 0 0 1 7.38 10c0-.299.053-.587.14-.857l-1.4-1.088A4.342 4.342 0 0 0 5.658 10c0 .698.169 1.358.462 1.945l1.404-1.088Zm2.462 3.476c1.168 0 2.149-.385 2.865-1.05l-1.365-1.059c-.366.256-.856.434-1.5.434-1.145 0-2.116-.756-2.462-1.801l-1.4 1.088a4.316 4.316 0 0 0 3.862 2.388Z" fill="#fff"/></svg>