<svg width="20" height="20" fill="none" xmlns="http://www.w3.org/2000/svg"><path fill-rule="evenodd" clip-rule="evenodd" d="M0 10C0 4.477 4.477 0 10 0s10 4.477 10 10-4.477 10-10 10S0 15.523 0 10Zm10-5.333c-1.448 0-1.63.006-2.199.032-.567.026-.955.116-1.294.248-.35.136-.648.318-.945.615a2.618 2.618 0 0 0-.615.944c-.133.34-.223.727-.248 1.295-.026.569-.032.75-.032 2.2 0 1.447.006 1.629.032 2.198.026.567.116.955.248 1.294.136.35.318.648.615.945.296.296.594.48.944.615.34.132.727.222 1.295.248.569.026.75.032 2.199.032 1.448 0 1.63-.006 2.198-.032.568-.026.956-.116 1.296-.248a2.61 2.61 0 0 0 .944-.615c.296-.297.479-.594.615-.945.131-.339.221-.727.248-1.294.026-.57.032-.75.032-2.199 0-1.448-.006-1.63-.032-2.2-.027-.567-.117-.954-.248-1.294a2.617 2.617 0 0 0-.615-.944 2.607 2.607 0 0 0-.945-.615c-.34-.132-.728-.222-1.295-.248-.57-.026-.75-.032-2.2-.032h.003Z" fill="#fff"/><path fill-rule="evenodd" clip-rule="evenodd" d="M9.522 5.628h.479c1.424 0 1.592.005 2.155.03.52.024.802.111.99.184.249.097.426.212.613.399.186.187.302.364.399.613.073.188.16.47.184.99.025.563.03.731.03 2.155 0 1.423-.005 1.592-.03 2.154-.024.52-.111.803-.184.99a1.65 1.65 0 0 1-.4.613 1.65 1.65 0 0 1-.612.399c-.188.073-.47.16-.99.184-.563.025-.732.03-2.155.03-1.425 0-1.593-.005-2.156-.03-.52-.024-.802-.111-.99-.184a1.653 1.653 0 0 1-.613-.4 1.653 1.653 0 0 1-.4-.612c-.072-.188-.16-.47-.183-.99-.026-.562-.03-.731-.03-2.155 0-1.425.004-1.593.03-2.155.024-.52.11-.802.184-.99.096-.25.212-.427.399-.614.186-.186.364-.302.613-.399.188-.073.47-.16.99-.184.492-.022.683-.028 1.677-.03v.002Zm3.325.885a.64.64 0 1 0 0 1.28.64.64 0 0 0 0-1.28Zm-2.846.748a2.739 2.739 0 1 0 0 5.478 2.739 2.739 0 0 0 0-5.478Z" fill="#fff"/><path fill-rule="evenodd" clip-rule="evenodd" d="M10 8.222a1.778 1.778 0 1 1 0 3.556 1.778 1.778 0 0 1 0-3.556Z" fill="#fff"/></svg>