<svg width="16" height="16" viewBox="0 0 16 16" fill="none" xmlns="http://www.w3.org/2000/svg">
<path d="M14.4 16H1.6C0.716344 16 0 15.2716 0 14.373V5.46416C0.027001 4.91818 0.317823 4.42112 0.7768 4.1365L7.1768 0.231624C7.6833 -0.0772079 8.3159 -0.0772079 8.8224 0.231624L15.2224 4.1365C15.7033 4.43162 15.9981 4.96046 16 5.53168V14.373C16 15.2716 15.2837 16 14.4 16ZM1.6 6.13043V14.373H14.4V6.13043L8 10.4689L1.6 6.13043ZM8 1.6268L2.6528 4.889L8 8.51403L13.3464 4.889L8 1.6268Z" fill="#158AFF"/>
</svg>
