<svg width="58" height="58" fill="none" xmlns="http://www.w3.org/2000/svg"><path d="M16.681.15H17.9c.03.03.06.06.09.075 1.797.387 3.015 2.458 2.168 4.379-.06.12.03.402.134.506.639.581.743 1.266.564 2.085-.312 1.43-.594 2.875-.846 4.32-.03.193.044.476.178.61.653.685 1.352 1.34 1.99 2.026.283.313.535.313.921.208a31.866 31.866 0 0 1 3.12-.79c.594-.118.995.314.95.865-.044.55-.415.73-.906.804-7.516 1.251-12.522 8.132-11.393 15.638 1.129 7.492 8.512 12.734 15.983 11.364 6.284-1.162 10.844-6.106 11.349-12.45.386-4.886-1.441-8.877-5.273-11.9-1.902-1.505-4.1-2.369-6.492-2.697-.713-.09-1.099-.491-1.025-.998.09-.55.565-.834 1.233-.685 1.13.268 2.258.581 3.387.85.193.044.475 0 .61-.12.727-.685 1.44-1.4 2.123-2.13a.753.753 0 0 0 .178-.61 147.872 147.872 0 0 0-.846-4.32c-.178-.819-.09-1.519.594-2.07.282-.223.163-.417.074-.67-.55-1.445-.015-3.053 1.307-3.828.312-.193.669-.297 1.01-.446H40.3c.06.03.134.074.194.104 1.842.596 2.762 2.308 2.168 4.066-.594 1.742-2.391 2.532-4.218 1.876-.134-.044-.386-.03-.46.06-.12.149-.238.387-.194.566.282 1.49.565 2.994.891 4.483.164.774 0 1.385-.564 1.921-.698.67-1.367 1.356-2.05 2.026.95.67 1.842 1.31 2.778 1.966 1.723-1.728 3.446-3.485 5.184-5.213.223-.223.193-.387.044-.626a4.084 4.084 0 0 1-.49-2.904c.342-1.817 1.426-3.053 3.224-3.544 1.767-.492 3.327 0 4.53 1.37 1.218 1.4 1.456 3.023.728 4.736-1.025 2.383-3.847 3.336-6.18 2.145-.163-.09-.504-.12-.608-.015-1.768 1.727-3.506 3.485-5.244 5.227.669.924 1.322 1.802 2.006 2.74.698-.714 1.38-1.4 2.05-2.1.49-.506 1.054-.655 1.722-.52 1.471.297 2.942.595 4.412.863.223.045.535-.03.713-.163.104-.075.06-.418-.015-.611-.579-1.653.238-3.455 1.887-4.051 1.649-.596 3.416.223 4.025 1.891.06.15.12.313.178.462v1.221c-.03.03-.059.06-.074.09-.371 1.772-2.421 3.038-4.367 2.174-.119-.06-.401.03-.505.149-.58.64-1.263.745-2.08.58a104.772 104.772 0 0 0-4.307-.848c-.193-.03-.476.045-.61.179-.697.655-1.366 1.37-2.064 2.04-.208.194-.252.357-.148.626 1.47 3.768 1.47 7.536 0 11.304-.104.268-.045.432.148.625.698.67 1.352 1.37 2.065 2.04.148.135.416.224.609.18 1.44-.268 2.882-.537 4.307-.85.817-.178 1.516-.089 2.065.596.223.283.416.164.669.075 1.114-.417 2.139-.238 3.09.462.623.461.906 1.146 1.173 1.846v1.222c-.045.104-.09.208-.119.297-.565 1.743-2.347 2.651-4.04 2.056-1.723-.596-2.54-2.413-1.887-4.17.06-.15.06-.432-.03-.522a.85.85 0 0 0-.623-.193c-1.441.268-2.882.521-4.308.864-.877.208-1.545-.015-2.14-.67-.593-.656-1.232-1.267-1.856-1.892-.698.953-1.337 1.832-1.99 2.74 1.663 1.668 3.342 3.322 4.99 5.005.313.312.52.416.966.178 2.852-1.474 6.313.551 6.462 3.738.089 1.922-1.01 3.664-2.763 4.38-1.768.729-3.729.267-5.036-1.162-1.248-1.37-1.5-3.411-.594-5.094.178-.328.149-.506-.104-.76-1.649-1.638-3.283-3.291-4.931-4.93a1.925 1.925 0 0 0-.209-.178c-.935.655-1.826 1.296-2.747 1.95.712.7 1.425 1.416 2.139 2.116.49.491.653 1.057.52 1.727a231.288 231.288 0 0 0-.862 4.424c-.045.223.03.536.163.715.075.104.416.06.61-.015 1.306-.462 2.762-.045 3.594 1.057.847 1.102.862 2.592.045 3.754-.49.7-1.189 1.027-1.946 1.31h-1.218c-.03-.03-.06-.06-.09-.074-1.782-.373-3.015-2.443-2.168-4.379.06-.12-.03-.402-.134-.506-.639-.581-.758-1.266-.58-2.086.313-1.43.595-2.874.848-4.319.03-.193-.045-.476-.179-.61a47.828 47.828 0 0 0-2.124-2.13c-.134-.12-.446-.194-.609-.134-3.699 1.355-7.397 1.355-11.096 0-.163-.06-.475 0-.61.134-.727.685-1.44 1.4-2.123 2.13-.134.149-.223.417-.179.61.268 1.445.535 2.875.847 4.32.178.804.09 1.519-.58 2.07-.237.193-.207.372-.103.625.445 1.132.282 2.175-.446 3.158-.46.625-1.143.908-1.842 1.176h-1.218c-.148-.06-.312-.119-.46-.178-1.307-.477-2.154-1.758-2.08-3.113a3.189 3.189 0 0 1 2.377-2.904c.802-.194 1.575-.09 2.302.268.372-.224.476-.462.372-.894-.312-1.4-.52-2.815-.847-4.2-.208-.879 0-1.549.654-2.16.668-.625 1.307-1.295 1.946-1.92-.951-.671-1.843-1.312-2.66-1.892-1.826 1.832-3.639 3.649-5.495 5.495.683 1.073.861 2.294.55 3.575-.58 2.323-2.987 3.738-5.348 3.187-2.258-.521-3.773-2.845-3.343-5.123.58-3.053 3.773-4.602 6.506-3.173.223.12.387.253.624 0 1.738-1.757 3.491-3.5 5.214-5.227a251.064 251.064 0 0 0-2.005-2.74c-.683.684-1.367 1.37-2.02 2.055-.505.536-1.1.685-1.827.536a150.043 150.043 0 0 0-4.353-.864 1.003 1.003 0 0 0-.713.164c-.104.074-.059.417.015.61.476 1.356.015 2.86-1.144 3.664-1.173.82-2.762.82-3.802-.178C.639 41.853.37 41.138 0 40.527v-1.22c.03-.03.06-.06.074-.09.372-1.788 2.436-3.024 4.367-2.175.12.06.401-.03.505-.134.58-.64 1.263-.76 2.08-.58 1.426.312 2.867.595 4.308.848.193.03.475-.044.609-.178.698-.656 1.366-1.37 2.065-2.04.208-.194.252-.358.148-.626-1.47-3.768-1.47-7.537 0-11.305.104-.268.045-.432-.149-.625-.698-.67-1.351-1.37-2.064-2.04-.149-.135-.416-.224-.61-.18-1.44.269-2.881.537-4.307.85-.802.178-1.515.089-2.065-.581-.223-.268-.416-.179-.668-.075-1.114.417-2.14.253-3.09-.461C.58 19.453.297 18.768.03 18.068v-1.222l.133-.357c.595-1.728 2.392-2.606 4.07-1.996 1.679.61 2.481 2.428 1.842 4.156-.059.149-.059.431.03.52a.834.834 0 0 0 .61.194c1.455-.268 2.91-.536 4.351-.863.832-.194 1.486.015 2.05.625.61.67 1.248 1.31 1.887 1.966.713-.968 1.352-1.847 2.02-2.77a863.49 863.49 0 0 1-5.214-5.228c-.238-.253-.401-.119-.624 0-1.678.834-3.327.76-4.813-.387-1.47-1.117-2.02-2.666-1.663-4.498.416-2.144 2.48-3.693 4.694-3.53 2.228.164 4.025 2.026 4.114 4.245.045.998-.223 1.892-.698 2.696l5.467 5.48c.876-.61 1.767-1.25 2.733-1.935l-2.154-2.115c-.49-.477-.639-1.058-.505-1.728.297-1.46.564-2.92.876-4.364.09-.432.06-.715-.356-.953-.12.045-.253.104-.386.149-1.664.625-3.491-.194-4.085-1.862-.61-1.668.252-3.47 1.93-4.066.075.03.209-.015.342-.074Zm28.506 48.077a2.803 2.803 0 0 0 2.762 2.83c1.5 0 2.763-1.236 2.793-2.755.03-1.504-1.218-2.785-2.718-2.815-1.545-.015-2.823 1.206-2.837 2.74Zm2.792-36.236a2.78 2.78 0 0 0 2.763-2.77c.015-1.52-1.277-2.815-2.793-2.8-1.515.015-2.748 1.266-2.762 2.77 0 1.564 1.247 2.815 2.792 2.8Zm-36.2 36.266a2.771 2.771 0 0 0-2.822-2.755c-1.5.015-2.748 1.296-2.733 2.8a2.813 2.813 0 0 0 2.778 2.77c1.53-.015 2.792-1.28 2.777-2.815Zm0-39.05c0-1.52-1.232-2.756-2.748-2.786-1.515-.015-2.807 1.266-2.807 2.785a2.78 2.78 0 0 0 2.763 2.77c1.545.03 2.792-1.206 2.792-2.77Zm-8.69 9.74c.818 0 1.442-.626 1.456-1.43 0-.805-.638-1.445-1.44-1.46a1.49 1.49 0 0 0-1.471 1.445c0 .79.654 1.445 1.456 1.445Zm50.743 0c.817.014 1.47-.596 1.5-1.4.03-.775-.624-1.46-1.411-1.49-.802-.03-1.47.61-1.486 1.4-.03.82.58 1.475 1.397 1.49Zm.089 19.6c-.817-.03-1.47.58-1.5 1.385a1.449 1.449 0 0 0 1.396 1.504c.787.03 1.47-.61 1.515-1.4a1.448 1.448 0 0 0-1.411-1.49ZM18.716 54.215c.015-.82-.609-1.46-1.41-1.46-.803 0-1.457.625-1.457 1.43-.014.79.64 1.474 1.427 1.474.772.015 1.425-.64 1.44-1.444Zm19.548-.03c0 .804.64 1.46 1.426 1.46.788 0 1.441-.67 1.441-1.46 0-.805-.638-1.445-1.44-1.445-.803 0-1.427.64-1.427 1.445ZM18.716 3.323c.015-.819-.609-1.474-1.396-1.49-.772-.03-1.456.641-1.47 1.43a1.435 1.435 0 0 0 1.41 1.475c.803.015 1.441-.61 1.456-1.415Zm19.548-.06c-.014.82.61 1.46 1.412 1.475a1.444 1.444 0 0 0 1.47-1.415c.015-.79-.639-1.474-1.426-1.49-.787-.03-1.456.626-1.456 1.43ZM3.09 38.533c-.802 0-1.456.655-1.456 1.444 0 .79.683 1.445 1.47 1.445.803 0 1.441-.655 1.441-1.46 0-.804-.638-1.43-1.455-1.43Z" fill="#fff"/><path d="M16.74 28.88c-.014-5.897 4.338-10.887 10.072-11.646 6.268-.834 11.883 3.083 13.176 9.234.594 2.86.118 5.585-1.352 8.117-.357.625-.787.804-1.263.536-.49-.268-.55-.745-.193-1.4 3.075-5.48.639-12.153-5.229-14.313-5.808-2.144-12.15 1.43-13.368 7.507-1.04 5.212 2.555 10.514 7.783 11.557 2.956.58 5.66-.015 8.126-1.742.252-.18.698-.239 1.01-.164.193.044.46.461.445.67-.03.298-.252.67-.505.849-2.065 1.534-4.382 2.293-6.952 2.293-5.956 0-10.888-4.289-11.69-10.217-.03-.461-.03-.938-.06-1.28Z" fill="#fff"/></svg>