<svg width="63" height="45" fill="none" xmlns="http://www.w3.org/2000/svg"><path d="M0 .966C.68.16 1.051.096 1.956.61 3.72 1.626 5.465 2.641 7.211 3.64c.42.241.728.547.647 1.063-.113.66-.808.95-1.455.596A466.905 466.905 0 0 1 2.57 3.092c-.21-.113-.42-.226-.695-.387-.017.194-.049.339-.049.484 0 5.88 0 11.759-.016 17.639 0 .37.097.58.42.757 1.148.628 2.28 1.288 3.477 1.981 2.7-4.671 5.384-9.31 8.1-13.998-1.035-.613-2.07-1.192-3.088-1.788-.194-.113-.404-.21-.566-.339-.404-.322-.485-.74-.243-1.176.26-.45.712-.596 1.148-.354 1.472.805 2.91 1.643 4.35 2.513.226.145.436.515.452.805.017.403.21.564.502.725.857.483 1.73.95 2.57 1.482.405.258.696.693 1.1.967.42.29.905.5 1.39.676.76.29 1.472.242 2.216-.225 1.455-.934 2.99-1.756 4.494-2.61 2.005-1.144 4.026-1.16 6.048-.032 1.31.725 2.587 1.482 3.88 2.223.986.564 2.053.709 3.153.403.42-.113.824-.242 1.035-.725.097-.21.371-.355.598-.483.986-.58 1.989-1.144 2.975-1.74.178-.113.259-.387.388-.58.21-.338.356-.822.663-.999C51.368 5.685 55.879 3.108 60.39.515c.663-.387 1.067-.242 1.697.499v21.134c-.242.242-.452.532-.727.693-1.471.87-2.975 1.708-4.446 2.578-.453.257-.89.322-1.375.08-.13-.064-.323-.097-.436-.048-1.035.58-2.054 1.176-3.072 1.756.663 2.98-.049 4.43-2.684 5.396.436 1.482.226 2.851-.89 3.995-1.1 1.127-2.473 1.353-4.026.966-.048 1.45-.598 2.61-1.827 3.351-1.228.741-2.522.725-3.864.161-.032.29-.049.532-.097.79-.517 2.496-3.185 3.801-5.497 2.673-.696-.338-1.342-.74-2.005-1.127-.275-.161-.47-.161-.76 0-.55.322-1.132.66-1.73.821-2.312.613-4.398-.886-4.786-3.415-1.342.58-2.684.66-3.961-.16-1.262-.806-1.779-2.03-1.811-3.529-1.342.113-2.539-.193-3.477-1.208-.937-1.014-1.18-2.207-.937-3.544a26.876 26.876 0 0 1-.776-.193c-1.844-.564-3.024-2.464-2.636-4.333.08-.37 0-.548-.323-.709-.922-.5-1.811-1.047-2.733-1.546-.194-.097-.469-.049-.711-.065-.404-.016-.873.097-1.197-.064-1.584-.854-3.12-1.756-4.672-2.674-.243-.145-.42-.419-.631-.628V.965Zm42.685 13.24c-2.296 1.016-4.365.613-6.354-.676-1.019-.66-2.086-1.224-3.137-1.804-1.293-.709-2.635-.74-3.929-.032-2.053 1.127-4.058 2.32-6.08 3.48-.614.354-.953.934-.97 1.643-.032.773.308 1.369.97 1.771.696.42 1.424.387 2.135-.016 1.827-1.047 3.638-2.078 5.449-3.14.76-.452 1.52-.468 2.296-.017.873.5 1.746.999 2.62 1.514.581.338.727.838.452 1.305-.275.467-.792.58-1.358.274a68.665 68.665 0 0 1-2.36-1.353c-.357-.226-.631-.194-.987.016-1.763 1.03-3.509 2.062-5.303 3.044-2.329 1.273-5.061.065-5.66-2.48-.226-1-.048-1.95.47-2.868a61.448 61.448 0 0 1-1.537-.628c-1.908 3.302-3.815 6.588-5.707 9.875.032.048.08.08.113.129 1.681-1.192 3.444-1.595 5.158-.274 1.617 1.224 1.875 2.9 1.164 4.752 1.86.74 2.732 2.11 2.716 4.06 1.148-.081 2.134.192 2.975.885.841.709 1.278 1.627 1.407 2.706 3.525-.886 6.096 2.272 4.786 5.38.566.323 1.132.677 1.714 1 1.1.595 2.36.29 2.91-.693.55-.999.178-2.143-.905-2.771-.485-.29-1.035-.515-1.44-.87-.242-.21-.42-.676-.355-.966.065-.274.453-.548.76-.645.21-.064.533.097.776.226 1.342.757 2.652 1.53 3.994 2.287 1.1.612 2.344.322 2.894-.676.566-1 .21-2.127-.89-2.771l-3.928-2.271c-.178-.097-.356-.194-.502-.339-.307-.338-.372-.724-.097-1.095.259-.37.599-.532 1.051-.37.21.08.404.193.598.306 1.99 1.143 3.962 2.32 5.983 3.415.469.257 1.083.37 1.6.322.793-.065 1.423-.79 1.52-1.514.13-.919-.145-1.676-.986-2.159-1.39-.822-2.797-1.61-4.188-2.416a53.325 53.325 0 0 1-2.295-1.337c-.502-.306-.631-.79-.389-1.24.26-.468.777-.597 1.31-.339.13.065.243.129.372.21 2.005 1.16 4.026 2.303 6.03 3.463.76.435 1.505.402 2.216-.08.68-.468.825-1.16.695-1.918-.129-.773-.614-1.272-1.277-1.659-3.38-1.933-6.742-3.866-10.122-5.815-.194-.113-.469-.193-.533-.37-.13-.323-.291-.742-.178-1.032.097-.241.534-.434.857-.499.21-.048.485.129.711.258 2.636 1.514 5.271 3.028 7.923 4.543.178.096.356.193.533.273.017-.032.05-.064.065-.112a1803.233 1803.233 0 0 1-5.756-9.891Zm5.578-4.655c.13.226.227.403.324.564 1.326 2.288 2.651 4.559 3.945 6.847.145.257.323.644.242.885-.097.29-.42.596-.711.71-.453.16-.792-.146-1.035-.548-1.196-2.079-2.393-4.14-3.605-6.218-.114-.178-.227-.37-.356-.564-1.019.58-1.989 1.143-3.008 1.723 2.426 4.172 4.819 8.313 7.228 12.485 1.035-.596 2.005-1.144 3.007-1.74-.323-.548-.614-1.08-.921-1.595-.372-.644-.291-1.176.194-1.466.517-.306 1.002-.113 1.39.532.453.773.906 1.562 1.374 2.368 1.165-.66 2.28-1.321 3.396-1.933.356-.194.501-.42.501-.838-.016-5.831-.016-11.679-.016-17.51 0-.161-.016-.338-.032-.58-3.978 2.32-7.94 4.607-11.917 6.878Zm-33.29 1.692c-2.426 4.188-4.82 8.312-7.228 12.484 1.018.58 1.989 1.144 3.023 1.74 2.426-4.172 4.819-8.312 7.228-12.468a113.415 113.415 0 0 0-3.024-1.756Zm-.825 19.217c.08-.016.34-.016.55-.112 1.066-.596 2.166-1.144 3.184-1.837.841-.563.987-1.723.453-2.593-.517-.838-1.6-1.208-2.474-.757a31.34 31.34 0 0 0-3.023 1.756c-.728.467-.954 1.369-.695 2.19.242.806.986 1.354 2.005 1.354Zm4.818-.112c-.307.08-.63.129-.922.258a18.5 18.5 0 0 0-1.73.998c-.921.596-1.18 1.724-.647 2.642.518.902 1.617 1.273 2.555.822a15.837 15.837 0 0 0 1.892-1.08c.744-.5 1.018-1.401.744-2.239-.26-.805-1.003-1.337-1.892-1.401Zm3.233 9.037c.97-.339 2.119-.773 2.862-1.804.502-.693.356-1.644-.21-2.288-.566-.644-1.455-.902-2.247-.548-.663.306-1.326.677-1.924 1.112-.696.5-.922 1.417-.63 2.223.306.79 1.066 1.32 2.15 1.305Zm3.493.934c0 1.095.614 1.885 1.52 2.094 1.1.258 2.78-.644 3.153-1.723.404-1.16-.372-2.449-1.585-2.642-.97-.145-2.57.757-2.943 1.675-.08.242-.113.5-.145.596Z" fill="#fff"/></svg>