<svg width="61" height="67" fill="none" xmlns="http://www.w3.org/2000/svg"><path d="M29.162.948h1.811c.065.049.13.097.21.13 2.118.563 3.46 1.884 3.962 4.043.048.193.34.435.55.483 2.538.548 4.98 1.337 7.291 2.497a28.795 28.795 0 0 1 9.297 7.345c.275.338.518.387.938.242 2.474-.87 5.045.193 6.29 2.529 1.164 2.175.517 4.93-1.52 6.46-.13.096-.259.209-.388.322.938 2.931 1.423 5.912 1.423 8.956 0 3.06-.502 6.057-1.423 8.973.145.112.258.209.388.29 2.02 1.53 2.668 4.268 1.52 6.443-1.245 2.352-3.816 3.399-6.29 2.53-.42-.146-.647-.098-.938.24a28.267 28.267 0 0 1-5.642 5.188c-3.315 2.303-6.953 3.834-10.898 4.623-.404.08-.582.242-.663.644-.162.934-.63 1.724-1.261 2.416-.776.854-1.795 1.273-2.862 1.627h-1.811c-.097-.048-.178-.112-.275-.128-2.086-.58-3.395-1.901-3.896-4.044-.049-.193-.34-.418-.55-.483-1.6-.483-3.25-.838-4.818-1.434-4.576-1.723-8.457-4.478-11.61-8.231-.404-.483-.743-.564-1.358-.37-3.508 1.191-7.276-2.16-6.548-5.784.307-1.514 1.1-2.674 2.393-3.544-.922-2.931-1.423-5.928-1.423-8.988 0-3.06.501-6.057 1.423-8.973-.146-.112-.259-.21-.388-.29-2.021-1.53-2.668-4.268-1.52-6.443 1.245-2.336 3.816-3.399 6.29-2.53.42.146.646.081.937-.24a28.269 28.269 0 0 1 5.643-5.188c3.299-2.303 6.953-3.834 10.898-4.623.404-.08.582-.242.663-.644.162-.935.63-1.724 1.261-2.417.808-.837 1.827-1.272 2.894-1.627Zm-20 16.19c.032.048.048.112.08.177.987 1.305 1.359 2.738 1.051 4.365-.032.178.178.5.372.612 1.197.693 2.41 1.337 3.606 1.998.582.322 1.148.628 1.73.934 3.444-4.945 8.052-7.732 14.099-7.732 6.047.016 10.639 2.82 14.05 7.732 1.52-.837 3.008-1.691 4.544-2.464.808-.403 1.293-.758 1.083-1.837-.258-1.385.324-2.658 1.213-3.753-4.188-5.074-9.491-8.248-15.959-9.52-.695 1.9-1.988 3.076-3.96 3.576v4.156h-2.054V11.21c-1.989-.484-3.25-1.708-3.93-3.528-5.917.983-11.867 4.35-15.925 9.456Zm-.033 33.618c4.204 5.075 9.507 8.248 15.959 9.52.695-1.916 2.005-3.076 3.945-3.576v-4.156h2.053v4.173c1.973.483 3.25 1.707 3.945 3.56 6.484-1.29 11.771-4.462 15.943-9.52-1.084-1.37-1.504-2.884-1.148-4.608.032-.129-.097-.37-.227-.45-1.827-1.016-3.654-2.014-5.48-3.013-3.412 4.913-8.004 7.716-14.051 7.732-6.08 0-10.672-2.803-14.083-7.732a435.47 435.47 0 0 0-5.465 2.996c-.146.08-.275.355-.259.5.372 1.691-.048 3.189-1.132 4.574Zm20.939-2.368c7.939 0 14.487-6.524 14.487-14.433 0-7.91-6.548-14.433-14.487-14.433-7.94 0-14.487 6.524-14.487 14.433 0 7.893 6.548 14.417 14.487 14.433ZM55.63 25.66c-1.924.193-3.46-.45-4.705-1.804-1.956 1.063-3.864 2.11-5.82 3.19.986 2.255 1.503 4.526 1.503 6.926 0 2.384-.533 4.656-1.503 6.879 1.972 1.079 3.896 2.126 5.82 3.173 1.278-1.385 2.83-1.981 4.705-1.804 1.746-5.525 1.746-11.002 0-16.56ZM15.015 40.85c-2.021-4.639-1.99-9.23 0-13.804-1.99-1.08-3.897-2.127-5.821-3.174-1.277 1.385-2.83 1.981-4.657 1.82-1.81 4.978-1.762 11.792.017 16.528 1.843-.177 3.395.467 4.656 1.804 1.94-1.063 3.832-2.11 5.805-3.173ZM30.084 3.028c-1.665-.033-3.104 1.385-3.12 3.06-.033 1.66 1.39 3.093 3.071 3.11 1.666.031 3.105-1.386 3.12-3.062.033-1.659-1.373-3.092-3.071-3.108ZM8.32 20.52c-.016-1.675-1.455-3.092-3.12-3.06-1.682.016-3.105 1.45-3.073 3.109.016 1.675 1.455 3.093 3.12 3.06 1.682-.016 3.105-1.45 3.073-3.109Zm49.67.049c.032-1.66-1.39-3.093-3.072-3.11-1.665-.031-3.104 1.386-3.12 3.061-.033 1.66 1.39 3.093 3.071 3.11 1.666.032 3.105-1.386 3.12-3.061ZM8.32 47.34c0-1.659-1.44-3.093-3.105-3.076-1.665 0-3.104 1.433-3.088 3.093 0 1.659 1.44 3.092 3.105 3.076 1.665 0 3.088-1.417 3.088-3.093Zm49.67.033c.016-1.66-1.407-3.093-3.072-3.11-1.665-.016-3.104 1.402-3.12 3.061-.017 1.66 1.406 3.093 3.071 3.11 1.666.015 3.105-1.386 3.12-3.061ZM33.156 61.807c.032-1.66-1.39-3.093-3.072-3.11-1.665-.031-3.104 1.386-3.12 3.062-.033 1.659 1.39 3.093 3.071 3.109 1.666.032 3.105-1.386 3.12-3.061Z" fill="#fff"/><path d="M33.415 32.78c.29.209.533.418.792.579 1.568.95 3.136 1.885 4.705 2.803.34.193.469.419.453.822-.033.918-.017 1.852-.017 2.77 0 1.434-.533 2.304-1.924 2.674-1.342.355-2.732.693-4.106.709-2.814.064-5.643-.032-8.457-.193-.921-.049-1.843-.387-2.716-.741-.97-.403-1.471-1.192-1.439-2.288.032-.982.032-1.981 0-2.964-.016-.37.13-.58.437-.757 1.584-.918 3.136-1.869 4.705-2.803.29-.177.55-.402.857-.628-.938-.838-1.585-1.82-1.747-2.996-.388-2.739.065-5.107 2.684-6.524 3.17-1.724 7.18.402 7.535 4.01.162 1.58.113 3.142-.89 4.495-.242.306-.533.628-.872 1.031Zm-3.347 8.52c2.085-.225 4.155-.386 6.225-.676.953-.129.921-.338 1.05-1.289.178-1.32-.339-2.03-1.487-2.642-1.455-.789-2.781-1.836-4.172-2.754-.161-.097-.387-.113-.598-.113a42.973 42.973 0 0 0-2.037 0c-.194 0-.485 0-.582.113-1.18 1.273-2.749 1.997-4.22 2.803-1.1.596-1.6 1.272-1.44 2.529.13 1.03.082 1.208 1.117 1.353 2.02.306 4.074.467 6.144.677Zm-3.089-13.015c0 .241-.016.467 0 .709.195 1.691 1.472 2.883 3.073 2.883 1.6 0 2.91-1.192 3.072-2.883a6.02 6.02 0 0 0-.065-1.788c-.323-1.853-2.134-2.932-3.93-2.385-1.406.435-2.182 1.643-2.15 3.464ZM29.065 7.102V5.121h1.989v1.981h-1.989ZM6.219 19.554v1.981H4.23v-1.981H6.22ZM53.9 19.554h1.989v1.981H53.9v-1.981ZM6.235 46.375v1.965H4.23v-1.965h2.005ZM53.916 46.343h1.973v1.997h-1.973v-1.997ZM29.05 62.773v-1.965h2.004v1.965h-2.005Z" fill="#fff"/></svg>