<svg width="56" height="59" fill="none" xmlns="http://www.w3.org/2000/svg"><path d="M43.85.93c.208.074.416.148.624.208a4.799 4.799 0 0 1 3.386 4.438c.015.507 0 .998.015 1.505.015.848-.371 1.489-1.054 1.98-.149.105-.312.298-.312.447-.03 1.4-.015 2.785-.015 4.275h4.783c2.094.014 3.624 1.489 3.669 3.589.044 1.698.015 3.38 0 5.079 0 .64-.342 1.027-.862 1.027-.505 0-.846-.387-.846-1.027-.015-1.624 0-3.232 0-4.856 0-1.4-.728-2.13-2.125-2.13H30.511c-1.412 0-2.14.745-2.14 2.19 0 2.19.015 4.394-.014 6.583 0 .417.06.64.535.774 1.396.432 2.168 1.639 2.183 3.262v15.058h1.248V18.995c0-.238 0-.491.06-.715.088-.387.356-.61.757-.625.416-.015.728.164.832.58.059.254.074.522.074.775v24.575c0 .387.074.7.342 1.012.475.552.698 1.207.698 1.952v4.974c0 .313-.06.626-.09 1.028h16.177c1.411 0 2.124-.7 2.124-2.115V27.157c0-.223 0-.447.03-.67.074-.432.356-.7.802-.715.46-.015.757.268.846.73.03.164.03.327.03.506v23.398c0 2.383-1.47 3.843-3.862 3.858H49.91v1.474c-.015 1.325-.98 2.309-2.272 2.323-1.293 0-2.273-.968-2.288-2.293-.015-.477 0-.953 0-1.46h-8.942v1.251c-.015 1.49-.98 2.517-2.347 2.502-1.322-.014-2.273-1.042-2.288-2.502v-.76h-.594c-.09.447-.148.864-.282 1.267-.401 1.131-1.292 1.727-2.377 2.085H6.58c-.4-.209-.846-.373-1.218-.626-.906-.64-1.292-1.593-1.351-2.725-.342-.03-.669-.03-.996-.075C1.367 54.532.193 53.46.09 51.806a41.946 41.946 0 0 1 0-5.466c.119-1.802 1.5-2.92 3.313-2.934h.638c0-.283-.014-.536 0-.79.03-.55.372-.893.877-.893.475.015.772.328.817.879.015.179 0 .372 0 .55v11.335c0 1.445.534 1.98 1.99 1.98 6.566 0 13.146-.014 19.712.016 1.143 0 2.005-.522 2.005-1.996-.044-5.973-.015-11.945-.015-17.917v-.521c-.891.104-1.738.193-2.629.283v.744c1.277.596 1.693 1.445 1.352 2.83-.164.7-.728 1.221-1.47 1.236-1.471.03-2.927.045-4.398 0-.846-.03-1.44-.685-1.455-1.534-.015-.491-.015-1.013.133-1.474.104-.313.431-.685.728-.775.61-.193.55-.566.476-1.042h-9.21v.789c1.277.566 1.723 1.504 1.337 2.874-.208.73-.758 1.192-1.56 1.192-1.396.015-2.778.03-4.174 0-.906-.015-1.5-.625-1.575-1.549-.014-.164-.014-.328-.014-.506 0-1.162.267-1.564 1.366-1.981v-.775c-.861-.089-1.693-.178-2.614-.283v2.056c0 .953-.253 1.37-.832 1.37-.594 0-.861-.417-.861-1.355 0-3.232.044-6.48-.015-9.711-.03-2.249 1.678-3.649 3.535-3.575 1.857.09 3.713.015 5.57.015h.684c0-.536-.015-1.027 0-1.519.059-1.817 1.455-3.396 3.193-3.604 1.99-.238 3.758.879 4.219 2.74.178.745.163 1.55.238 2.398h5.273v-.655c0-2.19.06-4.394-.015-6.583-.074-2.294 1.768-3.917 3.847-3.828 1.486.06 2.971.015 4.456 0 .03 0 .075-.015.179-.044v-.85c0-.774-.015-1.563 0-2.338.03-.73.074-1.4-.728-1.832-.297-.163-.535-.655-.594-1.027-.238-1.475-.238-2.934.52-4.275.698-1.22 1.752-1.995 3.104-2.353.119-.03.238-.074.371-.119 1.976-.06 3.981-.06 5.987-.06ZM12.923 26.531v7.982h9.195v-7.982h-9.195Zm23.9-12.78h7.933c0-1.459 0-2.889-.015-4.318 0-.12-.149-.283-.282-.358-.728-.476-1.1-1.132-1.1-1.995 0-.328-.014-.67 0-.998.03-.462-.178-.626-.623-.611-1.025.015-2.035 0-3.06 0-1.426 0-1.426 0-1.426 1.4 0 .968-.327 1.728-1.174 2.249-.119.074-.237.238-.237.372-.015 1.385-.015 2.8-.015 4.26ZM26.739 34.545c.43 0 .802.015 1.173 0 .817-.06 1.441-.67 1.456-1.474.015-1.698.015-3.381 0-5.079 0-.685-.46-1.266-1.144-1.4-.475-.09-.98-.074-1.485-.104v8.057Zm-18.45-.03v-8.012h-.49c-1.619-.015-2.109.476-2.109 2.07 0 1.206.045 2.428-.015 3.634-.074 1.832.55 2.472 2.407 2.338.06 0 .119-.015.208-.03ZM40.835 2.568v.044c-.757 0-1.515-.014-2.287 0-1.441.045-2.719.998-3.016 2.369-.148.655-.104 1.37-.118 2.055-.015.387.178.655.594.64.386-.015.534-.283.534-.655 0-.447-.014-.894.015-1.34.09-1.118.877-1.907 1.99-1.937 1.501-.03 3.001-.03 4.502 0 1.143.03 1.96.909 1.99 2.056.015.387.015.774 0 1.176-.015.387.119.685.55.685.46 0 .594-.298.594-.7v-1.22c-.03-1.505-1.055-2.786-2.54-3.024-.906-.15-1.872-.12-2.808-.15ZM31.09 52.953c1.604.223 2.287-.373 2.287-1.921V46.95c0-1.445-.831-2.115-2.287-1.832v7.834Zm-27.139.03v-7.894c-1.619-.149-2.243.417-2.243 1.98 0 1.46-.015 2.935.015 4.395.015.789.505 1.4 1.218 1.504.312.044.654.015 1.01.015Zm15.642-28.164c0-.566.044-1.132-.015-1.668-.104-.939-.891-1.698-1.783-1.773-1.04-.104-1.99.462-2.228 1.43-.163.64-.119 1.34-.163 2.026 1.47-.015 2.807-.015 4.189-.015ZM11.17 37.106v-10.56h-1.084v10.56h1.084Zm12.745-10.574v10.56h1.07v-10.56h-1.07ZM12.596 38.819H8.63c.015.208.03.387.03.55h3.936v-.55Zm13.874 0h-4.01c.014.208.03.387.044.566h3.936c0-.194.015-.358.03-.566Zm20.5 15.444c0 .522-.016.983 0 1.445.014.358.222.656.578.596.238-.045.565-.328.61-.551.089-.477.03-.983.03-1.49h-1.219Zm-12.36-.03c-.326 0-.609-.03-.876.016-.119.014-.282.178-.297.283-.03.446-.06.893.044 1.325.045.194.372.447.565.432.193 0 .505-.283.535-.477.089-.491.03-.997.03-1.578Z" fill="#fff"/><path d="M17.528 43.242h6.684c1.486 0 2.258.775 2.258 2.264v5.749c0 1.34-.817 2.16-2.139 2.16H10.755c-1.293 0-2.154-.805-2.17-2.1-.029-1.996-.029-3.977 0-5.973.016-1.296.862-2.1 2.155-2.115 2.258 0 4.53.015 6.788.015Zm-.03 1.683c-2.183 0-4.382.015-6.565-.015-.476 0-.654.134-.654.64.015 1.848.015 3.68 0 5.526 0 .507.164.685.669.685 4.382-.015 8.749-.015 13.13 0 .52 0 .729-.164.729-.7-.03-1.817-.015-3.649 0-5.466 0-.52-.194-.67-.684-.67-2.213.015-4.411 0-6.625 0ZM39.096 33.264v14.119c0 .208 0 .417-.014.61-.045.447-.313.715-.758.745-.475.03-.773-.223-.891-.67-.045-.179-.03-.373-.03-.551v-28.64c0-.224 0-.447.074-.656.134-.402.431-.596.862-.551.43.03.683.268.742.7.03.223.03.447.03.67-.015 4.736-.015 9.472-.015 14.224ZM47.623 33.174V18.996c0-.18 0-.373.015-.552.044-.476.311-.744.787-.774.46-.03.817.283.876.76.015.163.015.327.015.506v28.58c0 .165.015.343-.015.507-.06.462-.43.775-.876.745-.476-.03-.743-.313-.773-.79-.014-.178-.014-.372-.014-.55-.015-4.767-.015-9.518-.015-14.254ZM42.513 33.204V18.92c0-.179-.03-.372.015-.551.104-.462.386-.715.861-.685.446.015.713.268.773.73.03.178.014.372.014.55v28.522c0 .908-.252 1.296-.846 1.28-.58-.014-.817-.387-.817-1.31V33.204Z" fill="#fff"/></svg>