<svg width="40" height="37" fill="none" xmlns="http://www.w3.org/2000/svg"><path d="M39.219 35.456h-1.586V33.44c0-2.228-1.452-4.127-3.469-4.822a5.424 5.424 0 0 0 1.994-4.195c0-3.01-2.477-5.458-5.521-5.458-1.51 0-2.88.601-3.877 1.575-.358-3.375-3.253-6.014-6.76-6.014-3.507 0-6.402 2.639-6.76 6.014a5.536 5.536 0 0 0-3.877-1.575c-3.044 0-5.521 2.448-5.521 5.457 0 1.685.776 3.194 1.994 4.196-2.017.695-3.469 2.594-3.469 4.822v2.016H.781a.777.777 0 0 0-.781.772c0 .426.35.772.781.772h15.687a.777.777 0 0 0 .782-.772.777.777 0 0 0-.782-.773h-3.575V32.69c0-2.605 2.145-4.725 4.78-4.725h4.653c2.636 0 4.78 2.12 4.78 4.725v2.767h-3.574a.777.777 0 0 0-.782.772c0 .426.35.772.782.772h15.687a.777.777 0 0 0 .781-.772.777.777 0 0 0-.781-.773Zm-8.582-14.947c2.182 0 3.959 1.756 3.959 3.913 0 2.158-1.776 3.914-3.96 3.914-2.183 0-3.958-1.756-3.958-3.913 0-2.158 1.776-3.914 3.959-3.914ZM20 16.07c2.887 0 5.235 2.322 5.235 5.175 0 2.853-2.348 5.174-5.235 5.174-2.887 0-5.235-2.321-5.235-5.174S17.113 16.07 20 16.07ZM5.404 24.422c0-2.157 1.776-3.913 3.96-3.913 2.182 0 3.958 1.756 3.958 3.913 0 2.158-1.775 3.914-3.959 3.914-2.183 0-3.959-1.756-3.959-3.913ZM3.93 33.44c0-1.963 1.615-3.56 3.6-3.56h3.666c.274 0 .513.029.76.095a6.173 6.173 0 0 0-.625 2.714v2.767H3.93V33.44Zm9.752-5.62c.53-.656.91-1.436 1.088-2.288.352.419.754.794 1.197 1.118a6.359 6.359 0 0 0-2.286 1.17Zm10.351-1.17c.443-.324.845-.7 1.197-1.118a5.413 5.413 0 0 0 1.088 2.288 6.36 6.36 0 0 0-2.285-1.17Zm4.636 8.806v-2.767c0-.971-.224-1.892-.625-2.714.247-.067.486-.095.76-.095h3.665c1.986 0 3.601 1.597 3.601 3.56v2.016h-7.4Z" fill="#fff"/><path d="M20.42 35.586a.797.797 0 0 0-.896.019.774.774 0 0 0-.288.838c.09.305.368.529.688.554a.788.788 0 0 0 .778-.463.772.772 0 0 0-.283-.948ZM11.249 15.19c-.164 0-.329-.033-.486-.099l-1.801-.754-1.8.754c-.405.17-.858.119-1.214-.137a1.21 1.21 0 0 1-.506-1.098l.169-1.925-1.282-1.46a1.206 1.206 0 0 1-.243-1.183c.136-.412.472-.717.9-.815l1.905-.436L7.899 6.38a1.234 1.234 0 0 1 1.063-.593c.439 0 .836.222 1.063.593l1.008 1.657 1.905.436c.428.098.764.403.9.815.136.413.045.855-.243 1.183l-1.282 1.46.17 1.926a1.21 1.21 0 0 1-.507 1.097c-.217.156-.47.236-.727.236Zm-5.39-5.332 1.149 1.307a.766.766 0 0 1 .188.573l-.151 1.725 1.612-.675a.79.79 0 0 1 .61 0l1.612.675-.151-1.725a.766.766 0 0 1 .188-.573l1.148-1.307-1.706-.39a.781.781 0 0 1-.493-.355L8.962 7.63l-.903 1.483a.78.78 0 0 1-.493.354l-1.706.391ZM33.325 15.19c-.164 0-.329-.033-.486-.099l-1.801-.754-1.8.754c-.405.17-.858.119-1.213-.137a1.21 1.21 0 0 1-.507-1.097l.169-1.926-1.282-1.46a1.205 1.205 0 0 1-.243-1.183c.136-.412.472-.717.9-.815l1.905-.436 1.009-1.656a1.233 1.233 0 0 1 1.062-.594c.44 0 .837.222 1.063.594l1.008 1.656 1.905.436c.428.098.765.403.9.816.136.412.045.854-.243 1.182l-1.282 1.46.17 1.926c.037.432-.152.842-.507 1.098-.217.155-.47.235-.727.235Zm-5.39-5.332 1.149 1.307a.766.766 0 0 1 .188.573l-.151 1.725 1.612-.675a.79.79 0 0 1 .61 0l1.612.675-.151-1.725a.767.767 0 0 1 .188-.573l1.148-1.307-1.706-.39a.78.78 0 0 1-.493-.355l-.903-1.483-.903 1.483a.781.781 0 0 1-.493.355l-1.706.39ZM17.173 11.26c-.279 0-.555-.086-.79-.255a1.317 1.317 0 0 1-.551-1.194l.215-2.458-1.636-1.864a1.311 1.311 0 0 1-.264-1.286c.147-.448.513-.78.978-.886l2.432-.557L18.844.646A1.342 1.342 0 0 1 20 0c.477 0 .91.241 1.156.646l1.287 2.114 2.431.556c.466.107.832.439.979.887.147.45.049.93-.264 1.286l-1.636 1.864.215 2.458c.042.47-.164.916-.55 1.194-.387.277-.88.333-1.32.148L20 10.191l-2.298.963c-.172.071-.351.107-.53.107ZM20 8.58c.104 0 .207.02.305.061l2.276.954-.214-2.435a.767.767 0 0 1 .188-.573l1.621-1.845-2.408-.551a.781.781 0 0 1-.493-.354L20 1.743l-1.275 2.093a.78.78 0 0 1-.493.355l-2.408.55 1.62 1.846a.767.767 0 0 1 .189.573l-.214 2.435 2.276-.954a.791.791 0 0 1 .305-.06Z" fill="#fff"/></svg>