<svg width="53" height="53" fill="none" xmlns="http://www.w3.org/2000/svg"><path d="M47.871 28.663V11.899C50.766 11.482 53 8.992 53 5.984A5.991 5.991 0 0 0 47.016 0a5.991 5.991 0 0 0-5.984 5.984H0v34.193h25.689C26.133 47.321 32.07 53 39.323 53 46.864 53 53 46.864 53 39.323c0-4.308-2.006-8.151-5.129-10.66ZM47.016 1.71a4.279 4.279 0 0 1 4.274 4.274 4.28 4.28 0 0 1-4.274 4.274 4.28 4.28 0 0 1-4.274-4.274 4.279 4.279 0 0 1 4.274-4.274ZM1.71 7.694h39.574c.205.682.53 1.31.947 1.867l-5.229 5.229a2.529 2.529 0 0 0-1.099-.258c-.395 0-.764.097-1.098.258l-1.723-1.723c.16-.335.257-.704.257-1.1a2.568 2.568 0 0 0-2.565-2.564 2.568 2.568 0 0 0-2.564 2.565c0 .395.096.764.257 1.098l-4.287 4.287a2.541 2.541 0 0 0-1.1-.256 2.568 2.568 0 0 0-2.564 2.564 2.568 2.568 0 0 0 2.565 2.565 2.568 2.568 0 0 0 2.564-2.565c0-.395-.096-.764-.257-1.098l4.287-4.287c.335.16.704.256 1.1.256.394 0 .763-.096 1.098-.257l1.722 1.723a2.54 2.54 0 0 0-.256 1.099 2.568 2.568 0 0 0 2.564 2.564 2.568 2.568 0 0 0 2.565-2.564c0-.395-.097-.765-.258-1.099l5.23-5.228c.782.587 1.71.984 2.721 1.13v15.597a13.57 13.57 0 0 0-6.838-1.852c-4.087 0-7.75 1.81-10.259 4.662V26.5h-5.128v10.258h1.959c-.106.558-.17 1.13-.206 1.71H1.709V7.694Zm34.193 8.548a.856.856 0 0 1 0 1.71.856.856 0 0 1 0-1.71Zm-5.984-4.274a.856.856 0 1 1 1.712.001.856.856 0 0 1-1.712-.001Zm-5.983 7.693a.856.856 0 1 1-1.712-.001.856.856 0 0 1 1.712.001Zm15.387 26.5a6.847 6.847 0 0 1-6.84-6.838 6.847 6.847 0 0 1 6.84-6.84 6.847 6.847 0 0 1 6.838 6.84 6.847 6.847 0 0 1-6.838 6.838ZM27.355 32.715c-.41.74-.748 1.52-1.017 2.333h-.693V28.21h1.71v4.505Zm11.113-5.317v3.42c-4.314.43-7.694 4.08-7.694 8.505 0 1.25.277 2.436.762 3.508l-2.966 1.712a11.867 11.867 0 0 1-1.215-5.22c0-6.31 4.913-11.483 11.113-11.925Zm.855 23.892c-4.116 0-7.752-2.088-9.906-5.261l2.977-1.72c1.554 2.153 4.077 3.562 6.929 3.562 2.851 0 5.374-1.409 6.928-3.561l2.977 1.719c-2.154 3.173-5.79 5.261-9.905 5.261Zm10.752-6.747-2.966-1.712a8.491 8.491 0 0 0 .762-3.508c0-4.425-3.38-8.075-7.694-8.505v-3.42c6.2.442 11.113 5.614 11.113 11.925 0 1.873-.444 3.64-1.215 5.22Z" fill="#fff"/><path d="M39.323 34.194a5.134 5.134 0 0 0-5.13 5.129c0 2.828 2.3 5.129 5.13 5.129 2.828 0 5.129-2.3 5.129-5.13 0-2.828-2.3-5.128-5.13-5.128Zm0 8.548a3.423 3.423 0 0 1-3.42-3.42 3.423 3.423 0 0 1 3.42-3.419 3.423 3.423 0 0 1 3.419 3.42 3.423 3.423 0 0 1-3.42 3.419ZM3.42 9.403h1.709v1.71h-1.71v-1.71ZM6.839 9.403h11.968v1.71H6.838v-1.71ZM3.42 12.823h1.709v1.71h-1.71v-1.71ZM6.839 12.823h11.968v1.71H6.838v-1.71ZM3.42 16.242h1.709v1.71h-1.71v-1.71ZM6.839 16.242h11.968v1.71H6.838v-1.71ZM3.42 19.661h1.709v1.71h-1.71v-1.71ZM6.839 19.661h11.968v1.71H6.838v-1.71ZM3.42 36.758h5.128V28.21H3.42v8.548Zm1.709-6.839h1.71v5.13h-1.71v-5.13ZM10.258 36.758h5.13V29.92h-5.13v6.84Zm1.71-5.129h1.71v3.42h-1.71v-3.42ZM17.097 36.758h5.129V23.081h-5.13v13.677Zm1.71-11.968h1.71v10.258h-1.71V24.79Z" fill="#fff"/></svg>