<svg width="40" height="41" fill="none" xmlns="http://www.w3.org/2000/svg"><path d="m39.263 16.234-4.13-.47a16.299 16.299 0 0 0-1.166-2.882l2.595-3.325A.87.87 0 0 0 36.5 8.42l-4.715-4.827a.818.818 0 0 0-1.109-.064l-3.243 2.66a15.464 15.464 0 0 0-2.813-1.196L24.162.76a.841.841 0 0 0-.829-.76h-6.666a.841.841 0 0 0-.829.76l-.458 4.228c-.973.304-1.915.705-2.813 1.196l-3.243-2.66a.818.818 0 0 0-1.109.063L3.5 8.42a.87.87 0 0 0-.06 1.137l2.598 3.325c-.48.92-.87 1.885-1.167 2.883l-4.13.47a.847.847 0 0 0-.741.848v6.834c0 .435.32.8.742.849l4.125.47c.296.997.687 1.962 1.166 2.882l-2.595 3.325A.87.87 0 0 0 3.5 32.58l4.715 4.833a.818.818 0 0 0 1.11.058l3.242-2.66c.898.492 1.84.892 2.813 1.196l.458 4.233c.047.433.404.76.829.76h6.666c.424 0 .78-.325.829-.756l.458-4.232a15.474 15.474 0 0 0 2.813-1.196l3.243 2.66a.818.818 0 0 0 1.11-.063l4.71-4.833a.87.87 0 0 0 .06-1.137l-2.593-3.325c.479-.92.87-1.885 1.166-2.883l4.13-.47a.847.847 0 0 0 .741-.848v-6.834c0-.434-.317-.799-.737-.849Zm-.93 6.918-3.939.45a.84.84 0 0 0-.713.629 14.638 14.638 0 0 1-1.43 3.545.871.871 0 0 0 .07.962l2.477 3.175-3.66 3.75-3.096-2.54a.817.817 0 0 0-.94-.071 13.895 13.895 0 0 1-3.458 1.467.848.848 0 0 0-.614.73l-.438 4.043h-5.175l-.443-4.042a.848.848 0 0 0-.614-.731 13.892 13.892 0 0 1-3.458-1.467.817.817 0 0 0-.94.072l-3.096 2.54-3.66-3.751 2.478-3.17a.872.872 0 0 0 .07-.963 14.64 14.64 0 0 1-1.43-3.545.84.84 0 0 0-.714-.63l-3.943-.448v-5.305l3.943-.454a.84.84 0 0 0 .713-.629c.321-1.242.803-2.434 1.431-3.545a.872.872 0 0 0-.07-.962L5.207 9.088l3.659-3.751 3.1 2.54c.27.22.643.248.94.071a13.895 13.895 0 0 1 3.458-1.467.848.848 0 0 0 .614-.73l.439-4.043h5.17l.44 4.042c.037.35.28.64.613.731 1.212.33 2.375.823 3.459 1.467.297.177.67.149.939-.072l3.096-2.54 3.66 3.756-2.478 3.174a.872.872 0 0 0-.07.963 14.642 14.642 0 0 1 1.43 3.544.84.84 0 0 0 .714.63l3.944.45v5.3Z" fill="#fff"/><path d="M30.18 14.661C27.032 8.897 19.923 6.839 14.3 10.064 8.678 13.29 6.671 20.576 9.817 26.34a.819.819 0 0 0 1.316.187l5.444-5.58 1.923 2.629a.819.819 0 0 0 1.256.091L25 18.291v3.063h1.667V16.23a.844.844 0 0 0-.834-.854h-5v1.708h2.989l-4.565 4.68-1.924-2.63a.828.828 0 0 0-.607-.341.837.837 0 0 0-.648.25l-5.299 5.43c-1.432-3.495-.862-7.516 1.482-10.448 3.494-4.37 9.783-5.009 14.047-1.427 4.263 3.581 4.887 10.027 1.392 14.397-.322.403-.668.773-1.033 1.112v-5.044H25v6.292a9.828 9.828 0 0 1-1.667.792v-5.375h-1.666v5.822A9.804 9.804 0 0 1 20 30.74v-3.407h-1.666v3.268a9.731 9.731 0 0 1-1.667-.44v-4.536H15v3.75a10.044 10.044 0 0 1-1.346-.953l-1.059 1.32A11.51 11.51 0 0 0 20 32.457c1.994 0 3.955-.524 5.695-1.522 5.623-3.225 7.63-10.512 4.484-16.275Z" fill="#fff"/></svg>