<svg width="24" height="24" viewBox="0 0 24 24" fill="none" xmlns="http://www.w3.org/2000/svg">
<path d="M11.9999 3.51537L3.51488 12.0004L11.9999 20.4854L20.4849 12.0004L11.9999 3.51537ZM12.7069 1.39337L22.6069 11.2934C22.7944 11.4809 22.8997 11.7352 22.8997 12.0004C22.8997 12.2655 22.7944 12.5198 22.6069 12.7074L12.7069 22.6074C12.5194 22.7948 12.265 22.9002 11.9999 22.9002C11.7347 22.9002 11.4804 22.7948 11.2929 22.6074L1.39288 12.7074C1.20541 12.5198 1.1001 12.2655 1.1001 12.0004C1.1001 11.7352 1.20541 11.4809 1.39288 11.2934L11.2929 1.39337C11.4804 1.2059 11.7347 1.10059 11.9999 1.10059C12.265 1.10059 12.5194 1.2059 12.7069 1.39337ZM12.9999 10.0004V7.50037L16.4999 11.0004L12.9999 14.5004V12.0004H9.99988V15.0004H7.99988V11.0004C7.99988 10.7352 8.10524 10.4808 8.29278 10.2933C8.48031 10.1057 8.73467 10.0004 8.99988 10.0004H12.9999Z" fill="#FF3158"/>
</svg>
