<svg width="138" height="138" viewBox="0 0 138 138" fill="none" xmlns="http://www.w3.org/2000/svg">
<path d="M66.17 74.7584C66.7207 74.7614 67.256 74.7655 67.7765 74.7707L70.7281 74.817L73.3604 74.8976L75.7085 75.0189C81.2527 75.3786 84.4615 76.1814 87.8022 77.8834C93.2118 80.6398 97.6102 85.0382 100.367 90.448L100.647 91.0117L101.158 92.1239L101.605 93.2393C101.675 93.4271 101.742 93.6162 101.806 93.8072L102.165 94.9812C102.22 95.1823 102.273 95.3866 102.324 95.5945L102.604 96.8915C102.646 97.1167 102.687 97.3468 102.726 97.5824L102.937 99.0669L103.106 100.712L103.239 102.547L103.34 104.599L103.438 108.149L103.495 113.912L103.5 120.75C103.5 123.926 100.926 126.5 97.75 126.5H11.5C8.32367 126.5 5.74902 123.925 5.75 120.748L5.75218 113.779L5.7707 110.474L5.81701 107.522L5.89759 104.89L6.01894 102.541C6.37867 96.9973 7.18143 93.7885 8.88356 90.4479C11.6399 85.0382 16.0381 80.6398 21.4479 77.8834C25.0113 76.0679 28.4246 75.2756 34.6823 74.9527L37.1681 74.8526L39.9556 74.79L43.08 74.7584H66.17ZM116.552 77.8834C121.962 80.6398 126.36 85.0382 129.116 90.448L129.661 91.5692C129.746 91.7544 129.828 91.9391 129.908 92.1239L130.355 93.2393C130.424 93.4271 130.491 93.6162 130.556 93.8072L130.914 94.9812C130.97 95.1823 131.023 95.3866 131.073 95.5945L131.354 96.8915C131.439 97.3419 131.516 97.8119 131.586 98.3064L131.776 99.8676L131.927 101.604L132.089 104.599L132.188 108.149L132.237 112.35L132.25 120.75C132.25 123.926 129.675 126.5 126.5 126.5C123.551 126.5 121.121 124.28 120.788 121.421L120.75 120.75L120.745 114.268L120.693 108.778L120.607 105.514L120.521 103.688L120.41 102.105L120.271 100.736C120.245 100.524 120.218 100.32 120.189 100.123L120.002 99.0173C119.899 98.5015 119.784 98.0374 119.653 97.6078L119.372 96.7897L119.048 96.0333C118.991 95.9107 118.931 95.7894 118.87 95.6688C117.4 92.7836 115.151 90.3778 112.39 88.7172L111.331 88.13C108.501 86.6883 107.376 83.2257 108.818 80.3962C110.26 77.5667 113.722 76.4417 116.552 77.8834ZM65.9713 86.2576H43.2885L39.2773 86.3053L35.9806 86.4086L34.1298 86.5136L32.5214 86.6512L31.1256 86.8244L29.9122 87.0365C29.1574 87.1915 28.5043 87.3745 27.9127 87.5897L27.0665 87.9372L26.6687 88.13C23.423 89.7838 20.784 92.4228 19.1302 95.6687C18.9972 95.9296 18.8731 96.1984 18.7574 96.48L18.4344 97.3686C18.2849 97.8372 18.1528 98.346 18.0366 98.912L17.8245 100.125L17.6512 101.52L17.5136 103.128L17.3674 106.003L17.2838 109.524L17.25 115H91.9943L91.9772 111.339L91.9433 108.762L91.8564 105.492L91.7702 103.662L91.6582 102.078L91.5175 100.709L91.3454 99.5232L91.1389 98.4907C91.1015 98.3296 91.0625 98.1737 91.0219 98.0222L90.7586 97.1619L90.454 96.3779L90.12 95.6688C88.4662 92.4229 85.8271 89.7838 82.5814 88.1301C82.3205 87.9971 82.0518 87.8731 81.7701 87.7573L80.8816 87.4344C80.4129 87.2848 79.9041 87.1528 79.3382 87.0365L78.1252 86.8244L76.73 86.6512L75.1225 86.5136L72.248 86.3674L68.7273 86.2837L65.9713 86.2576ZM54.625 11.5C68.9154 11.5 80.5 23.0846 80.5 37.375C80.5 51.6654 68.9154 63.25 54.625 63.25C40.3346 63.25 28.75 51.6654 28.75 37.375C28.75 23.0846 40.3346 11.5 54.625 11.5ZM96.7148 15.2C104.428 19.8479 109.25 28.198 109.25 37.375C109.25 46.552 104.428 54.9021 96.7148 59.55C93.9948 61.189 90.4611 60.3126 88.8221 57.5926C87.1832 54.8726 88.0595 51.339 90.7795 49.7C95.0743 47.1121 97.7503 42.4783 97.7503 37.375C97.7503 32.2717 95.0743 27.6379 90.7795 25.05C88.0595 23.411 87.1832 19.8774 88.8221 17.1574C90.4611 14.4374 93.9948 13.561 96.7148 15.2ZM54.625 23C46.6859 23 40.25 29.4359 40.25 37.375C40.25 45.3141 46.6859 51.75 54.625 51.75C62.5641 51.75 69 45.3141 69 37.375C69 29.4359 62.5641 23 54.625 23Z" fill="white" fill-opacity="0.2"/>
</svg>
