<svg width="13" height="13" fill="none" xmlns="http://www.w3.org/2000/svg"><path d="M4.147 4.104c-.775.658-1.059 1.86-.39 2.823a9.256 9.256 0 0 0 2.317 2.316c.963.67 2.164.385 2.823-.39l.007.003c.841.39 1.735.657 2.652.793v1.907h-.003c-5.76.008-10.115-4.398-10.109-10.109v-.003h1.907v.001a9.69 9.69 0 0 0 .792 2.65l.004.009ZM11.555 13h.723a.722.722 0 0 0 .722-.722V9.026a.722.722 0 0 0-.616-.714l-.617-.092a8.247 8.247 0 0 1-2.256-.674l-.543-.252a.722.722 0 0 0-.892.235l-.246.345c-.216.302-.627.394-.932.183a7.812 7.812 0 0 1-1.954-1.954c-.212-.305-.12-.717.182-.933l.345-.246a.722.722 0 0 0 .235-.891l-.252-.544a8.245 8.245 0 0 1-.674-2.256L4.688.616A.722.722 0 0 0 3.974 0H.722A.722.722 0 0 0 0 .722v.723C-.007 7.95 4.99 13.01 11.555 13Z" fill="#158AFF"/></svg>