<svg width="20" height="21" fill="none" xmlns="http://www.w3.org/2000/svg"><path fill-rule="evenodd" clip-rule="evenodd" d="M10 20.079c-5.523 0-10-4.478-10-10 0-5.523 4.477-10 10-10s10 4.477 10 10c0 5.522-4.477 10-10 10Zm2.137-9.889L6.118 4.093c-.248.056-.452.274-.452.712v10.792c0 .412.16.702.457.731l6.014-6.138Zm.272-.29 1.609-1.63L6.61 4.179a.706.706 0 0 0-.49-.085L12.41 9.9Zm.276.28 1.815 1.65 2.144-1.188c.297-.165.608-.584 0-.92L14.51 8.543l-1.825 1.637Zm-6.562 6.148c.136.017.3-.02.487-.123l7.41-4.108-1.61-1.663-6.287 5.894Z" fill="#fff"/></svg>