<svg width="72" height="67" fill="none" xmlns="http://www.w3.org/2000/svg"><path d="M36 33.004c-.528 0-1.028.127-1.471.35l-4.547-4.59a1.047 1.047 0 0 0-1.491 0 1.072 1.072 0 0 0 0 1.506l4.546 4.59a3.345 3.345 0 0 0-.346 1.485c0 1.842 1.484 3.341 3.31 3.341 1.455 0 2.694-.955 3.135-2.276h8.137a1.06 1.06 0 0 0 1.055-1.065 1.06 1.06 0 0 0-1.055-1.065h-8.137c-.442-1.321-1.68-2.276-3.136-2.276Zm0 4.553c-.662 0-1.2-.544-1.2-1.212 0-.668.539-1.211 1.2-1.211.662 0 1.2.543 1.2 1.211s-.538 1.212-1.2 1.212Z" fill="#90A1AE"/><path d="M21.315 35.334a14.882 14.882 0 0 1 4.271-9.502A14.617 14.617 0 0 1 35 21.52a14.644 14.644 0 0 1 9.807 2.93 1.048 1.048 0 0 0 1.477-.214c.349-.471.254-1.138-.212-1.49a16.74 16.74 0 0 0-11.211-3.351 16.717 16.717 0 0 0-10.765 4.931 17.022 17.022 0 0 0-4.884 10.868 17.13 17.13 0 0 0 3.318 11.318 1.05 1.05 0 0 0 1.477.214c.466-.352.56-1.02.212-1.49a14.982 14.982 0 0 1-2.903-9.902Z" fill="#90A1AE"/><path d="M37.055 26.103v-1.139A1.06 1.06 0 0 0 36 23.9a1.06 1.06 0 0 0-1.055 1.064v1.139A1.06 1.06 0 0 0 36 27.167a1.06 1.06 0 0 0 1.055-1.064ZM36 45.523a1.06 1.06 0 0 0-1.055 1.065v1.138A1.06 1.06 0 0 0 36 48.791a1.06 1.06 0 0 0 1.055-1.065v-1.138A1.06 1.06 0 0 0 36 45.523ZM26.91 36.345a1.06 1.06 0 0 0-1.055-1.065h-1.128a1.06 1.06 0 0 0-1.054 1.065 1.06 1.06 0 0 0 1.054 1.065h1.128a1.06 1.06 0 0 0 1.054-1.065Z" fill="#90A1AE"/><path d="M68.69 39.833H57.067c.185-1.15.28-2.317.28-3.488 0-11.883-9.576-21.55-21.346-21.55s-21.346 9.667-21.346 21.55c0 11.883 9.576 21.55 21.346 21.55 1.16 0 2.317-.095 3.454-.282v6.046c0 1.842 1.485 3.341 3.31 3.341H68.69C70.516 67 72 65.501 72 63.66V43.173c0-1.843-1.484-3.341-3.31-3.341Zm1.2 3.34v1.212H41.565v-1.211c0-.668.538-1.212 1.2-1.212H68.69c.661 0 1.2.544 1.2 1.212ZM36 55.767c-10.607 0-19.236-8.712-19.236-19.42 0-10.71 8.63-19.421 19.236-19.421 10.607 0 19.236 8.712 19.236 19.42 0 1.173-.105 2.342-.31 3.488h-2.453c.972-4.744-.11-9.757-3.002-13.655a1.048 1.048 0 0 0-1.476-.214 1.072 1.072 0 0 0-.212 1.49c2.618 3.53 3.54 8.102 2.53 12.379h-7.55c-1.824 0-3.308 1.498-3.308 3.34v7.622a14.69 14.69 0 0 1-12.261-2.554 1.048 1.048 0 0 0-1.476.214c-.35.47-.255 1.138.211 1.49a16.792 16.792 0 0 0 10.116 3.384c1.14 0 2.282-.118 3.41-.354v2.477a19.258 19.258 0 0 1-3.455.314Zm32.69 9.104H42.765c-.662 0-1.2-.543-1.2-1.21V46.514H69.89v17.144c0 .668-.539 1.211-1.2 1.211Z" fill="#90A1AE"/><path d="M39.382 12.372h24.8c.661 0 1.2.544 1.2 1.212v1.211H50.654A1.06 1.06 0 0 0 49.6 15.86a1.06 1.06 0 0 0 1.054 1.065h14.728v14.868c0 .668-.539 1.211-1.2 1.211H60.8a1.06 1.06 0 0 0-1.055 1.065 1.06 1.06 0 0 0 1.055 1.065h3.382c1.825 0 3.309-1.499 3.309-3.341v-18.21c0-1.841-1.485-3.34-3.31-3.34h-24.8a1.06 1.06 0 0 0-1.054 1.065 1.06 1.06 0 0 0 1.055 1.064ZM64.182 50.075h-16.91a1.06 1.06 0 0 0-1.054 1.065 1.06 1.06 0 0 0 1.055 1.065h16.909a1.06 1.06 0 0 0 1.055-1.065 1.06 1.06 0 0 0-1.055-1.065ZM64.182 59.18h-16.91a1.06 1.06 0 0 0-1.054 1.065 1.06 1.06 0 0 0 1.055 1.065h16.909a1.06 1.06 0 0 0 1.055-1.065 1.06 1.06 0 0 0-1.055-1.065ZM60.8 56.757a1.06 1.06 0 0 0 1.055-1.065 1.06 1.06 0 0 0-1.055-1.064H50.655a1.06 1.06 0 0 0-1.055 1.064 1.06 1.06 0 0 0 1.054 1.065H60.8ZM25.782 11.308a1.06 1.06 0 0 0-1.055-1.065H7.818a1.06 1.06 0 0 0-1.054 1.065 1.06 1.06 0 0 0 1.054 1.064h16.91a1.06 1.06 0 0 0 1.054-1.064ZM7.818 19.347a1.06 1.06 0 0 0-1.054 1.065 1.06 1.06 0 0 0 1.054 1.065h9.019a1.06 1.06 0 0 0 1.054-1.065 1.06 1.06 0 0 0-1.054-1.065H7.818ZM22.4 15.86a1.06 1.06 0 0 0-1.054-1.065H11.2a1.06 1.06 0 0 0-1.055 1.065 1.06 1.06 0 0 0 1.055 1.065h10.146A1.06 1.06 0 0 0 22.4 15.86Z" fill="#90A1AE"/><path d="M14.51 26.103a1.06 1.06 0 0 0-1.055-1.065H3.309c-.661 0-1.2-.544-1.2-1.212V6.682h28.327v4.625a1.06 1.06 0 0 0 1.055 1.065 1.06 1.06 0 0 0 1.055-1.065V3.341C32.546 1.499 31.06 0 29.236 0H3.31C1.485 0 0 1.499 0 3.34v20.486c0 1.843 1.485 3.341 3.31 3.341h10.145a1.06 1.06 0 0 0 1.054-1.064ZM3.31 2.13h25.926c.662 0 1.2.543 1.2 1.21v1.212H2.11V3.341c0-.668.539-1.211 1.2-1.211ZM61.855 21.55a1.06 1.06 0 0 0-1.055-1.065h-4.509a1.06 1.06 0 0 0-1.055 1.065 1.06 1.06 0 0 0 1.055 1.065H60.8a1.06 1.06 0 0 0 1.055-1.065ZM59.185 27.167H60.8a1.06 1.06 0 0 0 1.055-1.064 1.06 1.06 0 0 0-1.055-1.065h-1.614a1.06 1.06 0 0 0-1.055 1.065 1.06 1.06 0 0 0 1.054 1.064ZM32.618 60.318h-24.8c-.661 0-1.2-.543-1.2-1.211V44.238h5.71a1.06 1.06 0 0 0 1.054-1.064 1.06 1.06 0 0 0-1.054-1.065h-5.71v-1.212c0-.667.539-1.21 1.2-1.21H11.2a1.06 1.06 0 0 0 1.055-1.066 1.06 1.06 0 0 0-1.055-1.065H7.818c-1.824 0-3.309 1.5-3.309 3.341v18.21c0 1.842 1.485 3.34 3.31 3.34h24.8a1.06 1.06 0 0 0 1.054-1.064 1.06 1.06 0 0 0-1.055-1.065Z" fill="#90A1AE"/><path d="M10.145 54.554A1.06 1.06 0 0 0 11.2 55.62h6.764a1.06 1.06 0 0 0 1.054-1.065 1.06 1.06 0 0 0-1.054-1.065H11.2a1.06 1.06 0 0 0-1.055 1.065ZM14.582 48.937H11.2a1.06 1.06 0 0 0-1.055 1.065 1.06 1.06 0 0 0 1.055 1.065h3.382a1.06 1.06 0 0 0 1.054-1.065 1.06 1.06 0 0 0-1.054-1.065Z" fill="#90A1AE"/></svg>