<svg width="40" height="30" fill="none" xmlns="http://www.w3.org/2000/svg"><path d="M39.813 8.191 32.055.433a.639.639 0 0 0-.904 0l-3.878 3.88a.639.639 0 0 0 0 .903l.386.387-.889.889a1.997 1.997 0 0 1-2.229.391 5.55 5.55 0 0 0-2.278-.491c-.928 0-1.835.233-2.641.674a4.301 4.301 0 0 0-2.501.133c-.754.274-1.562.105-2.11-.443L13.415 5.16l.19-.19a.639.639 0 0 0 0-.904L9.726.187a.639.639 0 0 0-.903 0L.187 8.823a.639.639 0 0 0 0 .903l3.879 3.879a.639.639 0 0 0 .903 0l.232-.231L6.327 14.5c.284.284.472.639.545 1.025a10.032 10.032 0 0 0 2.778 5.276l.213.212a2.283 2.283 0 0 0-.632 1.582c0 .614.24 1.191.674 1.626a2.292 2.292 0 0 0 1.74.669 2.294 2.294 0 0 0 2.296 2.414l.05-.001a2.293 2.293 0 0 0 2.298 2.35 2.285 2.285 0 0 0 1.73-.787 2.13 2.13 0 0 0 2.226-.51 2.14 2.14 0 0 0 .486-.743l.065.065a2.14 2.14 0 0 0 1.518.628 2.14 2.14 0 0 0 2.015-1.4c.374.273.818.41 1.262.41a2.143 2.143 0 0 0 2.148-2.147c0-.174-.02-.344-.06-.509a2.13 2.13 0 0 0 1.086-.585c.406-.406.63-.945.63-1.519 0-.452-.14-.882-.397-1.243l.512-.512a10.028 10.028 0 0 0 2.791-5.342c.062-.34.23-.656.488-.915l1.906-1.906.335.335a.637.637 0 0 0 .904 0l3.879-3.878a.64.64 0 0 0 0-.904ZM4.518 12.25 1.542 9.274l7.732-7.732 2.976 2.976-7.732 7.732Zm7.735 11.067a1.023 1.023 0 0 1-1.744-.722 1.019 1.019 0 0 1 1.744-.722 1.023 1.023 0 0 1 0 1.444Zm2.41 2.41c-.193.193-.45.3-.723.3a1.023 1.023 0 1 1 .722-1.744 1.023 1.023 0 0 1 0 1.444Zm2.348 2.348c-.193.193-.45.3-.722.3a1.023 1.023 0 1 1 .722-1.744 1.023 1.023 0 0 1 0 1.444Zm10.85-4.904a.863.863 0 0 1-.614.255.863.863 0 0 1-.615-.255l-6.198-6.196a.639.639 0 1 0-.903.903l6.675 6.675a.864.864 0 0 1 .255.616.872.872 0 0 1-1.485.616l-1.126-1.127-.02-.02-.005-.005-5.177-5.177a.639.639 0 0 0-.904.904l5.194 5.193a.863.863 0 0 1 .246.607.87.87 0 0 1-1.485.615l-5.631-5.632a.639.639 0 0 0-.904.903l4.175 4.175.003.003a.865.865 0 0 1 0 1.23.862.862 0 0 1-.78.24 2.297 2.297 0 0 0-2.273-2.64h-.052a2.292 2.292 0 0 0-.67-1.675 2.285 2.285 0 0 0-1.741-.67 2.294 2.294 0 0 0-2.814-2.354l-.458-.458a8.759 8.759 0 0 1-2.426-4.606 3.227 3.227 0 0 0-.898-1.695L6.104 12.47l6.407-6.407 1.597 1.597c.614.613 1.45.942 2.305.942.384 0 .771-.066 1.145-.202.18-.066.368-.113.558-.143l-3.956 3.956a2.545 2.545 0 0 0-.75 1.811c0 .685.266 1.328.75 1.812.5.5 1.155.75 1.812.75.656 0 1.312-.25 1.812-.75l1.986-1.987.538.538.044.045.02.018 7.49 7.49a.864.864 0 0 1 .255.616c0 .232-.09.45-.256.615Zm4.024-9.53a2.996 2.996 0 0 0-.841 1.592 8.757 8.757 0 0 1-2.437 4.664l-.491.491-4.042-4.041a3.259 3.259 0 0 0 1.51-.232.639.639 0 1 0-.484-1.182c-1.644.673-3.615-1.181-3.835-1.395a.536.536 0 0 0-.01-.01l-.023-.023-.02-.02-.538-.539.61-.61a.639.639 0 1 0-.904-.903l-1.06 1.06-.001.001-.002.002-2.437 2.437a1.286 1.286 0 0 1-2.193-.908c0-.343.134-.666.377-.909L19.27 8.91a4.215 4.215 0 0 1 2.993-1.24c.6 0 1.206.13 1.75.378 1.237.561 2.708.3 3.66-.652l.889-.889 5.229 5.229-1.907 1.906Zm3.597-2.023-6.854-6.854 2.975-2.975 6.855 6.854-2.976 2.975Z" fill="#ACBDCE"/><path d="M36.126 9.77a.639.639 0 1 0 0-1.277.639.639 0 0 0 0 1.277ZM4.185 10.402a.639.639 0 1 0 0-1.278.639.639 0 0 0 0 1.277Z" fill="#ACBDCE"/></svg>