<svg width="73" height="73" fill="none" xmlns="http://www.w3.org/2000/svg"><path d="M71.93 32.55h-4.366C65.786 18.403 54.597 7.214 40.45 5.436V1.069C40.45.48 39.97 0 39.38 0h-5.76c-.591 0-1.07.479-1.07 1.07v4.365a31.216 31.216 0 0 0-14.53 5.782 1.07 1.07 0 0 0 1.264 1.725 29.08 29.08 0 0 1 13.266-5.35v3.66a25.634 25.634 0 0 0-14.12 7.178 25.634 25.634 0 0 0-7.179 14.12h-3.66a29.227 29.227 0 0 1 8.051-16.451 1.07 1.07 0 1 0-1.529-1.496A31.368 31.368 0 0 0 5.436 32.55H1.069C.48 32.55 0 33.029 0 33.62v5.76c0 .591.479 1.07 1.07 1.07h4.366C7.214 54.597 18.403 65.786 32.55 67.564v4.367c0 .59.479 1.069 1.07 1.069h5.76c.591 0 1.07-.479 1.07-1.07v-4.366c14.147-1.778 25.336-12.967 27.114-27.114h4.367c.59 0 1.069-.479 1.069-1.07v-5.76c0-.591-.479-1.07-1.07-1.07Zm-6.522 0h-3.66a25.634 25.634 0 0 0-7.179-14.12 25.634 25.634 0 0 0-14.12-7.179v-3.66c12.965 1.752 23.208 11.995 24.96 24.96ZM34.688 2.14h3.623V16.13H34.69V2.14Zm-32.55 32.55h13.993v3.622H2.139V34.69Zm5.454 5.76h3.66a25.634 25.634 0 0 0 7.179 14.12 25.634 25.634 0 0 0 14.12 7.18v3.66C19.585 63.656 9.342 53.413 7.59 40.448Zm30.72 30.412h-3.623V56.87h3.622V70.86Zm2.138-5.453v-3.66a25.557 25.557 0 0 0 14.742-7.823 1.07 1.07 0 0 0-1.565-1.459 23.422 23.422 0 0 1-13.177 7.115V55.8c0-.59-.479-1.069-1.07-1.069h-5.76c-.591 0-1.07.479-1.07 1.07v3.783A23.282 23.282 0 0 1 13.417 40.45H17.2c.59 0 1.07-.48 1.07-1.07v-5.76c0-.591-.48-1.07-1.07-1.07h-3.783A23.282 23.282 0 0 1 32.55 13.417V17.2c0 .59.479 1.07 1.07 1.07h5.76c.591 0 1.07-.48 1.07-1.07v-3.783A23.282 23.282 0 0 1 59.583 32.55H55.8c-.59 0-1.07.479-1.07 1.07v5.76c0 .591.48 1.07 1.07 1.07h3.783a23.114 23.114 0 0 1-3.056 8.19 1.07 1.07 0 0 0 1.828 1.11 25.237 25.237 0 0 0 3.393-9.3h3.66c-1.75 12.964-11.994 23.207-24.958 24.958ZM70.86 38.311H56.87V34.69h13.992v3.622Z" fill="#90A1AE"/><path d="M24.979 33.825c.167 0 .337-.04.496-.123l17.428-9.15.742 1.413c.206.392.76.415.997.04l2.847-4.505a.576.576 0 0 0-.464-.883l-5.324-.214a.576.576 0 0 0-.534.843l.742 1.413-17.428 9.15a1.07 1.07 0 0 0 .498 2.016ZM50.182 50.121h-1.09V29.875c0-.591-.48-1.07-1.07-1.07h-4.609c-.59 0-1.069.479-1.069 1.07V50.12h-2.47V35.348c0-.59-.479-1.07-1.07-1.07h-4.608c-.59 0-1.07.48-1.07 1.07V50.12h-2.47V39.668c0-.59-.479-1.069-1.07-1.069h-4.608c-.59 0-1.07.479-1.07 1.07V50.12h-1.09a1.07 1.07 0 0 0 0 2.139h27.365a1.07 1.07 0 1 0 0-2.139Zm-24.135 0v-9.383h2.47v9.383h-2.47Zm9.218 0V36.417h2.47v13.704h-2.47Zm9.218 0V30.944h2.47v19.177h-2.47Z" fill="#90A1AE"/></svg>