<svg width="31" height="40" fill="none" xmlns="http://www.w3.org/2000/svg"><path d="M29.706 40h-6.003a.586.586 0 1 1 0-1.172h5.417V1.172H16.215a.586.586 0 1 1 0-1.172h13.491c.324 0 .586.262.586.586v38.828a.586.586 0 0 1-.586.586ZM21.15 38.828H1.171V1.172H13.66a.586.586 0 1 0 0-1.172H.586A.586.586 0 0 0 0 .586v38.828c0 .324.262.586.586.586h20.563a.586.586 0 1 0 0-1.172Z" fill="#ACBDCE"/><path d="M27.28 14.465a.586.586 0 0 0 .586-.586V5.987c-.065-.69-.442-1.068-1.133-1.133-.789-.074-1.22-.506-1.294-1.295 0-.624-.508-1.132-1.133-1.132H5.986c-.69.064-1.068.442-1.133 1.132-.074.79-.505 1.22-1.294 1.295-.624 0-1.132.508-1.132 1.133v28.026c.064.691.442 1.069 1.134 1.133.712 0 1.292.58 1.292 1.293 0 .625.508 1.133 1.133 1.133h18.32c.625 0 1.133-.508 1.133-1.133 0-.713.58-1.293 1.294-1.293.624 0 1.133-.508 1.133-1.133v-17.58a.586.586 0 1 0-1.172 0v17.541a2.468 2.468 0 0 0-2.427 2.426H6.025a2.468 2.468 0 0 0-2.427-2.425V6.024a2.487 2.487 0 0 0 2.427-2.427h18.242a2.45 2.45 0 0 0 .722 1.705c.456.457 1.06.713 1.705.722v7.854c0 .324.262.586.586.586Z" fill="#ACBDCE"/><path d="M22.426 7.28H7.866a.586.586 0 1 0 0 1.172h14.56a.586.586 0 1 0 0-1.172ZM20 10.879a.586.586 0 1 0 0-1.172h-9.707a.586.586 0 1 0 0 1.172H20ZM15.146 32.637a.586.586 0 0 0 .586-.586v-.71a1.802 1.802 0 0 0 1.547-1.782c0-.992-.808-1.8-1.8-1.8h-.666a.628.628 0 0 1 0-1.255h.595c.228 0 .424.147.49.364a.586.586 0 1 0 1.122-.337 1.67 1.67 0 0 0-1.288-1.168v-.724a.586.586 0 1 0-1.172 0v.711a1.802 1.802 0 0 0-1.546 1.782c0 .992.807 1.8 1.799 1.8h.666a.628.628 0 0 1 0 1.254h-.751a.507.507 0 0 1-.49-.364.586.586 0 0 0-1.122.337 1.67 1.67 0 0 0 1.444 1.19v.702c0 .324.262.586.586.586ZM22.426 14.56H7.866a.586.586 0 1 0 0 1.172h14.56a.586.586 0 1 0 0-1.171ZM23.012 20.003a.586.586 0 0 0-.586-.586H7.866a.586.586 0 1 0 0 1.171h14.56a.586.586 0 0 0 .586-.585ZM22.426 16.88H7.866a.586.586 0 1 0 0 1.172h14.56a.586.586 0 1 0 0-1.172Z" fill="#ACBDCE"/></svg>