<svg width="39" height="33" fill="none" xmlns="http://www.w3.org/2000/svg"><path d="M35.875 17.5V1.875c0-.497-.203-.974-.563-1.325A1.949 1.949 0 0 0 33.953 0H1.922C1.412 0 .924.198.564.55.204.9 0 1.378 0 1.875v21.25c0 .497.203.974.564 1.325.36.352.848.55 1.358.55h12.172v3.75h-1.922a.648.648 0 0 0-.453.183.617.617 0 0 0-.188.442v2.5c0 .166.068.325.188.442.12.117.283.183.453.183h11.531c.17 0 .333-.066.453-.183a.617.617 0 0 0 .188-.442v-2.5a.617.617 0 0 0-.188-.442.648.648 0 0 0-.453-.183h-1.922V25h2.563v-1.25H1.922a.65.65 0 0 1-.453-.183.618.618 0 0 1-.188-.442V5h33.313v12.5h1.281ZM23.062 31.25h-10.25V30h10.25v1.25ZM17.297 25v1.25c0 .166.067.325.188.442a.648.648 0 0 0 .905 0 .617.617 0 0 0 .188-.442V25H20.5v3.75h-5.125V25h1.922ZM1.28 3.75V1.875c0-.166.068-.325.188-.442a.65.65 0 0 1 .453-.183h32.031a.65.65 0 0 1 .453.183c.12.117.188.276.188.442V3.75H1.28Z" fill="#fff"/><path d="M2.563 3.125c.353 0 .64-.28.64-.625a.633.633 0 0 0-.64-.625c-.354 0-.641.28-.641.625s.287.625.64.625ZM4.484 3.125c.354 0 .641-.28.641-.625a.633.633 0 0 0-.64-.625c-.354 0-.641.28-.641.625s.287.625.64.625ZM6.406 3.125c.354 0 .64-.28.64-.625a.633.633 0 0 0-.64-.625c-.354 0-.64.28-.64.625s.286.625.64.625ZM37.797 18.75H26.266a.649.649 0 0 0-.453.183.617.617 0 0 0-.188.442v12.5c0 .166.067.325.188.442.12.117.283.183.453.183h11.53c.17 0 .334-.066.454-.183a.617.617 0 0 0 .188-.442v-12.5a.617.617 0 0 0-.188-.442.649.649 0 0 0-.453-.183Zm-6.406 10V27.5h1.28v1.25h-1.28ZM32.67 30v1.25h-1.28V30h1.28Zm-5.765-2.5h3.203v1.25h-3.203V27.5Zm0-2.5h3.203v1.25h-3.203V25Zm4.485-5h1.28v3.75h-1.28V20Zm1.28 5v1.25h-1.28V25h1.28Zm1.282 0h3.203v1.25h-3.203V25Zm0 2.5h3.203v1.25h-3.203V27.5Zm3.203-3.75h-3.203V22.5h1.922v-1.25h-1.922V20h3.203v3.75ZM30.11 20v1.25h-1.922v1.25h1.922v1.25h-3.203V20h3.203Zm-3.203 10h3.203v1.25h-3.203V30Zm10.25 1.25h-3.203V30h3.203v1.25ZM3.203 8.75a.649.649 0 0 0-.453.183.617.617 0 0 0-.188.442v6.25c0 .166.068.325.188.442.12.117.283.183.453.183h2.563c.17 0 .332-.066.453-.183a.617.617 0 0 0 .187-.442v-6.25a.617.617 0 0 0-.187-.442.649.649 0 0 0-.453-.183H3.203ZM5.125 10v2.5H3.844V10h1.281Zm-1.281 5v-1.25h1.281V15H3.844ZM7.688 13.125a.649.649 0 0 0-.453.183.617.617 0 0 0-.188.442v3.75c0 .166.067.325.188.442.12.117.283.183.452.183h2.563c.17 0 .333-.066.453-.183a.617.617 0 0 0 .188-.442v-3.75a.617.617 0 0 0-.188-.442.65.65 0 0 0-.453-.183H7.687Zm1.921 3.75H8.33v-2.5h1.28v2.5ZM12.172 8.75a.649.649 0 0 0-.453.183.618.618 0 0 0-.188.442v6.875c0 .166.068.325.188.442.12.117.283.183.453.183h2.562c.17 0 .333-.066.453-.183a.617.617 0 0 0 .188-.442V9.375a.617.617 0 0 0-.188-.442.649.649 0 0 0-.453-.183h-2.562ZM14.094 10v3.125h-1.281V10h1.28Zm-1.281 5.625v-1.25h1.28v1.25h-1.28ZM16.656 13.125a.649.649 0 0 0-.453.183.617.617 0 0 0-.187.442v8.125c0 .166.067.325.187.442.12.117.283.183.453.183h2.563c.17 0 .333-.066.453-.183a.617.617 0 0 0 .187-.442V13.75a.617.617 0 0 0-.187-.442.649.649 0 0 0-.453-.183h-2.563Zm1.922 1.25v2.5h-1.281v-2.5h1.281Zm-1.281 6.875v-3.125h1.281v3.125h-1.281ZM21.14 11.25a.65.65 0 0 0-.452.183.617.617 0 0 0-.188.442v4.375c0 .166.067.325.188.442.12.117.283.183.453.183h2.562c.17 0 .333-.066.453-.183a.617.617 0 0 0 .188-.442v-4.375a.617.617 0 0 0-.188-.442.649.649 0 0 0-.453-.183h-2.562Zm1.922 4.375h-1.28V12.5h1.28v3.125ZM25.625 8.125a.649.649 0 0 0-.453.183.617.617 0 0 0-.188.442v5.625c0 .166.068.325.188.442a.65.65 0 0 0 .453.183h2.563a.65.65 0 0 0 .453-.183.617.617 0 0 0 .187-.442V8.75a.617.617 0 0 0-.188-.442.649.649 0 0 0-.453-.183h-2.562Zm1.922 1.25v1.875h-1.281V9.375h1.28Zm-1.281 4.375V12.5h1.28v1.25h-1.28ZM30.11 6.25a.649.649 0 0 0-.454.183.617.617 0 0 0-.187.442v5c0 .166.067.325.187.442.12.117.284.183.453.183h2.563a.65.65 0 0 0 .453-.183.617.617 0 0 0 .188-.442v-5a.617.617 0 0 0-.188-.442.649.649 0 0 0-.453-.183h-2.563Zm1.921 5H30.75V7.5h1.281v3.75Z" fill="#fff"/></svg>