<svg width="39" height="39" fill="none" xmlns="http://www.w3.org/2000/svg"><path d="M8.125 23.75V25a1.877 1.877 0 0 0-1.875 1.875c0 1.034.841 1.875 1.875 1.875h1.25a.626.626 0 0 1 0 1.25H7.5v-.625H6.25v1.875h1.875v1.25h1.25v-1.25a1.877 1.877 0 0 0 1.875-1.875A1.877 1.877 0 0 0 9.375 27.5h-1.25a.626.626 0 0 1 0-1.25H10v.625h1.25V25H9.375v-1.25h-1.25Z" fill="#ACBDCE"/><path d="M36.875 30H32.5v-5.657c3.499-.317 6.25-3.263 6.25-6.843s-2.751-6.526-6.25-6.843V3.125A3.129 3.129 0 0 0 29.375 0h-22.5A3.129 3.129 0 0 0 3.75 3.125v16.652A10.72 10.72 0 0 1 1.623 20H0v4.736a16.265 16.265 0 0 0 7.259 13.562 2.682 2.682 0 0 0 2.983 0A16.059 16.059 0 0 0 12.5 36.47v.406c0 1.034.841 1.875 1.875 1.875h10c.482 0 .918-.188 1.25-.487.332.3.768.487 1.25.487h10a1.877 1.877 0 0 0 1.875-1.875v-1.25c0-.482-.188-.917-.487-1.25.3-.333.487-.768.487-1.25v-1.25A1.877 1.877 0 0 0 36.875 30Zm.625 1.875v1.25c0 .345-.28.625-.625.625h-10a.626.626 0 0 1-.625-.625v-1.25c0-.345.28-.625.625-.625h.625v1.25h1.25v-1.25H30v1.25h1.25v-1.25h1.25v1.25h1.25v-1.25H35v1.25h1.25v-1.25h.625c.344 0 .625.28.625.625ZM14.375 33.75a.626.626 0 0 1-.625-.625v-1.25c0-.345.28-.625.625-.625H15v1.25h1.25v-1.25h1.25v1.25h1.25v-1.25H20v1.25h1.25v-1.25h1.25v1.25h1.25v-1.25h.625c.344 0 .625.28.625.625v1.25c0 .345-.28.625-.625.625h-10ZM15.877 20c-2.439 0-4.831-.84-6.737-2.363l-.39-.312-.39.312c-.276.22-.565.422-.86.614V7.5h21.25v3.884c-.446.229-.867.5-1.25.817V8.75H8.75v7.5h16.37c-.076.406-.12.823-.12 1.25a6.878 6.878 0 0 0 3.75 6.116V30h-1.875a1.85 1.85 0 0 0-.824.2c.123-.25.199-.528.199-.825v-1.25a1.877 1.877 0 0 0-1.875-1.875h-6.958c.05-.513.083-1.021.083-1.514V20h-1.623Zm9.6-5H17.5v-5h8.75v3.56a6.866 6.866 0 0 0-.773 1.44ZM10 15v-5h6.25v5H10Zm6.25 13.75V27.5h1.25v1.25h1.25V27.5H20v1.25h1.25V27.5h1.25v1.25h1.25V27.5h.625c.344 0 .625.28.625.625v1.25c0 .345-.28.625-.625.625h-10a.626.626 0 0 1-.625-.625v-1.25c0-.345.28-.625.625-.625H15v1.25h1.25Zm-2.5-4.014c0 .545-.049 1.108-.126 1.673-.66.29-1.124.95-1.124 1.716v1.25c0 .206.042.402.104.587a12.524 12.524 0 0 1-3.854 4.8 12.556 12.556 0 0 1-5-10.026v-1.144a14.72 14.72 0 0 0 5-1.711 14.72 14.72 0 0 0 5 1.71v1.145ZM30 30v-5.891c.403.114.82.195 1.25.235V30H30Zm7.5-12.5a5.631 5.631 0 0 1-5.625 5.625A5.631 5.631 0 0 1 26.25 17.5a5.631 5.631 0 0 1 5.625-5.625A5.631 5.631 0 0 1 37.5 17.5ZM6.875 1.25h22.5c1.034 0 1.875.841 1.875 1.875v.625H5v-.625c0-1.034.841-1.875 1.875-1.875ZM5 5h26.25v5.657c-.43.039-.847.12-1.25.235V7.5c0-.69-.56-1.25-1.25-1.25H7.5c-.69 0-1.25.56-1.25 1.25v11.446c-.406.193-.823.36-1.25.502V5Zm4.549 32.258a1.462 1.462 0 0 1-1.597 0A15.018 15.018 0 0 1 1.25 24.736V21.25h.373c2.558 0 5.07-.827 7.127-2.337a12.083 12.083 0 0 0 7.127 2.337h.373v3.486c0 .49-.036 1-.089 1.514h-1.257c.057-.51.096-1.018.096-1.514v-2.253l-.557-.062a13.424 13.424 0 0 1-5.373-1.8l-.32-.19-.32.19a13.428 13.428 0 0 1-5.373 1.8l-.557.062v2.253c0 4.504 2.202 8.732 5.892 11.31l.358.25.358-.25a13.777 13.777 0 0 0 3.392-3.391v.47c0 .41.136.786.36 1.096a14.959 14.959 0 0 1-3.311 3.037Zm14.826.242h-10a.626.626 0 0 1-.625-.625v-1.25c0-.345.28-.625.625-.625H15v1.25h1.25V35h1.25v1.25h1.25V35H20v1.25h1.25V35h1.25v1.25h1.25V35h.625c.344 0 .625.28.625.625v1.25c0 .345-.28.625-.625.625Zm13.125-.625c0 .345-.28.625-.625.625h-10a.626.626 0 0 1-.625-.625v-1.25c0-.345.28-.625.625-.625h.625v1.25h1.25V35H30v1.25h1.25V35h1.25v1.25h1.25V35H35v1.25h1.25V35h.625c.344 0 .625.28.625.625v1.25Z" fill="#ACBDCE"/><path d="M27.5 17.5a4.38 4.38 0 0 0 4.375 4.375A4.38 4.38 0 0 0 36.25 17.5a4.38 4.38 0 0 0-4.375-4.375A4.38 4.38 0 0 0 27.5 17.5Zm4.375.625a.626.626 0 1 1 .001-1.251.626.626 0 0 1-.001 1.251Zm-.625-3.687v1.302c-.53.189-.946.606-1.135 1.135h-1.302a3.135 3.135 0 0 1 2.437-2.437Zm-2.437 3.687h1.302c.189.53.606.946 1.135 1.135v1.302a3.135 3.135 0 0 1-2.437-2.437Zm3.687 2.437V19.26c.53-.189.946-.606 1.135-1.135h1.302a3.135 3.135 0 0 1-2.437 2.437Zm2.437-3.687h-1.302A1.873 1.873 0 0 0 32.5 15.74v-1.302a3.135 3.135 0 0 1 2.437 2.437Z" fill="#ACBDCE"/></svg>