<svg width="73" height="73" fill="none" xmlns="http://www.w3.org/2000/svg"><path d="M69.364 0H3.636A3.64 3.64 0 0 0 0 3.636v49.44a3.64 3.64 0 0 0 3.636 3.636H25.13l-2.17 6.842H19.16a4.728 4.728 0 0 0-4.723 4.723v2.918c0 .995.81 1.805 1.804 1.805h40.514c.995 0 1.804-.81 1.804-1.805v-2.918a4.728 4.728 0 0 0-4.723-4.723H50.04l-2.174-6.842h21.498A3.64 3.64 0 0 0 73 53.077V3.636A3.64 3.64 0 0 0 69.364 0ZM47.795 63.554H38.66a1.07 1.07 0 1 0 0 2.139h15.176a2.587 2.587 0 0 1 2.585 2.584v2.584H16.575v-2.584a2.587 2.587 0 0 1 2.585-2.584h14.565a1.07 1.07 0 1 0 0-2.139h-8.521l2.17-6.842h18.248l2.173 6.842Zm21.57-8.98H3.634a1.499 1.499 0 0 1-1.496-1.497v-3.781h31.586a1.07 1.07 0 1 0 0-2.139H2.14V3.636c0-.826.671-1.497 1.497-1.497h65.728c.826 0 1.497.671 1.497 1.497v43.521h-32.2a1.07 1.07 0 1 0 0 2.139h32.2v3.78c0 .826-.671 1.498-1.497 1.498Z" fill="#90A1AE"/><path d="M21.973 8.685c-8.813 0-15.983 7.17-15.983 15.983 0 8.811 7.17 15.979 15.982 15.979 8.811 0 15.98-7.168 15.98-15.979 0-8.813-7.169-15.983-15.98-15.983ZM34.31 25.71h1.462a13.78 13.78 0 0 1-3.279 7.94l-1.04-1.04a1.07 1.07 0 0 0-1.512 1.513l1.042 1.042a13.782 13.782 0 0 1-7.942 3.303V36.98a1.07 1.07 0 1 0-2.139 0v1.488a13.788 13.788 0 0 1-7.945-3.303l1.044-1.042a1.07 1.07 0 0 0-1.51-1.513l-1.044 1.04a13.778 13.778 0 0 1-3.28-7.94h1.466a1.07 1.07 0 1 0 0-2.139H8.172a13.786 13.786 0 0 1 3.301-7.915l1.018 1.016a1.066 1.066 0 0 0 1.513-.002 1.069 1.069 0 0 0-.002-1.512l-1.014-1.012a13.784 13.784 0 0 1 7.915-3.28V12.3a1.07 1.07 0 1 0 2.14 0v-1.436a13.777 13.777 0 0 1 7.911 3.28l-1.015 1.012a1.07 1.07 0 1 0 1.51 1.514l1.02-1.016a13.788 13.788 0 0 1 3.3 7.916h-1.458a1.07 1.07 0 1 0 0 2.138Z" fill="#90A1AE"/><path d="M28.116 23.57h-2.779a3.537 3.537 0 0 0-3.741-2.44l-2.444-5.862a1.07 1.07 0 0 0-1.974.823l2.46 5.901a3.521 3.521 0 0 0-1.2 2.648 3.537 3.537 0 0 0 3.535 3.53 3.537 3.537 0 0 0 3.364-2.46h2.779a1.07 1.07 0 1 0 0-2.14Zm-6.143 2.462c-.77 0-1.397-.625-1.397-1.392a1.394 1.394 0 0 1 2.788 0c0 .767-.624 1.392-1.392 1.392ZM42.896 31.028h22.277a1.84 1.84 0 0 0 1.837-1.837V7.827a1.841 1.841 0 0 0-1.837-1.841H42.896a1.843 1.843 0 0 0-1.842 1.841v21.364c0 1.013.826 1.837 1.842 1.837Zm21.975-9.773h-5.798v-5.496h5.798v5.496Zm-13.74-5.496h5.803v5.496H51.13v-5.496Zm0 7.634h5.803v5.496H51.13v-5.496Zm5.803-9.773H51.13V8.124h5.803v5.496Zm-7.942 7.635h-5.799v-5.496h5.8v5.496Zm-5.799 2.138h5.8v5.496h-5.8v-5.496Zm15.88 5.496v-5.496h5.798v5.496h-5.798ZM64.87 13.62h-5.798V8.124h5.798v5.496ZM48.992 8.124v5.496h-5.799V8.124h5.8ZM42.868 43.347h22.33c.999 0 1.812-.814 1.812-1.813v-3.908c0-1-.813-1.813-1.813-1.813h-22.33c-1 0-1.813.813-1.813 1.813v3.908c0 1 .814 1.813 1.814 1.813Zm.325-5.396h21.678v3.257H43.194v-3.257Z" fill="#90A1AE"/></svg>