<svg width="39" height="39" fill="none" xmlns="http://www.w3.org/2000/svg"><path d="M39 19.5C39 8.748 30.252 0 19.5 0c-3.371 0-6.655.873-9.567 2.516H7.548V0H3.774v7.98A19.324 19.324 0 0 0 0 19.5C0 30.253 8.748 39 19.5 39c2.396 0 4.735-.43 6.952-1.278A8.12 8.12 0 0 0 30.822 39a8.178 8.178 0 0 0 5.342-1.985l-.822-.953a6.918 6.918 0 0 1-4.52 1.68 6.927 6.927 0 0 1-6.919-6.92 6.928 6.928 0 0 1 6.92-6.919 6.927 6.927 0 0 1 6.919 6.92 6.845 6.845 0 0 1-1.525 4.334l.98.789A8.205 8.205 0 0 0 39 30.823c0-1.61-.474-3.107-1.279-4.373A19.424 19.424 0 0 0 39 19.5ZM10.065 6.29h1.258v8.807h-1.258V6.29ZM7.548 3.774h1.258v11.323H7.548V3.774ZM5.032 1.258H6.29v13.839H5.032V1.258Zm13.839 36.468C9.312 37.4 1.601 29.688 1.274 20.13H18.87v17.597Zm0-18.855H1.283a18.026 18.026 0 0 1 2.491-8.597v6.08h13.839v-6.29h-2.516V7.549H12.58V5.032h-2.516V3.895A18.164 18.164 0 0 1 18.87 1.28v17.591Zm-6.29-3.774v-6.29h1.258v6.29H12.58Zm2.516 0v-3.774h1.258v3.774h-1.258Zm22.63 3.774H32.34l4.626-4.626c.444 1.473.705 3.023.76 4.626Zm-3.17-9.656-7.026 7.026.89.89 6.824-6.826c.488.833.912 1.708 1.265 2.618l-5.948 5.948H26.68l.813-.813-.89-.89-1.702 1.703h-3.883l11.81-11.809a18.453 18.453 0 0 1 1.728 2.153ZM20.128 1.274c1.603.055 3.153.315 4.626.759l-4.626 4.626V1.274Zm0 12.825 7.645-7.644-.89-.89-6.755 6.755V8.438l5.948-5.948c.91.353 1.785.776 2.618 1.265L27.68 4.768l.89.89 1.214-1.215a18.4 18.4 0 0 1 2.153 1.73L20.129 17.982v-3.883Zm10.694 8.546c-4.51 0-8.178 3.669-8.178 8.178a8.147 8.147 0 0 0 2.627 5.987 18.132 18.132 0 0 1-5.143.917V20.13h17.598a18.15 18.15 0 0 1-.919 5.141 8.146 8.146 0 0 0-5.985-2.625Z" fill="#ACBDCE"/><path d="m15.284 22.83-7.549 7.548.89.89 7.548-7.55-.89-.889ZM14.468 27.677a1.89 1.89 0 0 0-1.887 1.887 1.89 1.89 0 0 0 1.887 1.888 1.89 1.89 0 0 0 1.887-1.888 1.89 1.89 0 0 0-1.887-1.887Zm0 2.517a.63.63 0 1 1 .001-1.26.63.63 0 0 1-.001 1.26ZM9.435 22.645a1.89 1.89 0 0 0-1.887 1.887 1.89 1.89 0 0 0 1.887 1.887 1.89 1.89 0 0 0 1.888-1.887 1.89 1.89 0 0 0-1.888-1.887Zm0 2.516a.63.63 0 1 1 .002-1.259.63.63 0 0 1-.002 1.26ZM30.823 30.194a1.26 1.26 0 0 1-1.259-1.258 1.26 1.26 0 0 1 1.259-1.259 1.26 1.26 0 0 1 1.258 1.259h1.258c0-1.17-.806-2.146-1.887-2.427V25.16h-1.259v1.348a2.513 2.513 0 0 0-1.887 2.427 2.519 2.519 0 0 0 2.517 2.516 1.26 1.26 0 0 1 0 2.516 1.26 1.26 0 0 1-1.259-1.258h-1.258c0 1.17.806 2.145 1.887 2.426v1.348h1.259v-1.348a2.513 2.513 0 0 0 1.887-2.426 2.519 2.519 0 0 0-2.516-2.516ZM36.484 30.194h-1.258v1.258h1.258v-1.258ZM26.42 30.194H25.16v1.258h1.258v-1.258Z" fill="#ACBDCE"/></svg>