<svg width="71" height="71" fill="none" xmlns="http://www.w3.org/2000/svg"><path d="M54.968 29.774c-2.795 0-5.463.709-7.801 2.01l-1.97-3.014c3.841-2.932 6.335-7.543 6.335-12.738C51.532 7.192 44.341 0 35.5 0c-8.84 0-16.032 7.192-16.032 16.032 0 5.126 2.39 9.782 6.322 12.76l-1.962 3a16.026 16.026 0 0 0-7.796-2.018C7.192 29.774 0 36.966 0 45.806 0 54.647 7.192 61.84 16.032 61.84c3.003 0 5.88-.82 8.401-2.378a9.155 9.155 0 0 0 2.446 2.782l1.75 1.313V71h20.613V60.778c1.82.694 3.768 1.06 5.726 1.06 8.84 0 16.032-7.19 16.032-16.032 0-8.84-7.192-16.032-16.032-16.032ZM68.71 45.806c0 2.692-.79 5.196-2.131 7.318a12.957 12.957 0 0 0-7.294-6.56 6.858 6.858 0 0 0 2.554-5.338 6.878 6.878 0 0 0-6.871-6.871c-3.346 0-6.138 2.406-6.745 5.578a3.42 3.42 0 0 0-2.417-.998c-.452 0-.881.093-1.277.252a3.4 3.4 0 0 0-.724-1.35c2.58-3.62 6.673-5.773 11.163-5.773 7.577 0 13.742 6.165 13.742 13.742Zm-19.468-.79c.387.583.86 1.104 1.403 1.544-.478.17-.947.364-1.403.59v-2.134Zm5.726.79a4.585 4.585 0 0 1-4.58-4.58h9.16a4.585 4.585 0 0 1-4.58 4.58Zm-3.944-6.87c.794-1.363 2.256-2.29 3.944-2.29 1.688 0 3.149.927 3.944 2.29h-7.888Zm3.944 9.16c.773 0 1.53.094 2.264.256a2.284 2.284 0 0 1-2.264 2.035 2.286 2.286 0 0 1-2.263-2.018c.74-.161 1.49-.272 2.263-.272Zm-9.714-15.053a16.055 16.055 0 0 0-3.478 3.658 3.347 3.347 0 0 0-.55-.056c-.453 0-.882.093-1.278.252a3.43 3.43 0 0 0-3.303-2.542c-.403 0-.785.082-1.145.21v-2.5c2.826 0 5.48-.741 7.787-2.03l1.968 3.007ZM35.5 29.773c-.072 0-.142-.007-.213-.008a3.432 3.432 0 0 0-3.222-2.282 3.42 3.42 0 0 0-2.403.986 13.74 13.74 0 0 1-4.166-3.003 10.612 10.612 0 0 1 5.541-6.143 4.583 4.583 0 0 0 4.463 3.58 4.584 4.584 0 0 0 4.463-3.58 10.613 10.613 0 0 1 5.53 6.111c-2.507 2.664-6.055 4.34-9.993 4.34Zm-4.58-18.322h9.16a4.585 4.585 0 0 1-4.58 4.58 4.585 4.585 0 0 1-4.58-4.58Zm.636-2.29c.795-1.363 2.256-2.291 3.944-2.291 1.688 0 3.15.928 3.944 2.29h-7.888Zm3.944 9.16c.773 0 1.53.093 2.264.256a2.284 2.284 0 0 1-2.264 2.035 2.284 2.284 0 0 1-2.264-2.035 10.452 10.452 0 0 1 2.264-.255Zm0-16.032c7.578 0 13.742 6.165 13.742 13.742 0 2.691-.79 5.196-2.131 7.318a12.957 12.957 0 0 0-7.294-6.56 6.859 6.859 0 0 0 2.554-5.338c0-3.79-3.082-6.871-6.871-6.871a6.878 6.878 0 0 0-6.871 6.87c0 2.155.997 4.079 2.554 5.338a12.959 12.959 0 0 0-7.308 6.585 13.72 13.72 0 0 1-2.117-7.342c0-7.577 6.165-13.742 13.742-13.742Zm-7.792 27.75c.314.173.633.339.96.493-.015.129-.039.255-.039.386v4.974a15.974 15.974 0 0 0-2.885-2.848l1.964-3.005Zm-11.676 2.025A13.709 13.709 0 0 1 28.63 40.32v1.343l-3.628 1.814a5.825 5.825 0 0 0-3.048 3.772 12.81 12.81 0 0 0-1.597-.689 6.862 6.862 0 0 0 2.547-5.334 6.878 6.878 0 0 0-6.87-6.871 6.878 6.878 0 0 0-6.872 6.87c0 2.155.998 4.079 2.554 5.338a12.953 12.953 0 0 0-7.294 6.56 13.636 13.636 0 0 1-2.13-7.317c0-7.577 6.164-13.741 13.741-13.741Zm-4.58 9.16h9.16a4.585 4.585 0 0 1-4.58 4.581 4.585 4.585 0 0 1-4.58-4.58Zm.636-2.29c.795-1.362 2.256-2.29 3.944-2.29 1.688 0 3.15.928 3.944 2.29h-7.888Zm3.944 9.162c.771 0 1.528.088 2.265.248a2.285 2.285 0 0 1-2.265 2.042 2.284 2.284 0 0 1-2.264-2.035 10.457 10.457 0 0 1 2.264-.255Zm0 11.451c-3.938 0-7.486-1.675-9.994-4.339a10.613 10.613 0 0 1 5.532-6.11 4.584 4.584 0 0 0 4.462 3.578 4.583 4.583 0 0 0 4.465-3.586c.476.222.936.48 1.379.775.01.044.013.087.022.13l1.534 6.907c.031.136.072.27.11.404a13.617 13.617 0 0 1-7.51 2.241Zm30.92 9.162H30.919v-5.017c4.967-2.426 11.065-2.426 16.033 0v5.017Zm0-7.533c-5.4-2.282-11.789-2.1-17.048.473l-1.65-1.238a6.871 6.871 0 0 1-2.585-4.006L24.134 49.5a3.556 3.556 0 0 1 1.89-3.973l2.605-1.302v2.457a2.983 2.983 0 0 1-1.657 2.682l1.025 2.049a5.265 5.265 0 0 0 2.922-4.73V30.918a1.146 1.146 0 0 1 2.29 0v18.323H35.5V37.79a1.146 1.146 0 0 1 2.29 0v11.452h2.29V40.08a1.146 1.146 0 0 1 2.291 0v9.16h2.29v-6.87a1.146 1.146 0 0 1 2.29 0v18.806Zm8.016-1.629c-1.98 0-3.939-.453-5.726-1.273v-8.463c.409-.264.828-.505 1.264-.709.462 2.042 2.282 3.574 4.462 3.574A4.584 4.584 0 0 0 59.43 49.1a10.613 10.613 0 0 1 5.532 6.11c-2.508 2.664-6.056 4.34-9.994 4.34Z" fill="#90A1AE"/></svg>