<svg width="29" height="40" fill="none" xmlns="http://www.w3.org/2000/svg"><path d="M4.368 14.046a3.522 3.522 0 0 0-.883 2.335 3.542 3.542 0 0 0 3.537 3.538h.164a7.414 7.414 0 0 0 3.003 4.863l-.787.82a1.369 1.369 0 0 0-.094.109H4.89c-2.694 0-4.887 2.184-4.89 4.872v1.543a.586.586 0 0 0 1.172 0v-1.542a3.717 3.717 0 0 1 3.719-3.702h4.168l.828 4.419a.94.94 0 0 0 .931.773.942.942 0 0 0 .562-.187l.701-.52 1.649 2.13-2.118 5.331H6.505v-4.204a.586.586 0 0 0-1.172 0v4.204H1.367a.196.196 0 0 1-.195-.195V34.68a.586.586 0 0 0-1.172 0v3.953C0 39.386.613 40 1.367 40H27.43c.754 0 1.367-.614 1.367-1.367V30.62c.003-2.703-2.182-4.904-4.873-4.908h-.276a.586.586 0 1 0 0 1.172h.275c2.044.003 3.705 1.678 3.702 3.735v8.014a.196.196 0 0 1-.195.195h-3.966v-4.204a.586.586 0 0 0-1.172 0v4.204h-5.107l-2.118-5.33 1.645-2.125.708.52a.942.942 0 0 0 .907.117.941.941 0 0 0 .582-.706l.828-4.42h1.354a.586.586 0 1 0 0-1.172h-1.597a1.393 1.393 0 0 0-.088-.104l-.785-.835a7.421 7.421 0 0 0 2.285-2.671h1.136a2.39 2.39 0 0 0 2.387-2.387v-1.029c.533-.62.857-1.425.857-2.305 0-.88-.324-1.685-.857-2.305V10.03c0-5.53-4.5-10.03-10.03-10.03-5.53 0-10.03 4.5-10.03 10.03v4.016ZM18.601 26.58l-.778 4.155-2.597-1.907 2.607-3.182.718.764a.196.196 0 0 1 .05.17Zm3.44-5.65h-.664c.1-.328.178-.666.233-1.011h.137c.54 0 1.051-.122 1.509-.339v.135c0 .67-.545 1.215-1.215 1.215Zm2.072-4.549a2.369 2.369 0 0 1-2.366 2.366h-.044v-4.732h.044a2.368 2.368 0 0 1 2.366 2.366Zm-9.715-15.21c3.79 0 7.03 2.394 8.293 5.747a10.017 10.017 0 0 0-6.955-4.314.586.586 0 0 0-.155 1.162c4.375.583 7.675 4.358 7.675 8.78v.636a3.517 3.517 0 0 0-1.509-.339h-.14a7.423 7.423 0 0 0-.358-1.381.586.586 0 0 0-.531-.384c-2.485-.082-7.056-.59-9.76-3.066a.586.586 0 0 0-.734-.047 7.417 7.417 0 0 0-3.035 4.878h-.167c-.529 0-1.03.118-1.482.327v-.625c0-2.154.782-4.23 2.203-5.846a8.849 8.849 0 0 1 5.441-2.93.586.586 0 1 0-.159-1.16 10.021 10.021 0 0 0-6.908 4.278c1.27-3.337 4.503-5.715 8.28-5.715ZM7.022 18.748a2.369 2.369 0 0 1-2.366-2.366 2.369 2.369 0 0 1 2.366-2.366h.071v4.732h-.07Zm1.243-.003v-4.712c0-1.882.842-3.657 2.274-4.834 1.621 1.325 4.562 2.795 9.731 3.035.173.58.26 1.184.26 1.799v4.712a6.27 6.27 0 0 1-.391 2.186h-5.726a.586.586 0 1 0 0 1.172h5.143c-1.092 1.72-2.995 2.862-5.158 2.862-3.382 0-6.133-2.79-6.133-6.22Zm6.133 7.392c.578 0 1.141-.069 1.68-.198l-1.692 2.067-1.66-2.065a7.222 7.222 0 0 0 1.672.196Zm-3.425 4.595-.777-4.146a.196.196 0 0 1 .051-.172l.738-.768 2.558 3.182-2.57 1.904Zm3.41-1.068 1.383 1.016-1.368 1.767-1.375-1.776 1.36-1.007Zm.015 5.327 1.525 3.838h-3.05l1.525-3.838Z" fill="#ACBDCE"/></svg>