<svg width="69" height="69" fill="none" xmlns="http://www.w3.org/2000/svg"><path d="M33.47 62.123h2.291v2.292H33.47v-2.292ZM53.245 54.877l1.62-1.621 1.621 1.62-1.62 1.622-1.621-1.621ZM62.123 33.468h2.292v2.293h-2.292v-2.293Z" fill="#90A1AE"/><path d="M67.854 26.591h-8.126a25.85 25.85 0 0 0-1.68-4.06l5.744-5.744a1.146 1.146 0 0 0 0-1.621l-4.863-4.862a34.384 34.384 0 1 0-48.627 48.624l4.862 4.864a1.146 1.146 0 0 0 1.62 0l5.745-5.744a25.857 25.857 0 0 0 4.063 1.678v8.128A1.147 1.147 0 0 0 27.738 69h13.754a1.147 1.147 0 0 0 1.146-1.146v-8.127a25.853 25.853 0 0 0 4.06-1.678l5.745 5.744a1.146 1.146 0 0 0 1.62 0l9.725-9.725a1.146 1.146 0 0 0 0-1.621l-5.743-5.745a25.856 25.856 0 0 0 1.681-4.064h8.128A1.146 1.146 0 0 0 69 41.492V27.736a1.147 1.147 0 0 0-1.146-1.146ZM11.92 11.92a32.08 32.08 0 0 1 44.556-.791l-1.618 1.619a29.8 29.8 0 0 0-42.11 42.11l-1.619 1.619a32.081 32.081 0 0 1 .791-44.557Zm32.42 12.969a13.754 13.754 0 0 1-19.45 19.45 1.146 1.146 0 0 0-1.622 0l-8.898 8.9a27.509 27.509 0 0 1 38.868-38.87l-8.899 8.898a1.145 1.145 0 0 0 0 1.622Zm22.367 15.456h-7.835a1.147 1.147 0 0 0-1.105.84 23.493 23.493 0 0 1-2.133 5.157 1.146 1.146 0 0 0 .19 1.376l5.535 5.536-8.104 8.103-5.536-5.535a1.146 1.146 0 0 0-1.375-.19 23.487 23.487 0 0 1-5.158 2.133 1.145 1.145 0 0 0-.839 1.105v7.838H28.885v-7.836a1.146 1.146 0 0 0-.84-1.105 23.487 23.487 0 0 1-5.157-2.133 1.146 1.146 0 0 0-1.376.19l-5.536 5.535-3.24-3.24L24.11 46.742a16.046 16.046 0 0 0 22.633-22.636l11.374-11.376 3.242 3.242-5.535 5.536a1.147 1.147 0 0 0-.19 1.375 23.471 23.471 0 0 1 2.133 5.158 1.146 1.146 0 0 0 1.105.84h7.835v11.463Z" fill="#90A1AE"/><path d="M35.761 30.192v-12.77a1.146 1.146 0 1 0-2.292 0v12.77a4.585 4.585 0 0 0-3.276 3.276h-8.186a1.146 1.146 0 0 0 0 2.293h8.186a4.576 4.576 0 1 0 5.568-5.569Zm-1.146 6.715a2.292 2.292 0 1 1 0-4.585 2.292 2.292 0 0 1 0 4.585ZM34.615 12.837a1.146 1.146 0 0 1-1.146-1.146V9.398a1.146 1.146 0 0 1 2.292 0v2.293a1.146 1.146 0 0 1-1.146 1.146ZM46.077 15.909a1.145 1.145 0 0 1-.992-1.72l1.147-1.986a1.146 1.146 0 0 1 1.985 1.146l-1.146 1.986a1.146 1.146 0 0 1-.994.574ZM23.154 15.909a1.146 1.146 0 0 1-.994-.574l-1.146-1.986a1.146 1.146 0 0 1 1.985-1.146l1.146 1.986a1.147 1.147 0 0 1-.991 1.72ZM14.763 24.299c-.202 0-.4-.053-.573-.154L12.203 23a1.146 1.146 0 0 1 1.146-1.985l1.987 1.146a1.146 1.146 0 0 1-.573 2.139ZM11.692 35.76H9.4a1.146 1.146 0 0 1 0-2.292h2.292a1.146 1.146 0 0 1 0 2.293ZM12.779 48.369a1.146 1.146 0 0 1-.573-2.14l1.986-1.145a1.146 1.146 0 1 1 1.146 1.985l-1.986 1.146a1.136 1.136 0 0 1-.573.154Z" fill="#90A1AE"/><path d="M34.615 46.076a11.363 11.363 0 0 1-8.1-3.363 1.147 1.147 0 1 1 1.622-1.618 9.164 9.164 0 1 0 12.959-12.959 1.146 1.146 0 1 1 1.618-1.623 11.462 11.462 0 0 1-8.099 19.563Z" fill="#90A1AE"/></svg>