<svg width="23" height="23" fill="none" xmlns="http://www.w3.org/2000/svg"><g clip-path="url(#a)"><path d="M11.5 23C17.851 23 23 17.851 23 11.5S17.851 0 11.5 0 0 5.149 0 11.5 5.149 23 11.5 23Z" fill="#F0F0F0"/><path d="M22.285 15.5c.462-1.246.715-2.593.715-4s-.253-2.754-.715-4H.715a11.475 11.475 0 0 0-.715 4c0 1.407.253 2.754.715 4l10.785 1 10.785-1Z" fill="#0052B4"/><path d="M11.5 23c4.945 0 9.16-3.12 10.785-7.5H.715C2.34 19.88 6.555 23 11.5 23Z" fill="#D80027"/></g><defs><clipPath id="a"><path fill="#fff" d="M0 0h23v23H0z"/></clipPath></defs></svg>