<svg width="54" height="50" fill="none" xmlns="http://www.w3.org/2000/svg"><path d="M24.3 5.357h5.4c.497 0 .9-.4.9-.893a.896.896 0 0 0-.9-.893h-5.4c-.497 0-.9.4-.9.893s.403.893.9.893ZM39.6 5.357h9.9c.497 0 .9-.4.9-.893a.896.896 0 0 0-.9-.893h-9.9c-.497 0-.9.4-.9.893s.403.893.9.893Z" fill="#90A1AE"/><path d="M49.5 0h-45C2.016.003.003 2 0 4.464v41.072C.003 48 2.016 49.997 4.5 50h45c2.484-.003 4.497-2 4.5-4.464V4.464C53.997 2 51.984.003 49.5 0Zm-45 1.786h45c1.491 0 2.7 1.199 2.7 2.678v2.679H1.8V4.464a2.69 2.69 0 0 1 2.7-2.678Zm45 46.428h-45a2.69 2.69 0 0 1-2.7-2.678V8.929h50.4v36.607a2.69 2.69 0 0 1-2.7 2.678Z" fill="#90A1AE"/><path d="M4.5 5.357c.497 0 .9-.4.9-.893a.896.896 0 0 0-.9-.893c-.497 0-.9.4-.9.893s.403.893.9.893ZM8.1 5.357c.497 0 .9-.4.9-.893a.896.896 0 0 0-.9-.893c-.497 0-.9.4-.9.893s.403.893.9.893ZM11.7 5.357c.497 0 .9-.4.9-.893a.896.896 0 0 0-.9-.893c-.497 0-.9.4-.9.893s.403.893.9.893ZM34.2 30.357a6.31 6.31 0 0 0-5.457 3.141 3.517 3.517 0 0 0-3.486 0c-1.66-2.872-5.275-3.984-8.282-2.547-3.007 1.436-4.384 4.933-3.156 8.011 1.228 3.079 4.644 4.693 7.828 3.7 3.183-.995 5.052-4.26 4.281-7.48a1.918 1.918 0 0 1 2.144 0 6.228 6.228 0 0 0 2.76 6.703 6.34 6.34 0 0 0 7.29-.382 6.22 6.22 0 0 0 2.032-6.956 6.297 6.297 0 0 0-5.954-4.19ZM19.8 41.071c-2.485 0-4.5-1.998-4.5-4.464 0-2.465 2.015-4.464 4.5-4.464s4.5 1.999 4.5 4.464c-.003 2.465-2.016 4.462-4.5 4.464Zm14.4 0c-2.485 0-4.5-1.998-4.5-4.464 0-2.465 2.015-4.464 4.5-4.464s4.5 1.999 4.5 4.464c-.003 2.465-2.016 4.462-4.5 4.464ZM37.518 23.072l-2.475-7.983a3.587 3.587 0 0 0-1.928-2.19 3.633 3.633 0 0 0-2.932-.047l-2.482 1.057a1.75 1.75 0 0 1-1.406 0l-2.48-1.06a3.634 3.634 0 0 0-2.93.046 3.587 3.587 0 0 0-1.93 2.19l-2.474 7.987a15.592 15.592 0 0 0-6.66 4.018.887.887 0 0 0-.142.96.9.9 0 0 0 .824.521h32.994a.9.9 0 0 0 .82-.523.887.887 0 0 0-.141-.956 15.593 15.593 0 0 0-6.658-4.02Zm-16.84-7.462c.152-.484.502-.881.965-1.095a1.82 1.82 0 0 1 1.465-.025l2.468 1.05a3.563 3.563 0 0 0 2.84 0l2.473-1.053a1.822 1.822 0 0 1 1.465.025c.463.214.813.611.965 1.095l2.121 6.845a35.224 35.224 0 0 0-16.886 0l2.124-6.842ZM12.87 26.786c3.164-2.212 8.409-3.572 14.13-3.572a31.631 31.631 0 0 1 9.591 1.415 17.316 17.316 0 0 1 4.539 2.157H12.87Z" fill="#90A1AE"/></svg>