<svg width="55" height="54" fill="none" xmlns="http://www.w3.org/2000/svg"><path d="M32.151 40.184a1.085 1.085 0 0 0-1.467-.386l-2.11 1.196v-2.392c0-.583-.48-1.055-1.074-1.055-.593 0-1.074.472-1.074 1.055v2.392l-2.11-1.196a1.085 1.085 0 0 0-1.467.386c-.297.504-.121 1.15.393 1.44l2.11 1.197-2.11 1.196c-.514.29-.69.936-.393 1.44a1.085 1.085 0 0 0 1.467.386l2.11-1.196v2.392c0 .583.48 1.055 1.074 1.055.593 0 1.074-.472 1.074-1.055v-2.392l2.11 1.196a1.085 1.085 0 0 0 1.467-.386c.297-.504.121-1.15-.393-1.44l-2.11-1.197 2.11-1.196c.514-.29.69-.936.393-1.44ZM17.435 40.184a1.085 1.085 0 0 0-1.468-.386l-2.11 1.196v-2.392c0-.583-.48-1.055-1.074-1.055-.593 0-1.074.472-1.074 1.055v2.392l-2.11-1.196a1.085 1.085 0 0 0-1.467.386c-.297.504-.12 1.15.393 1.44l2.11 1.197-2.11 1.196c-.514.29-.69.936-.393 1.44a1.085 1.085 0 0 0 1.467.386l2.11-1.196v2.392c0 .583.481 1.055 1.074 1.055.593 0 1.074-.472 1.074-1.055v-2.392l2.11 1.196a1.085 1.085 0 0 0 1.468-.386c.296-.504.12-1.15-.393-1.44l-2.11-1.197 2.11-1.196c.513-.29.69-.936.393-1.44ZM37.565 45.457a1.085 1.085 0 0 0 1.467.386l2.11-1.196v2.392c0 .583.482 1.055 1.075 1.055s1.074-.472 1.074-1.055v-2.392l2.11 1.196a1.085 1.085 0 0 0 1.467-.386c.297-.504.12-1.15-.393-1.44l-2.11-1.197 2.11-1.196c.514-.29.69-.936.393-1.44a1.085 1.085 0 0 0-1.467-.386l-2.11 1.196v-2.392c0-.583-.481-1.055-1.074-1.055-.593 0-1.074.472-1.074 1.055v2.392l-2.11-1.196a1.085 1.085 0 0 0-1.468.386c-.296.504-.12 1.15.394 1.44l2.11 1.197-2.11 1.196c-.514.29-.69.936-.394 1.44Z" fill="#90A1AE"/><path d="M49.629 31.641H32.34c-.593 0-1.075.472-1.075 1.055 0 .582.482 1.054 1.075 1.054h17.288c1.777 0 3.223 1.42 3.223 3.164v11.813c0 1.744-1.446 3.164-3.223 3.164H5.37c-1.777 0-3.223-1.42-3.223-3.164V36.914c0-1.744 1.446-3.164 3.223-3.164h17.302c.593 0 1.074-.472 1.074-1.054 0-.583-.481-1.055-1.074-1.055H5.37C2.41 31.641 0 34.007 0 36.914v11.813C0 51.634 2.41 54 5.371 54H49.63C52.59 54 55 51.634 55 48.727V36.914c0-2.907-2.41-5.273-5.371-5.273ZM27.5 22.465c.593 0 1.074-.472 1.074-1.054v-4.506c0-.583-.48-1.055-1.074-1.055-.593 0-1.074.472-1.074 1.055v4.506c0 .582.48 1.054 1.074 1.054Z" fill="#90A1AE"/><path d="M19.766 29.11h15.468c2.488 0 4.512-1.987 4.512-4.43V13.635c0-2.442-2.024-4.43-4.512-4.43h-.215V7.383C35.02 3.312 31.646 0 27.5 0s-7.52 3.312-7.52 7.383v1.822h-.214c-2.488 0-4.512 1.988-4.512 4.43V24.68c0 2.443 2.024 4.43 4.512 4.43Zm2.363-21.727c0-2.908 2.41-5.274 5.371-5.274 2.962 0 5.371 2.366 5.371 5.274v1.822H22.13V7.383Zm-4.727 6.252c0-1.28 1.06-2.32 2.364-2.32h15.468c1.303 0 2.364 1.04 2.364 2.32V24.68c0 1.28-1.06 2.32-2.364 2.32H19.766c-1.303 0-2.364-1.04-2.364-2.32V13.635ZM27.506 33.757c.283 0 .56-.112.76-.309.2-.196.315-.468.315-.745 0-.279-.114-.55-.315-.746-.2-.196-.477-.31-.76-.31-.282 0-.56.114-.759.31-.2.196-.315.467-.315.746 0 .277.115.55.315.745.2.197.477.31.76.31Z" fill="#90A1AE"/></svg>