<svg width="54" height="54" fill="none" xmlns="http://www.w3.org/2000/svg"><path d="m53.691 17.606-5.386-5.387V1.055C48.305.472 47.832 0 47.25 0H31.712a1.055 1.055 0 0 0 0 2.11h14.483v21.5L26.953 42.853 7.805 23.705V2.109H22.22a1.055 1.055 0 0 0 0-2.109H6.75c-.582 0-1.055.472-1.055 1.055v11.164L.31 17.606a1.055 1.055 0 0 0-.309.746v30.375A5.28 5.28 0 0 0 5.273 54h43.454A5.28 5.28 0 0 0 54 48.727V18.352c0-.28-.111-.549-.309-.746Zm-1.8 31.12c0 .488-.111.95-.31 1.364l-14.44-14.442 14.75-14.75v27.829Zm-3.586-33.523 3.149 3.149-3.15 3.148v-6.297ZM2.419 50.09a3.145 3.145 0 0 1-.31-1.363V20.993l14.704 14.703L2.418 50.09Zm3.276-28.495L2.5 18.4l3.196-3.197v6.394Zm-.422 30.296c-.487 0-.95-.111-1.363-.31l14.394-14.394 7.903 7.903a1.055 1.055 0 0 0 1.491 0l7.95-7.95L50.09 51.581c-.413.199-.876.31-1.363.31H5.273Z" fill="#90A1AE"/><path d="M26.966 2.11c.278 0 .55-.113.746-.31.196-.196.309-.468.309-.745 0-.278-.113-.55-.31-.746A1.063 1.063 0 0 0 26.967 0c-.278 0-.55.113-.745.309a1.063 1.063 0 0 0-.31.746 1.06 1.06 0 0 0 1.055 1.055ZM17.023 12.78a11.414 11.414 0 0 0-1.06 8.44 11.393 11.393 0 0 0 4.044 6.143 11.577 11.577 0 0 0 6.776 2.428 1.055 1.055 0 0 0 .028-2.109c-4.132-.114-7.754-2.992-8.808-6.998a9.363 9.363 0 0 1 6.222-11.307 9.31 9.31 0 0 1 7.215.637 9.306 9.306 0 0 1 4.602 5.57c.467 1.765.316 3.4-.506 5.466-.234.59-.961 1.959-2.653 1.959-.268 0-.538-.124-.763-.35a1.657 1.657 0 0 1-.469-1.175v-8.72a1.055 1.055 0 0 0-2.11 0v.337a4.605 4.605 0 0 0-2.99-1.079c-2.665 0-5.42 2.31-5.42 6.174 0 1.703.54 3.298 1.52 4.492.994 1.21 2.374 1.903 3.788 1.903 1.325 0 2.519-.585 3.428-1.56.183.414.438.795.758 1.116.623.626 1.425.971 2.258.971 2.437 0 3.981-1.699 4.613-3.288.992-2.493 1.17-4.592.58-6.807a11.4 11.4 0 0 0-5.653-6.876 11.404 11.404 0 0 0-8.838-.78 11.429 11.429 0 0 0-6.562 5.413Zm9.416 9.702c-1.764 0-3.198-1.923-3.198-4.286 0-2.544 1.682-4.064 3.31-4.064 1.752 0 2.976 1.658 2.976 4.032 0 2.38-1.385 4.318-3.088 4.318Z" fill="#90A1AE"/></svg>