<svg width="46" height="54" fill="none" xmlns="http://www.w3.org/2000/svg"><path d="M44.318 6.582c-6.63-.275-15.492-1.926-20.14-6.128a1.753 1.753 0 0 0-2.356 0c-3.785 3.422-11.502 5.77-20.14 6.128A1.746 1.746 0 0 0 0 8.327v10.935c0 .437.356.791.794.791a.793.793 0 0 0 .795-.79V8.326c0-.089.07-.16.159-.164 9.13-.379 17.033-2.823 21.142-6.538a.164.164 0 0 1 .22 0c5 4.52 14.308 6.254 21.142 6.538.09.003.16.075.16.164v18.06c0 8.773-4.761 16.911-12.424 21.239l-8.05 4.546a1.941 1.941 0 0 1-1.877 0l-8.049-4.546C6.35 43.298 1.59 35.16 1.59 26.387v-3.433a.793.793 0 0 0-.795-.791.793.793 0 0 0-.794.79v3.434c0 9.342 5.069 18.007 13.229 22.615l8.049 4.546a3.505 3.505 0 0 0 3.444 0l8.05-4.546C40.931 44.394 46 35.73 46 26.387V8.327c0-.94-.739-1.706-1.682-1.745Z" fill="#90A1AE"/><path d="M14.252 38.69H26.24a.793.793 0 0 0 .795-.79.793.793 0 0 0-.795-.791H14.252c-.62 0-1.126-.503-1.126-1.121V23.505c0-.618.505-1.121 1.126-1.121h17.496c.62 0 1.126.503 1.126 1.12v12.484c0 .618-.506 1.12-1.126 1.12h-1.8a.793.793 0 0 0-.795.792c0 .437.355.79.794.79h1.8a2.712 2.712 0 0 0 2.715-2.702V23.505a2.712 2.712 0 0 0-2.714-2.703h-.268v-1.668c0-4.657-3.804-8.445-8.48-8.445s-8.48 3.788-8.48 8.445v1.668h-.268a2.712 2.712 0 0 0-2.714 2.703v12.483a2.712 2.712 0 0 0 2.714 2.703Zm12.62-17.888h-7.744v-1.668c0-2.127 1.737-3.857 3.872-3.857s3.872 1.73 3.872 3.857v1.668Zm-10.764-1.668c0-3.785 3.092-6.863 6.892-6.863 3.8 0 6.891 3.078 6.891 6.863v1.668h-1.43v-1.668c0-3-2.45-5.439-5.461-5.439s-5.461 2.44-5.461 5.439v1.668h-1.43v-1.668Z" fill="#90A1AE"/><path d="M23 35.477a2.182 2.182 0 0 0 2.184-2.175v-2.764a3.56 3.56 0 0 0 1.381-2.805c0-1.957-1.6-3.55-3.565-3.55a3.562 3.562 0 0 0-3.565 3.55c0 1.122.52 2.141 1.381 2.806v2.763c0 1.2.98 2.175 2.184 2.175Zm0-9.712c1.09 0 1.977.883 1.977 1.968 0 .699-.378 1.351-.986 1.703a.79.79 0 0 0-.396.684v3.182a.595.595 0 0 1-1.19 0V30.12a.79.79 0 0 0-.396-.684 1.963 1.963 0 0 1-.986-1.703c0-1.085.887-1.968 1.977-1.968Z" fill="#90A1AE"/><path d="m15.316 45.516 6.854 3.87c.512.29 1.148.29 1.66 0l6.854-3.87c6.915-3.905 11.211-11.25 11.211-19.167V12.064c0-.851-.64-1.566-1.489-1.663-6.609-.755-12.325-2.512-16.529-5.08a1.675 1.675 0 0 0-1.754 0c-4.204 2.568-9.92 4.325-16.53 5.08a1.676 1.676 0 0 0-1.489 1.663V26.35c0 7.917 4.297 15.262 11.212 19.167ZM5.694 12.064c0-.047.035-.086.082-.091 6.838-.781 12.778-2.615 17.179-5.304a.088.088 0 0 1 .092 0c4.401 2.689 10.342 4.523 17.18 5.304a.092.092 0 0 1 .08.091V26.35c0 7.349-3.987 14.166-10.406 17.791l-6.854 3.87a.093.093 0 0 1-.092 0L16.1 44.14C9.68 40.515 5.693 33.698 5.693 26.349V12.064Z" fill="#90A1AE"/></svg>