<svg width="24" height="24" viewBox="0 0 24 24" fill="none" xmlns="http://www.w3.org/2000/svg">
<path d="M8.68588 3.9994L11.2929 1.3924C11.4804 1.20492 11.7347 1.09961 11.9999 1.09961C12.265 1.09961 12.5194 1.20492 12.7069 1.3924L15.3139 3.9994H18.9999C19.2651 3.9994 19.5195 4.10475 19.707 4.29229C19.8945 4.47983 19.9999 4.73418 19.9999 4.9994V8.6854L22.6069 11.2924C22.7944 11.4799 22.8997 11.7342 22.8997 11.9994C22.8997 12.2646 22.7944 12.5189 22.6069 12.7064L19.9999 15.3134V18.9994C19.9999 19.2646 19.8945 19.519 19.707 19.7065C19.5195 19.894 19.2651 19.9994 18.9999 19.9994H15.3139L12.7069 22.6064C12.5194 22.7939 12.265 22.8992 11.9999 22.8992C11.7347 22.8992 11.4804 22.7939 11.2929 22.6064L8.68588 19.9994H4.99988C4.73467 19.9994 4.48031 19.894 4.29278 19.7065C4.10524 19.519 3.99988 19.2646 3.99988 18.9994V15.3134L1.39288 12.7064C1.20541 12.5189 1.1001 12.2646 1.1001 11.9994C1.1001 11.7342 1.20541 11.4799 1.39288 11.2924L3.99988 8.6854V4.9994C3.99988 4.73418 4.10524 4.47983 4.29278 4.29229C4.48031 4.10475 4.73467 3.9994 4.99988 3.9994H8.68588ZM5.99988 5.9994V9.5144L3.51488 11.9994L5.99988 14.4844V17.9994H9.51488L11.9999 20.4844L14.4849 17.9994H17.9999V14.4844L20.4849 11.9994L17.9999 9.5144V5.9994H14.4849L11.9999 3.5144L9.51488 5.9994H5.99988ZM11.9999 15.9994C10.939 15.9994 9.9216 15.578 9.17146 14.8278C8.42131 14.0777 7.99988 13.0603 7.99988 11.9994C7.99988 10.9385 8.42131 9.92111 9.17146 9.17097C9.9216 8.42082 10.939 7.9994 11.9999 7.9994C13.0608 7.9994 14.0782 8.42082 14.8283 9.17097C15.5785 9.92111 15.9999 10.9385 15.9999 11.9994C15.9999 13.0603 15.5785 14.0777 14.8283 14.8278C14.0782 15.578 13.0608 15.9994 11.9999 15.9994ZM11.9999 13.9994C12.5303 13.9994 13.039 13.7887 13.4141 13.4136C13.7892 13.0385 13.9999 12.5298 13.9999 11.9994C13.9999 11.469 13.7892 10.9603 13.4141 10.5852C13.039 10.2101 12.5303 9.9994 11.9999 9.9994C11.4695 9.9994 10.9607 10.2101 10.5857 10.5852C10.2106 10.9603 9.99988 11.469 9.99988 11.9994C9.99988 12.5298 10.2106 13.0385 10.5857 13.4136C10.9607 13.7887 11.4695 13.9994 11.9999 13.9994Z" fill="#527DBE"/>
</svg>
