<svg width="55" height="66" fill="none" xmlns="http://www.w3.org/2000/svg"><path d="M48.514 26.38H23.722a7.37 7.37 0 0 0 1.843-4.877c0-4.102-3.366-7.439-7.502-7.439-4.137 0-7.502 3.337-7.502 7.44a7.37 7.37 0 0 0 1.843 4.875H6.486C2.91 26.38 0 29.265 0 32.811v7.59c0 .71.58 1.286 1.297 1.286s1.297-.576 1.297-1.286v-7.59c0-2.128 1.746-3.86 3.892-3.86h36.32c2.146 0 3.892 1.732 3.892 3.86v6.947h-13.49c-3.577 0-6.486 2.885-6.486 6.432 0 3.546 2.91 6.431 6.486 6.431h13.49v6.947c0 2.128-1.746 3.86-3.891 3.86H6.486c-2.146 0-3.892-1.732-3.892-3.86v-7.6c0-.71-.58-1.286-1.297-1.286-.716 0-1.297.576-1.297 1.286v7.6C0 63.115 2.91 66 6.486 66h42.028C52.09 66 55 63.115 55 59.568V32.811c0-3.546-2.91-6.432-6.486-6.432Zm-30.451-9.743c2.706 0 4.907 2.183 4.907 4.867 0 2.683-2.201 4.866-4.907 4.866s-4.907-2.183-4.907-4.866c0-2.684 2.2-4.867 4.907-4.867Zm29.929 12.315h.522c2.146 0 3.892 1.731 3.892 3.86v6.946h-3.114V32.81a6.364 6.364 0 0 0-1.3-3.86ZM29.316 46.19c0-2.128 1.746-3.86 3.892-3.86h19.198v7.719H33.208c-2.146 0-3.892-1.731-3.892-3.86Zm19.198 17.237h-.522a6.363 6.363 0 0 0 1.3-3.859v-6.947h3.114v6.947c0 2.128-1.746 3.86-3.892 3.86Z" fill="#90A1AE"/><path d="M32.876 44.903a1.29 1.29 0 0 0-1.297 1.286 1.29 1.29 0 0 0 1.297 1.287 1.29 1.29 0 0 0 1.297-1.286 1.29 1.29 0 0 0-1.297-1.287ZM36.937 17.709c4.137 0 7.502-3.338 7.502-7.44s-3.365-7.44-7.502-7.44c-4.136 0-7.502 3.338-7.502 7.44s3.366 7.44 7.502 7.44Zm0-12.307c2.706 0 4.907 2.184 4.907 4.867 0 2.684-2.2 4.867-4.907 4.867-2.706 0-4.907-2.183-4.907-4.867 0-2.683 2.201-4.867 4.907-4.867ZM24.268 12.681c.716 0 1.297-.575 1.297-1.286V1.286c0-.71-.581-1.286-1.297-1.286-.717 0-1.298.576-1.298 1.286v10.109c0 .71.581 1.286 1.298 1.286ZM18.041 8.233c.717 0 1.297-.576 1.297-1.286v-5.66c0-.711-.58-1.287-1.297-1.287-.716 0-1.297.576-1.297 1.286v5.66c0 .711.58 1.287 1.297 1.287ZM1.297 47.476a1.29 1.29 0 0 0 1.297-1.286 1.29 1.29 0 0 0-1.297-1.287A1.29 1.29 0 0 0 0 46.19a1.29 1.29 0 0 0 1.297 1.287Z" fill="#90A1AE"/></svg>