<svg width="76" height="76" fill="none" xmlns="http://www.w3.org/2000/svg"><path d="M26.277 50.836h2.55V48.23a3.189 3.189 0 0 0 1.93-1.23 3.17 3.17 0 0 0-.43-4.24 3.193 3.193 0 0 0-2.138-.82h-1.275a.638.638 0 0 1-.637-.636.634.634 0 0 1 .637-.635h4.462v-2.542h-2.55v-2.542h-2.55v2.606a3.189 3.189 0 0 0-1.93 1.23 3.17 3.17 0 0 0 .43 4.24c.586.528 1.348.82 2.138.82h1.275a.638.638 0 0 1 .637.636.634.634 0 0 1-.637.636h-4.462v2.541h2.55v2.542Z" fill="#90A1AE"/><path d="M73.45 31.773c0-.337-.134-.66-.373-.9a1.277 1.277 0 0 0-.902-.371h-7.65a1.277 1.277 0 0 0-1.275 1.27v5.084h-6.374a1.269 1.269 0 0 0-1.275 1.27v3.814h-6.375a1.269 1.269 0 0 0-1.275 1.27v11.995l-5.14-6.147a14.25 14.25 0 0 0-.702-13.287l5.014-3.998h8.478V29.23h-8.925c-.29 0-.57.098-.797.278l-5.267 4.2c-.037-.042-.071-.086-.109-.128l-6.375-7.15 1.151-2.87a2.64 2.64 0 0 0-.533-2.798 2.657 2.657 0 0 0-2.772-.696.106.106 0 0 1-.122-.041l-1.258-1.88a3.653 3.653 0 0 0-3.043-1.624 3.666 3.666 0 0 0-3.042 1.623l-1.258 1.88a.106.106 0 0 1-.122.042 2.664 2.664 0 0 0-2.772.695 2.645 2.645 0 0 0-.533 2.8l1.151 2.87-6.375 7.15a14.245 14.245 0 0 0-2.637 14.7L0 57.454l1.555 2.015 2.615-2.006 10.122 13.453-4.08 3.05L11.742 76l4.978-3.721 8.784-3.753c.277-.118.503-.33.638-.6l2.303-4.592 10.66-3.188a3.467 3.467 0 0 0 1.663-1.093 3.45 3.45 0 0 0-.94-5.218l1.626-2.431 5.517 6.6a1.275 1.275 0 0 0 .98.458H76V55.92h-2.55V31.772Zm-51.238-9.267a.09.09 0 0 1 .111-.027 2.67 2.67 0 0 0 3.05-1.043l1.257-1.881a1.106 1.106 0 0 1 1.444-.36c.16.085.298.209.399.36l1.258 1.88a2.661 2.661 0 0 0 3.049 1.044.106.106 0 0 1 .132.139l-1.124 2.8h-8.473l-1.124-2.8a.09.09 0 0 1 .021-.112ZM13.527 43.08a11.721 11.721 0 0 1 2.979-7.81l6.518-7.31h1.666a7.71 7.71 0 0 0-.898 6.757l2.42-.803a5.189 5.189 0 0 1 1.267-5.354l.073-.073.072.072a5.2 5.2 0 0 1 1.268 5.355l2.419.803a7.702 7.702 0 0 0-.898-6.756h1.666l6.518 7.31a11.726 11.726 0 0 1 .998 14.33l-2.526 3.778h-16.38l1.194-2.379a5.383 5.383 0 0 0 .569-2.401 4.124 4.124 0 0 0-2.305-3.693 4.141 4.141 0 0 0-4.342.43l-1.718 1.318a11.79 11.79 0 0 1-.56-3.574Zm24.845 14.633-11.187 3.345a1.276 1.276 0 0 0-.774.649l-2.34 4.667-7.575 3.236L6.19 55.914 17.36 47.35a1.583 1.583 0 0 1 2.303.416c.156.25.239.538.239.832 0 .438-.103.871-.3 1.264l-2.116 4.218a1.268 1.268 0 0 0 1.14 1.84h19.482a.92.92 0 0 1 .908.782.912.912 0 0 1-.644 1.01ZM50.5 44.481h5.1V55.92h-5.1V44.482Zm7.65-5.084h5.1V55.92h-5.1V39.398ZM65.8 55.92V33.043h5.1V55.92h-5.1Z" fill="#90A1AE"/><path d="M61.975 0c-2.773 0-5.485.82-7.791 2.356a13.99 13.99 0 0 0-5.165 6.274 13.938 13.938 0 0 0-.799 8.077 13.966 13.966 0 0 0 3.839 7.158 14.039 14.039 0 0 0 7.18 3.826c2.72.54 5.54.263 8.103-.795a14.014 14.014 0 0 0 6.294-5.15A13.947 13.947 0 0 0 76 13.98a13.973 13.973 0 0 0-4.112-9.88A14.063 14.063 0 0 0 61.975 0Zm11.403 12.709h-5.156a6.368 6.368 0 0 0-1.741-3.22 6.4 6.4 0 0 0-3.23-1.736V2.614a11.509 11.509 0 0 1 6.833 3.283c1.84 1.834 3 4.235 3.294 6.812Zm-6.087 4.773a6.308 6.308 0 0 0 .931-2.231h5.156a11.363 11.363 0 0 1-2.443 5.863l-3.644-3.632Zm-5.316-7.315c.757 0 1.496.224 2.125.643a3.8 3.8 0 0 1 .58 5.866 3.829 3.829 0 0 1-4.168.826 3.822 3.822 0 0 1-1.717-1.404 3.804 3.804 0 0 1 .477-4.813 3.836 3.836 0 0 1 2.703-1.118ZM50.501 13.98a11.433 11.433 0 0 1 2.926-7.621A11.502 11.502 0 0 1 60.7 2.614v5.14a6.385 6.385 0 0 0-4.358 3.242 6.339 6.339 0 0 0 1.342 7.687 6.381 6.381 0 0 0 5.2 1.586 6.387 6.387 0 0 0 2.604-.99l3.644 3.632a11.498 11.498 0 0 1-12.135 1.378 11.453 11.453 0 0 1-4.74-4.22 11.402 11.402 0 0 1-1.756-6.09Z" fill="#90A1AE"/></svg>