<svg width="59" height="66" fill="none" xmlns="http://www.w3.org/2000/svg"><path d="M0 59.75v4.601C0 65.261.74 66 1.651 66h10.808c.91 0 1.651-.74 1.651-1.649V59.75a4.953 4.953 0 0 0-3.438-4.707 4.653 4.653 0 0 0 1.071-2.973 4.689 4.689 0 0 0-3.715-4.578v-3.195c0-.053.044-.096.097-.096h20.401v3.291a4.688 4.688 0 0 0-3.714 4.578c0 1.128.402 2.164 1.07 2.973a4.953 4.953 0 0 0-3.437 4.707v4.602c0 .91.74 1.649 1.651 1.649h10.808c.91 0 1.65-.74 1.65-1.649v-.847a.972.972 0 0 0-1.946 0v.552h-1.112v-4.45a.973.973 0 0 0-1.947 0v4.45h-4.098v-4.45a.972.972 0 0 0-1.947 0v4.45h-1.112V59.75a3.007 3.007 0 0 1 3.006-3.001h4.204a3.016 3.016 0 0 1 2.948 2.413.973.973 0 0 0 1.908-.384 4.969 4.969 0 0 0-3.342-3.733 4.653 4.653 0 0 0 1.072-2.975 4.69 4.69 0 0 0-3.715-4.578V44.2h20.402c.053 0 .096.043.096.096v3.195a4.69 4.69 0 0 0-3.714 4.578c0 1.127.402 2.164 1.07 2.973a4.953 4.953 0 0 0-3.437 4.707v4.602c0 .91.74 1.649 1.65 1.649H57.35c.91 0 1.651-.74 1.651-1.649V59.75a4.954 4.954 0 0 0-3.438-4.707 4.653 4.653 0 0 0 1.07-2.973 4.69 4.69 0 0 0-3.714-4.578v-3.195c0-1.124-.916-2.04-2.043-2.04H30.473v-3.24h12.304a2.375 2.375 0 0 0 2.375-2.37v-7.082c0-4.104-3.528-5.599-3.678-5.66l-.019-.008-7.693-2.973V19.44a6.484 6.484 0 0 0 2.303-3.934c1.61-.243 2.69-1.577 2.69-3.083 0-.712-.243-1.394-.68-1.94V8.155c0-3.76-2.42-7.02-6.021-8.113a.971.971 0 1 0-.566 1.86 6.5 6.5 0 0 1 4.64 6.253V9.21c-.066-.294-.285-.555-.557-.858-.239-.267-.826-.886-1.574-1.688a1.484 1.484 0 0 0-1.9-.232c-.312.205-.635.392-.964.567-2.038 1.082-4.366 1.607-6.535 1.452a1.486 1.486 0 0 0-1.484.913l-.082.015V8.155a6.525 6.525 0 0 1 4.5-6.209A.971.971 0 1 0 26.926.1a8.464 8.464 0 0 0-5.84 8.055v2.39a2.94 2.94 0 0 0-.68 1.879 3.12 3.12 0 0 0 2.688 3.086 6.366 6.366 0 0 0 2.437 4.026v1.387l-7.684 2.974-.018.007-.067.029c-.51.23-3.612 1.784-3.612 5.63v7.083a2.376 2.376 0 0 0 2.375 2.37h12.002v3.24H8.125a2.043 2.043 0 0 0-2.043 2.04v3.195a4.689 4.689 0 0 0-3.715 4.578c0 1.128.402 2.164 1.071 2.973A4.952 4.952 0 0 0 0 59.75Zm32.241-7.681a2.742 2.742 0 0 1-5.482 0 2.742 2.742 0 0 1 5.482 0Zm24.812 7.68v4.308H55.94v-4.45a.973.973 0 0 0-1.947 0v4.45h-4.097v-4.45a.973.973 0 0 0-1.947 0v4.45h-1.113v-4.308a3.007 3.007 0 0 1 3.007-3.001h4.204a3.007 3.007 0 0 1 3.006 3.001Zm-2.367-7.68a2.742 2.742 0 0 1-5.483 0 2.742 2.742 0 0 1 5.483 0ZM29.66 18.959c-2.88 0-4.712-2.24-4.712-4.545v-4c2.723.086 5.545-.712 7.885-2.147.736.787 1.176 1.248 1.38 1.479v4.668a4.558 4.558 0 0 1-4.553 4.544Zm6.499-5.489v-2.09a1.163 1.163 0 0 1 0 2.09Zm-13.808-1.046c0-.421.275-.778.65-.985v2.031a1.165 1.165 0 0 1-.65-1.046ZM29.66 20.9c.744 0 1.491-.133 2.156-.367v.543c0 .611.333 1.177.852 1.482-1.723 1.714-4.397 1.724-6.132.045.57-.301.94-.902.94-1.555v-.487c.69.224 1.448.34 2.184.34ZM16.096 36.646v-7.082c0-2.744 2.316-3.795 2.467-3.86l6.019-2.33.384.408c2.535 2.688 6.694 2.688 9.228 0l.42-.446 6.125 2.368c1.379.596 2.466 2.088 2.466 3.86v7.082a.428.428 0 0 1-.428.427H39.92v-6.306a.972.972 0 0 0-.974-.971.972.972 0 0 0-.973.97v6.307H21.33v-6.306a.972.972 0 0 0-.973-.971.972.972 0 0 0-.974.97v6.307h-2.858a.428.428 0 0 1-.429-.427ZM7.055 49.332a2.742 2.742 0 0 1 2.741 2.737 2.742 2.742 0 0 1-5.482 0 2.742 2.742 0 0 1 2.74-2.737ZM1.947 59.75a3.007 3.007 0 0 1 3.006-3.001h4.204a3.007 3.007 0 0 1 3.007 3.001v4.308H11.05v-4.45a.973.973 0 0 0-1.946 0v4.45H5.006v-4.45a.973.973 0 0 0-1.946 0v4.45H1.947v-4.308Z" fill="#90A1AE"/></svg>