<svg width="67" height="64" fill="none" xmlns="http://www.w3.org/2000/svg"><path d="M63.401 4.571H41.567l-.408-1.78A3.58 3.58 0 0 0 37.651 0H3.6A3.6 3.6 0 0 0 0 3.592v45.714a3.6 3.6 0 0 0 3.599 3.592h27.293a4.865 4.865 0 0 0 3.045 3.715l1.58.618a3.61 3.61 0 0 0 1.778 2.065v1.635c0 1.692 1.38 3.069 3.075 3.069h10.207a3.076 3.076 0 0 0 3.075-3.07v-1.635a3.593 3.593 0 0 0 1.963-3.197V48.98h5.823c.903 0 1.636-.733 1.636-1.633V11.102h1.963v38.204c0 .9-.733 1.633-1.636 1.633h-4.187a.98.98 0 1 0 0 1.959H63.4A3.6 3.6 0 0 0 67 49.306V8.163a3.6 3.6 0 0 0-3.599-3.592ZM39.245 3.228l.308 1.343h-8.455l-.407-1.78a3.629 3.629 0 0 0-.302-.832h7.262c.768 0 1.424.522 1.594 1.27ZM27.184 1.96c.767 0 1.423.522 1.594 1.27l.307 1.342h-9.523l-.408-1.78a3.629 3.629 0 0 0-.302-.832h8.332Zm-23.584 0h12.046c.768 0 1.424.522 1.595 1.27l.581 2.54c.103.446.5.762.957.762h44.623c.903 0 1.636.732 1.636 1.632v.98H1.963V3.592c0-.9.733-1.633 1.636-1.633ZM32.78 52.052v-5.445a1.277 1.277 0 0 1 2.176-.903c.243.24.375.561.375.902l.001 8.449-.68-.266a2.921 2.921 0 0 1-1.872-2.737Zm22.966-20.705v5.877h-5.62v-5.877h5.62Zm-7.582 5.877h-6.289v-.854a3.37 3.37 0 0 0-1.009-2.39 3.22 3.22 0 0 0-2.325-.935c-1.769.034-3.209 1.498-3.209 3.265v.914h-3.664v-5.877h16.496v5.877Zm2.413 24.817H40.37a1.112 1.112 0 0 1-1.112-1.11V59.69h12.431v1.24c0 .613-.498 1.11-1.112 1.11Zm3.075-5.943c0 .9-.733 1.633-1.635 1.633H38.93a1.636 1.636 0 0 1-1.636-1.633V36.31c0-.706.575-1.293 1.283-1.306h.023c.328 0 .644.132.89.373.268.263.421.624.421.993v12.087a.98.98 0 0 0 1.963 0v-2.35a1.309 1.309 0 0 1 2.617 0v2.35a.98.98 0 0 0 1.963 0v-2.35a1.309 1.309 0 0 1 2.617 0v2.35a.98.98 0 0 0 1.963 0v-2.35c0-.707.576-1.294 1.284-1.307.335-.007.66.127.913.373.267.263.42.624.42.993v9.932Zm7.46-9.078h-5.497v-.854a3.37 3.37 0 0 0-1.009-2.39 3.21 3.21 0 0 0-2.325-.935 3.263 3.263 0 0 0-2.224.939 3.265 3.265 0 0 0-2.293-.94c-.891 0-1.7.358-2.29.936a3.263 3.263 0 0 0-3.599-.663v-3.93h14.198c.902 0 1.636-.731 1.636-1.632v-6.53c0-.901-.734-1.633-1.636-1.633H31.341c-.902 0-1.636.732-1.636 1.632v6.531c0 .9.734 1.633 1.636 1.633h3.991v4.45a3.24 3.24 0 0 0-1.275-.26h-.016a3.243 3.243 0 0 0-3.224 3.233v.413H5.89V14.694a.98.98 0 0 0-1.963 0v32.653c0 .9.733 1.633 1.636 1.633h25.255v1.959H3.6a1.636 1.636 0 0 1-1.636-1.633V11.102H61.11V47.02Z" fill="#90A1AE"/><path d="M31.34 27.429h24.733c.902 0 1.636-.733 1.636-1.633v-6.53c0-.901-.734-1.633-1.636-1.633H31.341c-.902 0-1.636.732-1.636 1.632v6.53c0 .901.734 1.634 1.636 1.634Zm24.406-1.96h-5.62v-5.877h5.62v5.877Zm-24.078-5.877h16.496v5.877H31.668v-5.877ZM10.207 19.592h14.656a.98.98 0 1 0 0-1.96H10.207a.98.98 0 1 0 0 1.96ZM10.207 23.51h14.656a.98.98 0 1 0 0-1.959H10.207a.98.98 0 1 0 0 1.96ZM10.207 27.429h10.207a.98.98 0 1 0 0-1.96H10.207a.98.98 0 1 0 0 1.96ZM10.207 31.347h14.656a.98.98 0 1 0 0-1.96H10.207a.98.98 0 1 0 0 1.96ZM10.207 35.265h10.207a.98.98 0 1 0 0-1.959H10.207a.98.98 0 1 0 0 1.96ZM10.207 39.053h6.281a.98.98 0 1 0 0-1.96h-6.281a.98.98 0 1 0 0 1.96ZM6.412 6.53h6.674a.98.98 0 1 0 0-1.959H6.412a.98.98 0 1 0 0 1.96Z" fill="#90A1AE"/></svg>