<svg width="14" height="12" fill="none" xmlns="http://www.w3.org/2000/svg"><path d="M.211 5.582c1.433-.817 3.031-1.498 4.525-2.183 2.57-1.122 5.15-2.224 7.756-3.25C13-.028 13.912-.199 14 .58c-.049 1.101-.25 2.195-.388 3.29-.35 2.406-.755 4.805-1.15 7.204-.136.799-1.104 1.212-1.722.701-1.488-1.04-2.986-2.07-4.454-3.133-.481-.506-.035-1.232.394-1.593 1.225-1.25 2.524-2.311 3.685-3.625.313-.782-.612-.123-.917.08-1.677 1.195-3.313 2.464-5.08 3.515-.904.515-1.956.075-2.86-.212C.7 6.46-.485 6.11.212 5.582Z" fill="#158AFF"/></svg>