<svg width="27" height="26" fill="none" xmlns="http://www.w3.org/2000/svg"><path d="M13.5 26C20.956 26 27 20.18 27 13S20.956 0 13.5 0 0 5.82 0 13s6.044 13 13.5 13Z" fill="url(#a)"/><path d="M11.025 18.958c-.437 0-.363-.159-.514-.56l-1.286-4.076 9.9-5.655" fill="#C8DAEA"/><path d="M11.025 18.958c.338 0 .487-.148.675-.325l1.8-1.685-2.245-1.304" fill="#A9C9DD"/><path d="m11.255 15.645 5.44 3.87c.62.33 1.069.16 1.224-.555l2.214-10.05c.227-.875-.346-1.272-.94-1.012L6.189 12.727c-.888.342-.883.82-.162 1.032l3.337 1.003 7.726-4.694c.364-.213.7-.098.425.136" fill="url(#b)"/><defs><linearGradient id="a" x1="10.126" y1="1.084" x2="3.796" y2="16.423" gradientUnits="userSpaceOnUse"><stop stop-color="#37AEE2"/><stop offset="1" stop-color="#1E96C8"/></linearGradient><linearGradient id="b" x1="11.81" y1="13.799" x2="13.156" y2="18.32" gradientUnits="userSpaceOnUse"><stop stop-color="#EFF7FC"/><stop offset="1" stop-color="#fff"/></linearGradient></defs></svg>