<svg width="322" height="322" viewBox="0 0 322 322" fill="none" xmlns="http://www.w3.org/2000/svg">
<path d="M161 295.167C86.8999 295.167 26.8335 235.1 26.8335 161C26.8335 86.8997 86.8999 26.8333 161 26.8333C235.1 26.8333 295.167 86.8997 295.167 161C295.167 235.1 235.1 295.167 161 295.167ZM161 268.333C189.467 268.333 216.767 257.025 236.896 236.896C257.025 216.767 268.333 189.466 268.333 161C268.333 132.533 257.025 105.233 236.896 85.1038C216.767 64.9749 189.467 53.6666 161 53.6666C132.534 53.6666 105.233 64.9749 85.104 85.1038C64.9751 105.233 53.6668 132.533 53.6668 161C53.6668 189.466 64.9751 216.767 85.104 236.896C105.233 257.025 132.534 268.333 161 268.333ZM93.9168 174.417H214.667V201.25H161V241.5L93.9168 174.417ZM161 120.75V80.4999L228.083 147.583H107.333V120.75H161Z" fill="#F5F5F5"/>
</svg>
