<svg width="23" height="23" fill="none" xmlns="http://www.w3.org/2000/svg"><path d="M11.5 23C17.851 23 23 17.851 23 11.5S17.851 0 11.5 0 0 5.149 0 11.5 5.149 23 11.5 23Z" fill="#F0F0F0"/><path d="M2.377 4.499A11.458 11.458 0 0 0 .397 8.5h5.982L2.377 4.499ZM22.604 8.5A11.462 11.462 0 0 0 20.623 4.5L16.62 8.5h5.983ZM.396 14.5a11.46 11.46 0 0 0 1.981 4.002L6.38 14.5H.396ZM18.502 2.377A11.459 11.459 0 0 0 14.5.397v5.982l4.002-4.002ZM4.499 20.623a11.46 11.46 0 0 0 4.001 1.98v-5.982l-4.001 4.002ZM8.5.396a11.46 11.46 0 0 0-4.001 1.981L8.5 6.38V.396ZM14.5 22.604a11.46 11.46 0 0 0 4.001-1.981L14.5 16.62v5.983ZM16.621 14.5l4.002 4.002a11.461 11.461 0 0 0 1.98-4.002h-5.982Z" fill="#0052B4"/><path d="M22.903 10H13V.097a11.614 11.614 0 0 0-3 0V10H.097a11.614 11.614 0 0 0 0 3H10v9.903a11.618 11.618 0 0 0 3 0V13h9.903a11.617 11.617 0 0 0 0-3Z" fill="#D80027"/><path d="m14.5 14.5 5.132 5.132c.236-.236.46-.483.676-.739L15.914 14.5H14.5ZM8.5 14.5l-5.132 5.132c.236.236.483.46.739.676L8.5 15.914V14.5ZM8.5 8.5 3.368 3.368c-.236.236-.46.483-.676.738L7.086 8.5H8.5ZM14.5 8.5l5.132-5.132a11.505 11.505 0 0 0-.739-.676L14.5 7.086V8.5Z" fill="#D80027"/></svg>