<svg width="23" height="23" viewBox="0 0 23 23" fill="none" xmlns="http://www.w3.org/2000/svg">
<path d="M11.5 23C17.8513 23 23 17.8513 23 11.5C23 5.14873 17.8513 0 11.5 0C5.14873 0 0 5.14873 0 11.5C0 17.8513 5.14873 23 11.5 23Z" fill="#F0F0F0"/>
<path d="M2.37722 4.49854C1.47388 5.67383 0.792733 7.02845 0.396118 8.50004H6.37872L2.37722 4.49854Z" fill="#0052B4"/>
<path d="M22.6039 8.50024C22.2072 7.02869 21.526 5.67407 20.6228 4.49878L16.6213 8.50024H22.6039Z" fill="#0052B4"/>
<path d="M0.396118 14.5002C0.792778 15.9718 1.47393 17.3264 2.37722 18.5017L6.37859 14.5002H0.396118Z" fill="#0052B4"/>
<path d="M18.5015 2.37739C17.3262 1.47405 15.9716 0.7929 14.5 0.39624V6.3788L18.5015 2.37739Z" fill="#0052B4"/>
<path d="M4.49854 20.6227C5.67383 21.526 7.02845 22.2072 8.5 22.6039V16.6213L4.49854 20.6227Z" fill="#0052B4"/>
<path d="M8.49995 0.39624C7.0284 0.7929 5.67378 1.47405 4.49854 2.37734L8.49995 6.37876V0.39624Z" fill="#0052B4"/>
<path d="M14.5 22.6039C15.9716 22.2072 17.3262 21.526 18.5014 20.6228L14.5 16.6213V22.6039Z" fill="#0052B4"/>
<path d="M16.6213 14.5002L20.6228 18.5017C21.526 17.3265 22.2072 15.9718 22.6039 14.5002H16.6213Z" fill="#0052B4"/>
<path d="M22.9027 10H13.0001H13V0.0973457C12.509 0.0334219 12.0084 0 11.5 0C10.9915 0 10.491 0.0334219 10 0.0973457V9.99992V9.99997H0.0973457C0.0334219 10.491 0 10.9916 0 11.5C0 12.0085 0.0334219 12.509 0.0973457 13H9.99992H9.99997V22.9027C10.491 22.9666 10.9915 23 11.5 23C12.0084 23 12.509 22.9666 13 22.9027V13.0001V13H22.9027C22.9666 12.509 23 12.0085 23 11.5C23 10.9916 22.9666 10.491 22.9027 10Z" fill="#D80027"/>
<path d="M14.5 14.5L19.6317 19.6317C19.8677 19.3958 20.0929 19.1491 20.3077 18.8934L15.9142 14.5H14.5V14.5Z" fill="#D80027"/>
<path d="M8.50002 14.5H8.49993L3.36829 19.6317C3.60422 19.8677 3.85088 20.0928 4.10658 20.3076L8.50002 15.9141V14.5Z" fill="#D80027"/>
<path d="M8.49994 8.5V8.49991L3.36825 3.36816C3.13223 3.60409 2.90708 3.85076 2.69226 4.10646L7.08576 8.49995H8.49994V8.5Z" fill="#D80027"/>
<path d="M14.5 8.50011L19.6317 3.36832C19.3958 3.1323 19.1491 2.90715 18.8934 2.69238L14.5 7.08588V8.50011Z" fill="#D80027"/>
</svg>
