<svg width="70" height="66" fill="none" xmlns="http://www.w3.org/2000/svg"><path d="M68.974 63.948h-.634l-2.357-4.894-.173-6.048a1.026 1.026 0 0 0-2.052.059l.18 6.267c.003.144.038.285.1.416l2.024 4.2h-42.68l6.635-8.335c.259-.324.454-.69.581-1.084l4.583-14.288c.109-.337.311-.634.586-.858l15.615-12.725a.665.665 0 0 1 .762-.053l2.833 1.711c.197.12.32.337.32.568v7.31c0 .938.417 1.817 1.144 2.41l5.923 4.839a3.235 3.235 0 0 1 1.188 2.415l.081 2.833a1.026 1.026 0 1 0 2.052-.059l-.081-2.833a5.285 5.285 0 0 0-1.941-3.945l-5.924-4.839a1.056 1.056 0 0 1-.39-.821v-7.31a2.73 2.73 0 0 0-1.31-2.324l-2.834-1.712a2.722 2.722 0 0 0-3.12.22l-6.956 5.668a19.768 19.768 0 0 0-12.924-4.784c-.781 0-1.576.047-2.363.14a1.026 1.026 0 1 0 .242 2.038c.706-.083 1.42-.126 2.121-.126a17.72 17.72 0 0 1 11.304 4.052l-2.243 1.828a14.976 14.976 0 0 0-9.06-3.056c-8.257 0-14.975 6.717-14.975 14.973a14.92 14.92 0 0 0 9.031 13.745l-1.81 2.273a17.788 17.788 0 0 1-10.045-16.018c0-7.43 4.685-14.146 11.657-16.709a1.026 1.026 0 1 0-.709-1.926 19.802 19.802 0 0 0-9.345 7.155 19.716 19.716 0 0 0-3.655 11.48 19.837 19.837 0 0 0 10.791 17.658l-.388.489H1.169a1.026 1.026 0 1 0 0 2.052h67.805a1.026 1.026 0 1 0 0-2.052ZM29.09 52.51l-1.682.007v-6.296l1.841-.007h1.86L29.09 52.51Zm1.793-13.431c.872 0 1.677.45 2.14 1.172l-1.195 3.722c-.299.12-.62.184-.945.184l-1.635.004h-1.84V39.08h3.475ZM17.285 45.8c0-7.124 5.796-12.92 12.92-12.92 2.665 0 5.255.826 7.418 2.343l-3.153 2.57c-.171.14-.328.294-.471.459a4.613 4.613 0 0 0-1.484-.92v-.982a1.026 1.026 0 0 0-2.052 0v.677H28.32v-.677a1.026 1.026 0 0 0-2.053 0v.677h-1.515a1.026 1.026 0 0 0 0 2.053h.603v13.442h-.604a1.026 1.026 0 1 0 0 2.053h1.634l1.841-.008-2.631 3.305a12.875 12.875 0 0 1-8.311-12.071Z" fill="#90A1AE"/><path d="m40.803 42.438-3.149 3.149a2.663 2.663 0 0 0-.785 1.895v5.882a1.026 1.026 0 0 0 2.053 0v-5.882c0-.168.065-.325.184-.444l3.148-3.148a1.026 1.026 0 1 0-1.451-1.452ZM45.414 37.688l-.909.908a1.026 1.026 0 1 0 1.452 1.451l.908-.908a1.026 1.026 0 1 0-1.451-1.451ZM58.006 56.196c.567 0 1.026-.46 1.026-1.026v-6.96c0-.272-.108-.533-.3-.726l-1.683-1.682a1.026 1.026 0 0 0-1.451 1.451l1.382 1.382v6.535c0 .566.46 1.026 1.026 1.026ZM41.767 25.917a1.64 1.64 0 0 0 1.866.123l5.521-3.294a1.645 1.645 0 0 0 .607-2.193c-1.049-1.957-2.636-3.163-4.717-3.585a1.646 1.646 0 0 0-1.9 1.115l-1.923 6.045c-.209.658.005 1.36.546 1.789Zm3.22-6.854c1.182.322 2.094 1.021 2.773 2.125l-4.258 2.54 1.485-4.665ZM38.316 24.175a1.026 1.026 0 0 0 1.15-.886l.39-3.01a1.026 1.026 0 1 0-2.036-.264l-.39 3.01a1.026 1.026 0 0 0 .886 1.15ZM1.304 42.37l2.992 1.538a2.388 2.388 0 0 0 1.854.143 2.381 2.381 0 0 0 1.399-1.222l13.497-27.53a2.684 2.684 0 0 0 1.553-.32l11.27 5.794a1.698 1.698 0 0 0 2.396-2.03l-.155-.48a14.531 14.531 0 0 0-7.239-8.54L26.27 8.383a2.68 2.68 0 0 0-.803-2.129l.994-2.034A2.412 2.412 0 0 0 25.4 1.034l-1.5-.772a2.412 2.412 0 0 0-3.208.993l-1.076 1.99a2.655 2.655 0 0 0-1.295.086 2.665 2.665 0 0 0-.907.5l-2.6-1.337a14.533 14.533 0 0 0-11.157-.92l-.481.154c-.657.21-1.118.791-1.175 1.479a1.694 1.694 0 0 0 .917 1.65l11.267 5.794a2.66 2.66 0 0 0 .645 1.452L5.617 29.207a1.026 1.026 0 0 0 1.807.973l9.144-16.973 2.57 1.322L5.705 41.927a.345.345 0 0 1-.47.156l-2.993-1.54a.345.345 0 0 1-.146-.474l3.253-6.038a1.026 1.026 0 1 0-1.807-.973L.29 39.095a2.382 2.382 0 0 0-.181 1.85 2.381 2.381 0 0 0 1.195 1.424Zm32.74-23.815L23.942 13.36l1.572-3.056 2.419 1.244a12.486 12.486 0 0 1 6.11 7.007ZM22.962 2.088l1.5.771a.349.349 0 0 1 .154.461l-.925 1.893-2.194-1.128 1.002-1.854a.348.348 0 0 1 .463-.143ZM18.95 5.285a.61.61 0 0 1 .469.039l4.474 2.3c.302.156.42.527.266.829l-2.301 4.474a.615.615 0 0 1-.828.266l-4.474-2.302a.61.61 0 0 1-.265-.827l2.3-4.475a.61.61 0 0 1 .359-.304Zm-5.073-.966 2.42 1.244-1.572 3.057L4.621 3.425c3.1-.901 6.372-.588 9.255.894Z" fill="#90A1AE"/></svg>