<svg width="67" height="60" fill="none" xmlns="http://www.w3.org/2000/svg"><path d="M61.597 0H5.403a5.433 5.433 0 0 0-3.819 1.571A5.34 5.34 0 0 0 0 5.357v49.286a5.34 5.34 0 0 0 1.584 3.786A5.433 5.433 0 0 0 5.404 60h56.193a5.433 5.433 0 0 0 3.818-1.571A5.34 5.34 0 0 0 67 54.643V5.357a5.34 5.34 0 0 0-1.585-3.786A5.433 5.433 0 0 0 61.597 0ZM5.403 2.143h56.194c.86 0 1.684.339 2.292.941a3.2 3.2 0 0 1 .95 2.273v7.5H2.16v-7.5a3.2 3.2 0 0 1 .95-2.273 3.256 3.256 0 0 1 2.292-.941Zm-3.242 15V15h8.645v2.143H2.162ZM12.968 15h8.645v2.143h-8.645V15Zm10.806 0h8.645v2.143h-8.645V15Zm10.807 0h8.645v1.071c0 .285-.114.557-.317.758a1.085 1.085 0 0 1-.764.314h-7.564V15Zm27.016 42.857H5.403c-.86 0-1.684-.338-2.292-.941a3.2 3.2 0 0 1-.95-2.273V19.286h39.984c.86 0 1.685-.339 2.293-.942a3.2 3.2 0 0 0 .95-2.273V15h19.45v39.643a3.2 3.2 0 0 1-.949 2.273 3.256 3.256 0 0 1-2.292.941Z" fill="#90A1AE"/><path d="M50.79 10.714c.642 0 1.268-.188 1.801-.541a3.22 3.22 0 0 0 1.194-1.443 3.189 3.189 0 0 0-.702-3.503 3.268 3.268 0 0 0-3.533-.697 3.236 3.236 0 0 0-1.455 1.184 3.194 3.194 0 0 0 .403 4.059 3.256 3.256 0 0 0 2.292.941Zm0-4.285a1.087 1.087 0 0 1 .999.661 1.063 1.063 0 0 1-.235 1.168A1.084 1.084 0 0 1 49.71 7.5c0-.284.114-.557.316-.758.203-.2.478-.313.764-.313ZM59.435 10.714c.642 0 1.268-.188 1.802-.541A3.22 3.22 0 0 0 62.43 8.73a3.189 3.189 0 0 0-.703-3.503 3.268 3.268 0 0 0-3.533-.697 3.236 3.236 0 0 0-1.455 1.184 3.195 3.195 0 0 0 .403 4.059 3.256 3.256 0 0 0 2.292.941Zm0-4.285a1.088 1.088 0 0 1 .999.661 1.063 1.063 0 0 1-.234 1.168 1.083 1.083 0 0 1-1.178.232 1.079 1.079 0 0 1-.667-.99c0-.284.114-.557.316-.758.203-.2.478-.313.764-.313ZM61.597 21.429H5.403c-.286 0-.561.113-.764.313-.203.201-.316.474-.316.758v32.143c0 .284.113.556.316.758.203.2.478.313.764.313h56.194c.286 0 .561-.113.764-.313.203-.202.316-.474.316-.758V22.5c0-.284-.113-.557-.316-.758a1.086 1.086 0 0 0-.764-.313Zm-1.08 32.142H6.483v-30h54.032v30Z" fill="#90A1AE"/><path d="M9.726 51.429h48.629v-2.143H10.807V25.714H8.645v24.643c0 .284.114.557.317.758.202.2.477.314.764.314Z" fill="#90A1AE"/><path d="M17.29 39.643h1.081v2.143h2.161v-2.143h1.08c.288 0 .562-.113.765-.314.203-.2.317-.473.317-.758v-6.428c0-.284-.114-.557-.317-.758a1.085 1.085 0 0 0-.764-.314h-1.08V28.93H18.37v2.142h-1.08c-.287 0-.562.113-.765.314a1.067 1.067 0 0 0-.316.758v6.428c0 .285.113.557.316.758.203.201.478.314.764.314Zm1.081-6.429h2.161V37.5h-2.161v-4.286ZM28.097 42.857h1.08v4.286h2.162v-4.286h1.08c.287 0 .562-.113.765-.314.202-.2.316-.473.316-.757v-6.429c0-.284-.114-.556-.316-.758a1.086 1.086 0 0 0-.765-.313h-1.08v-2.143h-2.162v2.143h-1.08c-.287 0-.562.113-.764.313a1.067 1.067 0 0 0-.317.758v6.429c0 .284.114.556.317.757.202.201.477.314.764.314Zm1.08-6.428h2.162v4.285h-2.162V36.43ZM38.903 39.643h1.08v2.143h2.162v-2.143h1.08c.287 0 .562-.113.765-.314.203-.2.316-.473.316-.758v-6.428c0-.284-.113-.557-.316-.758a1.085 1.085 0 0 0-.764-.314h-1.08V28.93h-2.162v2.142h-1.08c-.287 0-.562.113-.765.314a1.067 1.067 0 0 0-.316.758v6.428c0 .285.113.557.316.758.203.201.478.314.764.314Zm1.08-6.429h2.162V37.5h-2.161v-4.286ZM49.71 36.429h1.08v7.5h2.162v-7.5h1.08c.287 0 .562-.113.764-.314.203-.201.317-.474.317-.758V28.93c0-.285-.114-.557-.317-.758a1.085 1.085 0 0 0-.764-.314h-1.08v-2.143H50.79v2.143h-1.08c-.287 0-.562.113-.764.314-.203.2-.317.473-.317.758v6.428c0 .284.114.557.317.758.202.2.477.314.764.314ZM50.79 30h2.162v4.286H50.79V30Z" fill="#90A1AE"/></svg>