<svg width="77" height="54" fill="none" xmlns="http://www.w3.org/2000/svg"><path d="M3.85 54h33.367a1.282 1.282 0 0 0 1.283-1.286v-4.898l6.454-16.354a3.22 3.22 0 0 0-1.44-4.08A3.203 3.203 0 0 0 41.997 27H22.226a3.841 3.841 0 0 0-3.552 2.37l-6.712 16.916H1.283A1.282 1.282 0 0 0 0 47.57v2.572a3.865 3.865 0 0 0 1.129 2.726c.722.723 1.7 1.13 2.721 1.131Zm32.083-2.571H25.667a1.284 1.284 0 0 1-1.284-1.286v-1.286h11.55v2.572ZM21.052 30.338a1.284 1.284 0 0 1 1.174-.767h19.771a.64.64 0 0 1 .59.896l-.014.034-6.229 15.785h-21.62l6.328-15.948ZM2.567 48.858h19.25v1.285c0 .438.074.873.22 1.286H3.85a1.284 1.284 0 0 1-1.283-1.286v-1.286Z" fill="#90A1AE"/><path d="M41.067 51.429V54h21.816a1.282 1.282 0 0 0 1.284-1.286V38.571h8.983a3.85 3.85 0 0 0 2.721-1.13A3.866 3.866 0 0 0 77 34.713V3.857a3.866 3.866 0 0 0-1.129-2.726A3.85 3.85 0 0 0 73.15 0H30.8a3.85 3.85 0 0 0-2.721 1.131 3.865 3.865 0 0 0-1.129 2.726V24.43h2.567V3.857A1.288 1.288 0 0 1 30.8 2.571h42.35a1.284 1.284 0 0 1 1.283 1.286v30.857A1.288 1.288 0 0 1 73.15 36H44.917v2.571h2.566v9h-6.416v2.572h17.966a1.282 1.282 0 0 0 1.284-1.286V38.571H61.6V51.43H41.067ZM57.75 47.57h-7.7v-9h2.567v2.572a1.287 1.287 0 0 0 1.283 1.286 1.282 1.282 0 0 0 1.283-1.286V38.57h2.567v9ZM23.1 33.429c.709 0 1.283-.576 1.283-1.286a1.285 1.285 0 1 0-1.283 1.286ZM26.95 33.429c.709 0 1.283-.576 1.283-1.286a1.285 1.285 0 1 0-1.283 1.286Z" fill="#90A1AE"/><path d="M32.083 6.429c.71 0 1.284-.576 1.284-1.286a1.285 1.285 0 1 0-1.284 1.286ZM35.933 6.429c.71 0 1.284-.576 1.284-1.286a1.285 1.285 0 1 0-1.284 1.286ZM39.783 6.429c.71 0 1.284-.576 1.284-1.286a1.285 1.285 0 1 0-1.284 1.286ZM49.142 25.338l3.85 3.857 1.816-1.818-2.943-2.948 2.942-2.948-1.815-1.819-3.85 3.858a1.287 1.287 0 0 0 0 1.818ZM67.64 29.195l3.85-3.857a1.287 1.287 0 0 0 0-1.819l-3.85-3.857-1.814 1.819 2.943 2.948-2.943 2.948 1.815 1.818ZM55.286 32.933l7.702-17.997 2.359 1.013-7.702 17.997-2.359-1.013ZM32.083 10.286h2.567v2.571h-2.567v-2.571ZM37.217 10.286H46.2v2.571h-8.983v-2.571ZM32.083 15.429h2.567V18h-2.567v-2.571ZM37.217 15.429h5.133V18h-5.133v-2.571ZM32.083 20.571h2.567v2.572h-2.567V20.57ZM37.217 20.571h7.7v2.572h-7.7V20.57ZM48.767 10.286H53.9v2.571h-5.133v-2.571Z" fill="#90A1AE"/></svg>