<svg width="68" height="69" fill="none" xmlns="http://www.w3.org/2000/svg"><path d="M46.509 0C40.146-.03 34.1 2.814 30.014 7.762c-4.088 4.947-5.793 11.484-4.653 17.835-9.271-1.687-18.549 2.93-22.91 11.402-4.362 8.471-2.797 18.835 3.863 25.594 6.661 6.758 16.875 8.346 25.224 3.92 8.35-4.425 12.9-13.839 11.238-23.247 8.001 1.436 16.117-1.832 20.97-8.445 4.854-6.613 5.615-15.438 1.968-22.806C62.067 4.647 54.634-.002 46.509 0ZM34.487 39.878c3.556 6.533 1.83 14.726-4.049 19.212a14.605 14.605 0 0 1-19.314-1.378c-5.202-5.277-5.78-13.634-1.359-19.598 4.422-5.964 12.496-7.716 18.935-4.108a21.83 21.83 0 0 0 5.787 5.872Zm6.365 7.183c.027 8.331-5.146 15.766-12.892 18.53-7.746 2.763-16.366.25-21.484-6.265C1.357 52.812.864 43.724 5.245 36.68c4.381-7.046 12.677-10.506 20.675-8.624.27.905.597 1.79.981 2.652-7.473-2.493-15.655.546-19.776 7.344-4.122 6.799-3.105 15.58 2.457 21.223 5.562 5.644 14.215 6.675 20.916 2.493 6.7-4.182 9.694-12.484 7.238-20.066.848.388 1.72.72 2.612.994.33 1.431.5 2.896.505 4.366Zm5.657-5.739c-10.621 0-19.231-8.736-19.231-19.513 0-10.777 8.61-19.513 19.23-19.513 10.621 0 19.231 8.736 19.231 19.513-.011 10.772-8.614 19.501-19.23 19.513Z" fill="#90A1AE"/><path d="M46.509 4.592c-9.372 0-16.969 7.708-16.969 17.217 0 9.509 7.597 17.217 16.969 17.217 9.371 0 16.968-7.708 16.968-17.217-.01-9.505-7.601-17.207-16.968-17.217Zm0 32.139c-8.122 0-14.706-6.681-14.706-14.922S38.387 6.887 46.509 6.887c8.121 0 14.706 6.68 14.706 14.922-.01 8.237-6.588 14.912-14.706 14.922Z" fill="#90A1AE"/><path fill-rule="evenodd" clip-rule="evenodd" d="M21.622 40.174c1.712-.141 3.221 1.135 3.393 2.87a1.14 1.14 0 0 0 1.131 1.148 1.14 1.14 0 0 0 1.132-1.148c-.11-2.573-2.012-4.701-4.525-5.061v-1.252a1.14 1.14 0 0 0-1.131-1.148 1.14 1.14 0 0 0-1.132 1.148v1.252c-2.513.36-4.415 2.488-4.524 5.06.167 3.007 2.692 5.313 5.656 5.166 1.712-.141 3.221 1.135 3.393 2.87-.172 1.734-1.68 3.01-3.393 2.87-1.713.14-3.222-1.136-3.394-2.87a1.14 1.14 0 0 0-1.131-1.148 1.14 1.14 0 0 0-1.132 1.148c.11 2.572 2.012 4.7 4.525 5.06v1.252a1.14 1.14 0 0 0 1.132 1.148 1.14 1.14 0 0 0 1.13-1.148V56.14c2.514-.36 4.417-2.488 4.526-5.06-.168-3.006-2.693-5.312-5.656-5.166-1.713.142-3.222-1.134-3.394-2.87.172-1.734 1.68-3.01 3.394-2.869Z" fill="#90A1AE"/><path d="M53.296 18.366c0-2.536-2.026-4.592-4.525-4.592v-1.148a1.14 1.14 0 0 0-1.131-1.147 1.14 1.14 0 0 0-1.131 1.147v1.148h-1.132v-1.148a1.14 1.14 0 0 0-1.13-1.147 1.14 1.14 0 0 0-1.132 1.147v1.148h-2.263a1.14 1.14 0 0 0-1.13 1.148 1.14 1.14 0 0 0 1.13 1.148h1.132v4.591h-1.132a1.14 1.14 0 0 0-1.13 1.148 1.14 1.14 0 0 0 1.13 1.148h1.132v4.591h-1.132a1.14 1.14 0 0 0-1.13 1.148 1.14 1.14 0 0 0 1.13 1.148h2.263v1.148a1.14 1.14 0 0 0 1.131 1.147 1.14 1.14 0 0 0 1.131-1.147v-1.148h1.132v1.148a1.14 1.14 0 0 0 1.13 1.147 1.14 1.14 0 0 0 1.132-1.147v-1.148c1.887.008 3.58-1.177 4.24-2.97a4.616 4.616 0 0 0-1.278-5.065 4.59 4.59 0 0 0 1.563-3.444Zm-2.263 6.886c0 1.268-1.012 2.296-2.262 2.296h-4.525v-4.591h4.525c1.25 0 2.262 1.028 2.262 2.295Zm-6.787-4.59V16.07h4.525c1.25 0 2.262 1.028 2.262 2.296 0 1.267-1.012 2.295-2.262 2.295h-4.525Z" fill="#90A1AE"/><path fill-rule="evenodd" clip-rule="evenodd" d="M54.427 58.54H43.115a1.14 1.14 0 0 0-1.131 1.147 1.14 1.14 0 0 0 1.13 1.148h11.313v2.296a2.269 2.269 0 0 0 1.343 2.097 2.218 2.218 0 0 0 2.448-.404l8.475-8.021a2.31 2.31 0 0 0 .749-1.697 2.31 2.31 0 0 0-.735-1.703l-8.504-8.048a2.237 2.237 0 0 0-2.434-.39 2.297 2.297 0 0 0-1.342 2.096v2.296H46.51a1.14 1.14 0 0 0-1.132 1.148 1.14 1.14 0 0 0 1.132 1.147h7.918c1.25 0 2.263-1.027 2.263-2.295l-.015-2.31 8.484 8.063-8.47 8.02v-2.295c0-1.268-1.012-2.296-2.262-2.296ZM9.927 23.512c.412.38.948.591 1.505.593.32 0 .636-.07.928-.204a2.268 2.268 0 0 0 1.343-2.092v-2.296h7.919a1.14 1.14 0 0 0 1.13-1.148 1.14 1.14 0 0 0-1.13-1.147h-7.919c-1.25 0-2.262 1.027-2.262 2.295l.014 2.31-8.484-8.063 8.47-8.02v2.295c0 1.268 1.012 2.296 2.262 2.296h11.312a1.14 1.14 0 0 0 1.131-1.148 1.14 1.14 0 0 0-1.13-1.148H13.702V5.739a2.297 2.297 0 0 0-1.35-2.103 2.237 2.237 0 0 0-2.44.408l-8.476 8.021a2.31 2.31 0 0 0-.749 1.697 2.311 2.311 0 0 0 .736 1.703l8.503 8.047Z" fill="#90A1AE"/></svg>