<svg width="76" height="68" fill="none" xmlns="http://www.w3.org/2000/svg"><path d="M74.774 58.243h-1.226V16.776a4.866 4.866 0 0 0-1.436-3.45 4.916 4.916 0 0 0-3.467-1.428H50.258a12.168 12.168 0 0 0-3.693-8.43A12.29 12.29 0 0 0 38.004 0a12.29 12.29 0 0 0-8.561 3.467 12.167 12.167 0 0 0-3.694 8.43H7.355c-1.3 0-2.548.514-3.467 1.43a4.866 4.866 0 0 0-1.436 3.449v41.467H1.226c-.325 0-.637.128-.867.357-.23.229-.359.54-.359.863v2.439a6.09 6.09 0 0 0 1.797 4.31A6.152 6.152 0 0 0 6.13 68h63.742a6.152 6.152 0 0 0 4.332-1.788A6.09 6.09 0 0 0 76 61.902v-2.44c0-.323-.13-.633-.359-.862a1.229 1.229 0 0 0-.867-.357ZM38 24.166a12.285 12.285 0 0 0 5.51-1.31 12.22 12.22 0 0 0 4.327-3.64h18.357v34.149H9.806v-34.15h18.357a12.22 12.22 0 0 0 4.326 3.64A12.285 12.285 0 0 0 38 24.165Zm0-21.954c1.94 0 3.836.573 5.448 1.645a9.768 9.768 0 0 1 3.612 4.379 9.711 9.711 0 0 1 .558 5.637 9.741 9.741 0 0 1-2.684 4.996 9.821 9.821 0 0 1-5.02 2.67 9.852 9.852 0 0 1-5.667-.555 9.796 9.796 0 0 1-4.4-3.594 9.722 9.722 0 0 1-1.654-5.42 9.744 9.744 0 0 1 2.876-6.897A9.843 9.843 0 0 1 38 2.213ZM4.903 16.776c0-.647.259-1.267.718-1.725a2.458 2.458 0 0 1 1.734-.714h18.623c.166.837.42 1.655.76 2.439H8.581c-.325 0-.637.128-.867.357-.23.229-.36.54-.36.863v36.588c0 .324.13.634.36.863.23.228.542.357.867.357h58.838c.326 0 .637-.129.867-.357.23-.23.36-.54.36-.863V17.996c0-.324-.13-.634-.36-.863a1.229 1.229 0 0 0-.867-.357H49.263c.339-.784.593-1.602.759-2.44h18.623c.65 0 1.274.258 1.734.715.46.458.718 1.078.718 1.725v41.467H45.355a1.23 1.23 0 0 0-1.103.674l-.887 1.765H32.63l-.88-1.765a1.222 1.222 0 0 0-1.104-.674H4.903V16.776Zm68.645 45.126a3.65 3.65 0 0 1-1.077 2.587 3.687 3.687 0 0 1-2.6 1.072H6.129c-.975 0-1.91-.386-2.6-1.072a3.65 3.65 0 0 1-1.077-2.587v-1.22h27.436l.886 1.766a1.222 1.222 0 0 0 1.097.673h12.258a1.23 1.23 0 0 0 1.103-.673l.886-1.766h27.43v1.22Z" fill="#90A1AE"/><path d="M13.484 50.997h50.258v-2.439h-4.903v-2.44h-2.452v2.44h-2.452v-2.44h-2.451v2.44h-2.452v-2.44h-2.451v2.44h-2.452v-2.44h-2.452v2.44h-2.451v-2.44h-2.452v2.44h-2.451v-2.44H31.87v2.44h-2.452v-2.44h-2.451v2.44h-2.452v-2.44h-2.451v2.44h-2.452v-2.44H17.16v2.44H14.71v-2.44h2.451V43.68H14.71v-2.44h2.451v-2.439H14.71v-2.44h2.451v-2.438H14.71v-2.44h2.451v-2.439H14.71v-2.44h2.451v-2.438H14.71v-2.44h-2.452v28.052c0 .323.13.633.36.862.229.229.54.357.866.357Z" fill="#90A1AE"/><path d="m19.91 38.764 2.362-.587-1.392 5.188 2.369.63 1.74-6.494 3.48-.865.975 4.848a1.217 1.217 0 0 0 1.201.976 1.23 1.23 0 0 0 1.02-.543l3.702-5.526 2.952 3.23c.197.216.464.354.755.39l19.613 2.44.304-2.42-19.163-2.384-3.054-3.347 1.532-2.287 3.862 2.885a1.23 1.23 0 0 0 1.542-.058l8.352-7.27 1.92 6.688a1.219 1.219 0 0 0 .956.865 1.232 1.232 0 0 0 1.204-.469l7.355-9.757-1.962-1.463-5.874 7.792-1.772-6.176a1.22 1.22 0 0 0-.832-.834 1.232 1.232 0 0 0-1.154.252l-9.06 7.886-4.108-3.066a1.23 1.23 0 0 0-1.755.299l-1.91 2.851-7.195-7.874a1.227 1.227 0 0 0-1.764-.05c-.158.152-.27.345-.327.557l-2.791 10.413-3.678.914.595 2.366Zm7.663-10.903 6.094 6.671-2.4 3.584-.646-3.218a1.217 1.217 0 0 0-1.007-.964 1.23 1.23 0 0 0-.491.02l-3.412.854 1.862-6.947ZM34.323 19.287h2.451v-1.22H38v1.22h2.452v-1.22c.71 0 1.403-.206 1.998-.59a3.665 3.665 0 0 0 1.355-1.577 3.642 3.642 0 0 0-.617-3.93 3.65 3.65 0 0 0 .617-3.931 3.664 3.664 0 0 0-1.355-1.577 3.691 3.691 0 0 0-1.998-.59v-1.22H38v1.22h-1.226v-1.22h-2.451v1.22H31.87V8.31h1.226v7.317H31.87v2.44h2.452v1.22Zm6.129-10.976c.325 0 .637.128.866.357a1.216 1.216 0 0 1 0 1.725 1.23 1.23 0 0 1-.866.357h-4.904V8.31h4.904Zm-4.904 4.878h4.904c.325 0 .637.129.866.357a1.216 1.216 0 0 1 0 1.725 1.23 1.23 0 0 1-.866.357h-4.904V13.19Z" fill="#90A1AE"/></svg>