<svg width="70" height="52" fill="none" xmlns="http://www.w3.org/2000/svg"><path d="M65.898 0H41.152c-.755 0-1.367.6-1.367 1.34 0 .741.612 1.341 1.367 1.341h24.746c.754 0 1.368.602 1.368 1.341V8.16H2.734V4.022c0-.74.614-1.34 1.368-1.34h24.746c.755 0 1.367-.601 1.367-1.341S29.603 0 28.848 0H4.102C1.84 0 0 1.804 0 4.022v37.309c0 2.217 1.84 4.022 4.102 4.022h32.403C38.993 49.336 43.474 52 48.578 52c5.104 0 9.585-2.663 12.075-6.647h5.245c2.262 0 4.102-1.805 4.102-4.022V4.022C70 1.804 68.16 0 65.898 0Zm1.368 10.84v6.704H2.734v-6.703h64.532ZM48.578 49.32c-6.294 0-11.416-5.022-11.416-11.195s5.122-11.195 11.416-11.195c6.295 0 11.416 5.022 11.416 11.195s-5.12 11.195-11.416 11.195Zm17.32-6.648h-3.95c.505-1.425.78-2.955.78-4.547 0-7.652-6.347-13.876-14.15-13.876-7.802 0-14.15 6.224-14.15 13.876 0 1.592.276 3.122.782 4.547H4.101c-.754 0-1.368-.601-1.368-1.34V20.226h64.532V41.33c0 .739-.614 1.34-1.368 1.34Z" fill="#90A1AE"/><path d="M35 2.681c.755 0 1.367-.6 1.367-1.34C36.367.6 35.755 0 35 0s-1.367.6-1.367 1.34c0 .741.612 1.341 1.367 1.341ZM8.203 32.341h10.672c.756 0 1.368-.6 1.368-1.34 0-.741-.612-1.341-1.368-1.341H8.203c-.755 0-1.367.6-1.367 1.34 0 .74.612 1.341 1.367 1.341ZM28.524 35.968H8.204c-.756 0-1.368.6-1.368 1.34 0 .74.612 1.34 1.367 1.34h20.321c.755 0 1.367-.6 1.367-1.34 0-.74-.612-1.34-1.367-1.34ZM48.578 36.783c-.907 0-1.645-.724-1.645-1.613 0-.89.738-1.613 1.645-1.613.429 0 .834.16 1.141.452a1.387 1.387 0 0 0 1.934-.031 1.322 1.322 0 0 0-.032-1.896 4.375 4.375 0 0 0-1.675-.992v-.139c0-.74-.612-1.34-1.367-1.34-.756 0-1.368.6-1.368 1.34v.14c-1.747.564-3.012 2.179-3.012 4.079 0 2.368 1.965 4.294 4.38 4.294.907 0 1.645.724 1.645 1.614 0 .89-.738 1.613-1.645 1.613a1.65 1.65 0 0 1-1.141-.452 1.386 1.386 0 0 0-1.934.03c-.525.533-.51 1.382.032 1.897a4.375 4.375 0 0 0 1.675.992v.139c0 .74.612 1.34 1.367 1.34s1.367-.6 1.367-1.34v-.14c1.748-.565 3.013-2.18 3.013-4.08 0-2.367-1.965-4.294-4.38-4.294Z" fill="#90A1AE"/></svg>