<svg width="63" height="65" fill="none" xmlns="http://www.w3.org/2000/svg"><path d="M57.569 9.75H28.241v2.167H57.57V9.75ZM46.707 14.083H28.24v2.167h18.466v-2.167ZM46.707 18.417H28.24v2.166h18.466v-2.166ZM57.569 5.417H36.931v2.166h20.638V5.417ZM34.759 5.417h-2.173v2.166h2.173V5.417ZM32.586 43.333h-2.172V45.5h2.172v-2.167ZM17.061 7.266l-1.536-1.532-2.172 2.167a1.081 1.081 0 0 0 0 1.532l2.172 2.166 1.536-1.532-1.404-1.4 1.404-1.401ZM25.75 7.9l-2.172-2.166-1.536 1.532 1.405 1.4-1.405 1.401 1.536 1.532 2.173-2.166a1.081 1.081 0 0 0 0-1.532ZM19.608 5.073l-2.174 6.5 2.06.685 2.174-6.5-2.06-.685ZM55.397 33.583v-8.666h-2.173v8.666h-2.172V22.75h-2.173v10.833h-2.172v-5.416h-2.172v5.416h-2.173v-6.5H40.19v6.5h-2.173V29.25h-2.172v4.333h-2.173v2.167H57.57v-2.167h-2.172Z" fill="#90A1AE"/><path d="M56.483 0H6.517C2.92.004.004 2.912 0 6.5v36.833c.004 3.589 2.92 6.497 6.517 6.5h13.45L15.622 58.5H9.776a3.254 3.254 0 0 0-3.259 3.25A3.254 3.254 0 0 0 9.776 65h43.448c1.8 0 3.259-1.455 3.259-3.25a3.254 3.254 0 0 0-3.259-3.25h-5.846l-4.345-8.667h13.45c3.598-.003 6.514-2.911 6.517-6.5V6.5C62.996 2.912 60.08.004 56.483 0ZM2.173 15.242l2.468 2.932c.207.245.511.387.832.387h3.325c.321 0 .626-.142.832-.387l2.47-2.931 2.438.79.27 3.816c.021.319.184.612.443.8l2.691 1.95c.26.188.59.252.901.175l3.73-.924 1.507 2.068-2.032 3.25a1.081 1.081 0 0 0-.107.909l1.029 3.153c.099.305.328.55.625.67l3.56 1.44v2.556l-3.563 1.44c-.297.12-.526.366-.624.67l-.326.994h-6.258c2.434-5.083.276-11.172-4.82-13.6a10.25 10.25 0 0 0-9.392.298V15.242Zm0 13.033c3.513-2.734 8.583-2.11 11.324 1.395a8.03 8.03 0 0 1 .406 9.33H2.173V28.275Zm51.051 32.392c.6 0 1.086.485 1.086 1.083s-.486 1.083-1.086 1.083H9.776c-.6 0-1.086-.485-1.086-1.083s.486-1.083 1.086-1.083h43.448ZM44.95 58.5H18.051l4.344-8.667h18.21l4.344 8.667Zm15.879-15.167a4.34 4.34 0 0 1-4.345 4.334H6.517a4.34 4.34 0 0 1-4.345-4.334v-2.166h58.656v2.166Zm0-4.333H25.26l3.39-1.37c.41-.166.677-.563.678-1.004v-4.018c0-.44-.268-.838-.678-1.004l-3.776-1.523-.715-2.194 2.153-3.445a1.08 1.08 0 0 0-.043-1.209l-2.368-3.25a1.087 1.087 0 0 0-1.14-.415l-3.95.975-1.866-1.352-.286-4.04a1.084 1.084 0 0 0-.748-.955l-3.83-1.242a1.097 1.097 0 0 0-1.167.335L8.3 16.393H5.983l-2.616-3.104a1.097 1.097 0 0 0-1.169-.335l-.026.01V6.5a4.34 4.34 0 0 1 4.345-4.333h49.966A4.34 4.34 0 0 1 60.828 6.5V39Z" fill="#90A1AE"/></svg>