<svg width="154" height="154" viewBox="0 0 154 154" fill="none" xmlns="http://www.w3.org/2000/svg">
<path d="M141.167 44.9167H147.583V109.083H141.167V128.333C141.167 130.035 140.491 131.667 139.287 132.871C138.084 134.074 136.452 134.75 134.75 134.75H19.2502C17.5484 134.75 15.9163 134.074 14.7129 132.871C13.5095 131.667 12.8335 130.035 12.8335 128.333V25.6667C12.8335 23.9649 13.5095 22.3328 14.7129 21.1294C15.9163 19.926 17.5484 19.25 19.2502 19.25H134.75C136.452 19.25 138.084 19.926 139.287 21.1294C140.491 22.3328 141.167 23.9649 141.167 25.6667V44.9167ZM128.333 109.083H89.8335C81.3245 109.083 73.1639 105.703 67.1472 99.6863C61.1304 93.6695 57.7502 85.509 57.7502 77C57.7502 68.491 61.1304 60.3304 67.1472 54.3137C73.1639 48.2969 81.3245 44.9167 89.8335 44.9167H128.333V32.0833H25.6668V121.917H128.333V109.083ZM134.75 96.25V57.75H89.8335C84.7281 57.75 79.8318 59.7781 76.2217 63.3882C72.6116 66.9983 70.5835 71.8946 70.5835 77C70.5835 82.1054 72.6116 87.0017 76.2217 90.6118C79.8318 94.2219 84.7281 96.25 89.8335 96.25H134.75ZM89.8335 70.5833H109.083V83.4167H89.8335V70.5833Z" fill="white" fill-opacity="0.2"/>
</svg>
