<svg width="26" height="26" fill="none" xmlns="http://www.w3.org/2000/svg"><path d="M13 26c7.18 0 13-5.82 13-13S20.18 0 13 0 0 5.82 0 13s5.82 13 13 13Z" fill="#25D366"/><path fill-rule="evenodd" clip-rule="evenodd" d="M13.428 20.233h-.003a7.725 7.725 0 0 1-3.694-.941l-4.098 1.075L6.73 16.36a7.716 7.716 0 0 1-1.032-3.865c.002-4.262 3.47-7.73 7.73-7.73a7.68 7.68 0 0 1 5.469 2.268 7.683 7.683 0 0 1 2.262 5.468c-.002 4.262-3.468 7.729-7.73 7.73Zm-3.507-2.34.235.139a6.416 6.416 0 0 0 3.27.895h.002c3.542 0 6.424-2.882 6.425-6.425a6.386 6.386 0 0 0-1.88-4.545 6.381 6.381 0 0 0-4.542-1.885 6.434 6.434 0 0 0-6.428 6.425c0 1.214.34 2.396.983 3.42l.152.242-.649 2.371 2.432-.638Zm7.137-3.726c.135.065.226.109.265.174.048.08.048.467-.113.918-.16.451-.932.863-1.303.919-.333.05-.754.07-1.217-.077-.28-.089-.64-.208-1.101-.407-1.81-.782-3.035-2.537-3.266-2.868a2.554 2.554 0 0 0-.034-.048l-.001-.002c-.103-.137-.787-1.05-.787-1.996 0-.89.437-1.356.638-1.571l.038-.04a.71.71 0 0 1 .515-.242 7.678 7.678 0 0 1 .413.007c.113 0 .253-.002.391.331.054.128.132.318.214.518.166.404.35.851.382.916.048.097.08.21.016.339l-.027.055a1.097 1.097 0 0 1-.166.267 7.43 7.43 0 0 0-.099.119c-.067.08-.133.162-.19.22-.098.095-.198.2-.085.393.112.194.5.826 1.074 1.338.617.551 1.154.784 1.426.902.053.023.096.041.127.057.193.097.306.08.419-.048.112-.13.483-.564.611-.758.13-.193.258-.16.435-.096s1.127.531 1.32.628l.105.052Z" fill="#FDFDFD"/></svg>