<svg width="26" height="26" fill="none" xmlns="http://www.w3.org/2000/svg"><path d="M0 13C0 5.82 5.82 0 13 0s13 5.82 13 13-5.82 13-13 13S0 20.18 0 13Z" fill="red"/><path d="M19.644 9.79a1.76 1.76 0 0 0-1.226-1.26C17.335 8.234 13 8.234 13 8.234s-4.336 0-5.418.298A1.76 1.76 0 0 0 6.356 9.79c-.29 1.11-.29 3.427-.29 3.427s0 2.316.29 3.427a1.76 1.76 0 0 0 1.226 1.259C8.664 18.2 13 18.2 13 18.2s4.336 0 5.418-.297a1.76 1.76 0 0 0 1.226-1.26c.29-1.11.29-3.426.29-3.426s0-2.317-.29-3.427Z" fill="#fff"/><path d="M11.7 15.6v-4.333l3.467 2.167L11.7 15.6Z" fill="red"/></svg>